<?xml version="1.0" encoding="UTF-8"?>
<!DOCTYPE svg PUBLIC "-//W3C//DTD SVG 1.1//EN" "http://www.w3.org/Graphics/SVG/1.1/DTD/svg11.dtd">
<!-- Creator: CorelDRAW X7 -->
<svg xmlns="http://www.w3.org/2000/svg" xml:space="preserve" width="107.721mm" height="143.292mm" version="1.1" style="shape-rendering:geometricPrecision; text-rendering:geometricPrecision; image-rendering:optimizeQuality; fill-rule:evenodd; clip-rule:evenodd"
viewBox="0 0 10772 14329"
 xmlns:xlink="http://www.w3.org/1999/xlink">
 <defs>
  <style type="text/css">
   <![CDATA[
    .fil0 {fill:#201E1E}
    .fil2 {fill:#ED3237;fill-rule:nonzero}
    .fil1 {fill:#201E1E;fill-rule:nonzero}
   ]]>
  </style>
 </defs>
 <g id="Layer_x0020_1">
  <metadata id="CorelCorpID_0Corel-Layer"/>
  <g id="_760508304">
   <path class="fil0" d="M5833 8762c1424,0 3017,-1565 2963,-3643 -46,-1748 -699,-3927 -2121,-3890 -598,15 -842,492 -842,1538l0 5995zm-447 -8762c477,0 940,62 1380,179 -1467,56 -1984,1025 -1984,2588l0 5991c-2250,-7 -2835,-3053 -2746,-4417 133,-2027 942,-4082 3071,-4334 92,-5 185,-7 279,-7zm4535 2484c539,840 851,1839 851,2911 0,2829 -2173,5149 -4939,5377l0 -1445c1329,0 3184,-738 4122,-3032 624,-1524 394,-2859 -34,-3811zm-5139 8273c-2690,-301 -4782,-2587 -4782,-5362 0,-1076 315,-2078 856,-2920 -308,719 -432,1580 -369,2616 142,2339 2293,4236 4295,4236l0 1430z"/>
   <path class="fil1" d="M2424 14329l-750 0 -681 -899 -218 0 0 899 -612 0 0 -2447 984 0c136,0 254,9 355,25 101,18 194,53 280,106 87,57 157,127 208,213 52,86 78,195 78,328 0,187 -42,339 -127,455 -85,117 -198,209 -340,278l823 1042zm-989 -1700c0,-61 -12,-114 -35,-158 -24,-45 -63,-79 -117,-104 -38,-16 -81,-26 -128,-30 -47,-5 -106,-7 -175,-7l-205 0 0 660 175 0c85,0 158,-5 217,-16 60,-10 110,-33 152,-67 39,-30 68,-67 87,-110 19,-42 29,-99 29,-168z"/>
   <path id="1" class="fil1" d="M3942 13400l-1299 0 0 -312c77,-47 154,-96 232,-147 78,-51 147,-99 205,-145 114,-91 188,-164 221,-221 33,-56 49,-117 49,-183 0,-63 -22,-113 -67,-147 -44,-36 -108,-53 -192,-53 -76,0 -152,16 -227,48 -74,33 -132,60 -173,83l-38 0 0 -391c77,-26 163,-49 257,-70 95,-20 198,-30 310,-30 202,0 356,40 462,121 106,82 159,198 159,349 0,95 -20,184 -62,265 -42,81 -123,176 -243,285 -37,32 -78,65 -122,97 -44,33 -94,70 -151,111l679 0 0 340z"/>
   <polygon id="2" class="fil2" points="6053,14329 4420,14329 4420,11882 5036,11882 5036,13861 6053,13861 "/>
   <path id="3" class="fil2" d="M6084 14329l828 -2447 671 0 827 2447 -632 0 -152 -495 -775 0 -152 495 -615 0zm1406 -942l-252 -812 -252 812 504 0z"/>
   <path id="4" class="fil2" d="M10610 13580c0,121 -23,228 -69,321 -46,92 -109,167 -186,228 -93,72 -194,123 -303,154 -111,31 -251,46 -421,46l-980 0 0 -2447 865 0c180,0 317,7 409,21 93,13 180,42 262,86 87,47 153,110 196,189 43,79 65,170 65,273 0,119 -30,226 -90,319 -59,93 -142,161 -247,205l0 13c151,32 271,97 362,195 91,98 137,231 137,397zm-788 -1007c0,-39 -10,-80 -30,-121 -20,-42 -52,-72 -95,-91 -40,-18 -88,-27 -144,-29 -55,-2 -138,-2 -247,-2l-43 0 0 518 78 0c105,0 178,-1 221,-3 42,-2 85,-14 130,-35 49,-23 84,-54 102,-95 19,-41 28,-88 28,-142zm155 997c0,-76 -15,-135 -46,-178 -31,-43 -77,-75 -138,-97 -38,-14 -89,-22 -154,-24 -65,-2 -152,-2 -262,-2l-114 0 0 613 33 0c160,0 271,-2 333,-4 61,-2 123,-17 187,-44 55,-24 96,-60 122,-106 26,-47 39,-99 39,-158z"/>
  </g>
 </g>
</svg>
