<?xml version="1.0" encoding="UTF-8"?>
<!DOCTYPE svg PUBLIC "-//W3C//DTD SVG 1.1//EN" "http://www.w3.org/Graphics/SVG/1.1/DTD/svg11.dtd">
<!-- Creator: CorelDRAW X7 -->
<svg xmlns="http://www.w3.org/2000/svg" xml:space="preserve" width="222.344mm" height="22.381mm" version="1.1" style="shape-rendering:geometricPrecision; text-rendering:geometricPrecision; image-rendering:optimizeQuality; fill-rule:evenodd; clip-rule:evenodd"
viewBox="0 0 22234 2238"
 xmlns:xlink="http://www.w3.org/1999/xlink">
 <defs>
  <style type="text/css">
   <![CDATA[
    .fil2 {fill:black}
    .fil0 {fill:black;fill-rule:nonzero}
    .fil1 {fill:#E81C23;fill-rule:nonzero}
   ]]>
  </style>
 </defs>
 <g id="Layer_x0020_1">
  <metadata id="CorelCorpID_0Corel-Layer"/>
  <g id="_615087728">
   <path class="fil0" d="M3940 911c0,56 -8,109 -26,159 -18,51 -43,93 -77,127 -20,21 -43,40 -67,58 -25,18 -52,33 -81,45 -30,12 -62,22 -96,29 -35,7 -74,10 -117,10l-158 0 0 394 -302 0 0 -1201 466 0c70,0 129,6 180,19 50,13 95,32 136,60 46,30 81,70 105,121 25,50 37,109 37,179zm-310 7c0,-34 -8,-63 -24,-87 -16,-24 -35,-41 -58,-50 -28,-13 -56,-20 -82,-22 -26,-2 -61,-2 -105,-2l-43 0 0 358 21 0c28,0 55,0 80,-1 26,0 48,-2 66,-5 16,-3 33,-8 51,-16 18,-8 32,-17 42,-26 20,-20 34,-41 41,-62 7,-22 11,-51 11,-87z"/>
   <path id="1" class="fil0" d="M4933 1733l-282 0 0 -449c0,-37 -2,-73 -5,-109 -3,-37 -8,-63 -16,-80 -10,-21 -24,-36 -43,-44 -18,-9 -42,-14 -73,-14 -24,0 -47,5 -71,13 -24,9 -49,23 -76,41l0 642 -283 0 0 -1255 283 0 0 450c46,-40 91,-70 135,-92 44,-22 92,-33 145,-33 93,0 164,29 213,87 49,58 73,143 73,254l0 589z"/>
   <path id="2" class="fil0" d="M5424 1733l-282 0 0 -905 282 0 0 905zm8 -1034l-299 0 0 -220 299 0 0 220z"/>
   <path id="3" class="fil0" d="M12896 1733l-368 0 -334 -441 -107 0 0 441 -301 0 0 -1201 483 0c67,0 125,4 175,12 49,9 95,26 137,52 43,28 77,63 102,105 25,42 38,95 38,160 0,92 -21,167 -62,224 -42,57 -97,103 -167,136l404 512zm-485 -834c0,-31 -6,-57 -18,-78 -11,-22 -30,-39 -57,-51 -19,-8 -40,-13 -63,-15 -23,-2 -52,-3 -86,-3l-100 0 0 323 86 0c42,0 77,-2 106,-7 29,-5 54,-16 75,-33 19,-15 33,-33 42,-54 10,-21 15,-49 15,-82z"/>
   <path id="4" class="fil0" d="M13433 1757c-171,0 -302,-40 -394,-122 -91,-82 -136,-198 -136,-349 0,-148 42,-266 127,-354 85,-88 205,-132 357,-132 139,0 244,37 314,112 70,74 105,181 105,321l0 102 -621 0c3,42 12,77 27,105 15,28 35,51 60,67 24,17 52,29 84,36 33,8 68,11 106,11 33,0 66,-3 98,-11 31,-7 61,-17 87,-29 23,-10 45,-21 64,-34 20,-12 36,-22 48,-32l30 0 0 234c-23,9 -44,18 -63,25 -19,8 -45,16 -79,24 -30,8 -62,15 -95,19 -32,5 -72,7 -119,7zm95 -593c-1,-60 -15,-106 -41,-137 -27,-32 -67,-47 -121,-47 -56,0 -99,16 -130,49 -31,33 -49,78 -52,135l344 0z"/>
   <path id="5" class="fil0" d="M14226 1757c-66,0 -129,-7 -189,-21 -59,-15 -108,-32 -147,-51l0 -238 23 0c14,10 29,21 46,34 18,12 41,25 72,38 26,12 56,23 89,32 33,9 69,13 108,13 40,0 75,-6 105,-18 30,-13 46,-33 46,-59 0,-21 -7,-37 -21,-48 -14,-11 -42,-21 -82,-30 -22,-6 -49,-12 -82,-18 -33,-6 -61,-13 -87,-21 -71,-22 -124,-55 -160,-98 -36,-43 -54,-100 -54,-170 0,-41 9,-79 28,-114 19,-36 46,-68 82,-96 36,-27 81,-49 134,-65 53,-16 113,-24 179,-24 64,0 122,6 175,19 54,12 99,28 135,45l0 230 -22 0c-10,-8 -25,-18 -46,-31 -21,-12 -42,-23 -62,-33 -24,-11 -50,-19 -79,-27 -30,-6 -60,-10 -90,-10 -41,0 -76,7 -104,21 -29,14 -43,32 -43,56 0,20 7,36 21,48 14,12 45,23 92,35 24,5 52,11 83,17 32,5 62,13 91,23 65,21 115,52 149,92 33,41 50,94 50,162 0,42 -10,82 -30,121 -20,38 -48,71 -85,97 -38,28 -84,50 -136,66 -53,16 -116,23 -189,23z"/>
   <path id="6" class="fil0" d="M15264 1757c-171,0 -303,-40 -394,-122 -91,-82 -137,-198 -137,-349 0,-148 43,-266 128,-354 85,-88 204,-132 357,-132 139,0 243,37 313,112 70,74 105,181 105,321l0 102 -621 0c3,42 12,77 27,105 15,28 35,51 60,67 24,17 53,29 85,36 32,8 68,11 106,11 33,0 65,-3 97,-11 32,-7 61,-17 88,-29 23,-10 44,-21 64,-34 19,-12 35,-22 48,-32l30 0 0 234c-23,9 -44,18 -63,25 -20,8 -46,16 -79,24 -31,8 -63,15 -95,19 -33,5 -73,7 -119,7zm95 -593c-2,-60 -16,-106 -42,-137 -26,-32 -67,-47 -121,-47 -55,0 -99,16 -130,49 -31,33 -48,78 -51,135l344 0z"/>
   <path id="7" class="fil0" d="M16278 1496l0 -190c-47,5 -85,10 -115,13 -29,3 -58,10 -86,21 -25,8 -44,22 -57,39 -14,17 -21,41 -21,70 0,43 12,72 34,88 23,16 56,24 101,24 24,0 49,-6 75,-17 25,-12 49,-28 69,-48zm0 140c-19,17 -36,31 -51,44 -16,13 -36,26 -62,39 -25,12 -49,22 -73,28 -24,7 -57,10 -100,10 -80,0 -146,-27 -199,-81 -53,-54 -79,-121 -79,-203 0,-68 13,-122 40,-164 27,-41 65,-74 115,-98 51,-25 112,-42 183,-52 71,-10 147,-17 228,-23l0 -5c0,-49 -18,-84 -55,-103 -37,-19 -92,-29 -165,-29 -33,0 -72,6 -116,18 -45,13 -88,28 -130,47l-24 0 0 -219c28,-8 73,-18 135,-29 62,-11 125,-16 189,-16 155,0 269,25 340,77 71,52 107,132 107,238l0 618 -283 0 0 -97z"/>
   <path id="8" class="fil0" d="M17378 1095l-24 0c-10,-4 -26,-7 -47,-9 -20,-2 -43,-2 -68,-2 -29,0 -61,4 -93,12 -33,9 -64,19 -95,31l0 606 -283 0 0 -905 283 0 0 129c13,-12 31,-26 54,-44 22,-19 43,-33 62,-44 21,-12 45,-22 72,-31 27,-9 53,-14 77,-14 9,0 20,1 31,1 11,1 22,1 31,3l0 267z"/>
   <path id="9" class="fil0" d="M17928 1757c-74,0 -142,-9 -205,-28 -62,-19 -116,-48 -161,-87 -45,-39 -81,-89 -106,-148 -25,-59 -38,-129 -38,-210 0,-87 14,-160 41,-221 28,-61 65,-110 112,-150 45,-37 98,-65 159,-83 61,-18 124,-27 190,-27 50,0 100,6 150,17 50,12 101,30 151,55l0 242 -36 0c-12,-11 -25,-23 -42,-36 -16,-13 -34,-24 -53,-35 -21,-11 -44,-21 -70,-29 -26,-7 -54,-11 -86,-11 -72,0 -128,25 -167,75 -40,50 -60,118 -60,203 0,91 22,159 64,203 42,45 98,67 168,67 35,0 66,-4 93,-12 27,-8 50,-18 70,-29 18,-11 34,-23 48,-35 13,-12 25,-23 35,-33l36 0 0 242c-16,7 -35,15 -56,24 -21,9 -43,17 -65,23 -27,7 -53,13 -77,17 -24,4 -55,6 -95,6z"/>
   <path id="10" class="fil0" d="M19204 1733l-282 0 0 -449c0,-37 -2,-73 -5,-109 -3,-37 -8,-63 -17,-80 -9,-21 -23,-36 -42,-44 -18,-9 -43,-14 -73,-14 -24,0 -47,5 -71,13 -24,9 -49,23 -76,41l0 642 -283 0 0 -1255 283 0 0 450c46,-40 91,-70 135,-92 43,-22 92,-33 145,-33 93,0 164,29 213,87 48,58 73,143 73,254l0 589z"/>
   <path id="11" class="fil0" d="M6584 1733l-207 0 -380 -478 -182 0 0 478 -160 0 0 -1201 309 0c69,0 127,4 173,11 47,8 91,25 133,53 42,27 75,61 100,104 24,42 36,95 36,158 0,88 -22,162 -67,221 -44,59 -105,103 -182,131l427 523zm-345 -862c0,-35 -6,-66 -18,-93 -12,-27 -31,-49 -57,-66 -23,-15 -49,-26 -79,-32 -30,-6 -68,-9 -112,-9l-158 0 0 451 140 0c46,0 87,-5 123,-13 37,-8 68,-24 94,-49 23,-23 40,-49 51,-80 11,-32 16,-68 16,-109z"/>
   <path id="12" class="fil0" d="M7378 1283c0,151 -36,268 -109,351 -74,82 -171,123 -292,123 -125,0 -224,-42 -295,-127 -72,-85 -108,-201 -108,-347 0,-150 37,-267 111,-350 74,-84 171,-125 292,-125 121,0 218,41 292,124 73,83 109,200 109,351zm-157 0c0,-116 -21,-202 -63,-259 -43,-56 -103,-84 -181,-84 -79,0 -140,28 -182,84 -43,57 -64,143 -64,259 0,112 21,197 64,255 42,58 103,87 182,87 78,0 138,-28 180,-85 43,-57 64,-143 64,-257z"/>
   <path id="13" class="fil0" d="M8135 1279c0,-107 -17,-189 -50,-244 -33,-56 -86,-84 -159,-84 -41,0 -83,10 -125,30 -43,19 -81,44 -116,73l0 515c39,19 73,32 102,40 30,7 63,11 98,11 78,0 139,-27 183,-82 44,-55 67,-141 67,-259zm156 -11c0,147 -35,265 -107,355 -72,89 -162,134 -270,134 -49,0 -91,-6 -125,-18 -35,-12 -70,-28 -104,-49l-9 43 -143 0 0 -1255 152 0 0 449c39,-34 80,-63 125,-85 45,-23 96,-34 152,-34 102,0 182,41 241,122 59,81 88,194 88,338z"/>
   <path id="14" class="fil0" d="M9187 1283c0,151 -36,268 -109,351 -73,82 -170,123 -292,123 -125,0 -224,-42 -295,-127 -72,-85 -108,-201 -108,-347 0,-150 37,-267 111,-350 74,-84 171,-125 292,-125 122,0 219,41 292,124 73,83 109,200 109,351zm-156 0c0,-116 -22,-202 -64,-259 -42,-56 -103,-84 -181,-84 -78,0 -139,28 -182,84 -43,57 -64,143 -64,259 0,112 21,197 64,255 43,58 104,87 182,87 78,0 138,-28 181,-85 42,-57 64,-143 64,-257z"/>
   <path id="15" class="fil0" d="M9616 1751c-83,0 -148,-24 -194,-71 -46,-47 -69,-121 -69,-222l0 -498 -103 0 0 -127 103 0 0 -260 152 0 0 260 279 0 0 127 -279 0 0 427c0,46 0,81 2,106 2,25 8,48 18,69 10,19 24,33 45,43 20,9 48,14 83,14 25,0 49,-4 72,-12 23,-7 40,-13 50,-18l9 0 0 136c-29,8 -58,14 -87,19 -30,4 -57,7 -81,7z"/>
   <path id="16" class="fil0" d="M10052 1733l-152 0 0 -900 152 0 0 900zm12 -1052l-174 0 0 -157 174 0 0 157z"/>
   <path id="17" class="fil0" d="M10630 1752c-62,0 -118,-9 -170,-28 -52,-19 -96,-48 -133,-87 -38,-39 -66,-87 -87,-146 -20,-59 -30,-128 -30,-208 0,-79 10,-147 32,-204 21,-58 49,-106 85,-145 35,-40 79,-70 133,-91 52,-21 109,-32 170,-32 50,0 98,7 144,21 46,14 87,30 123,48l0 171 -9 0c-11,-10 -25,-20 -42,-32 -17,-11 -37,-24 -62,-36 -21,-10 -45,-20 -74,-28 -29,-8 -56,-12 -83,-12 -78,0 -141,30 -189,89 -48,59 -71,143 -71,251 0,106 23,189 69,248 46,59 110,89 191,89 50,0 97,-10 142,-30 45,-20 84,-47 119,-79l9 0 0 170c-16,7 -34,16 -57,26 -22,10 -43,17 -61,22 -26,7 -49,13 -70,17 -20,4 -47,6 -79,6z"/>
   <path id="18" class="fil0" d="M11279 1752c-60,0 -117,-8 -169,-24 -52,-16 -96,-33 -130,-52l0 -170 8 0c13,10 28,22 45,34 18,13 41,26 70,39 25,13 53,23 84,32 31,9 63,14 96,14 24,0 50,-3 77,-8 27,-6 47,-13 61,-22 19,-12 32,-25 40,-39 9,-14 13,-36 13,-64 0,-36 -10,-63 -29,-81 -19,-19 -54,-34 -103,-46 -19,-5 -44,-11 -76,-17 -31,-6 -60,-13 -86,-21 -69,-19 -119,-50 -150,-92 -31,-41 -47,-92 -47,-151 0,-81 31,-147 92,-198 62,-51 143,-77 244,-77 50,0 101,7 151,19 51,13 93,28 128,47l0 162 -8 0c-39,-31 -82,-55 -129,-73 -48,-18 -95,-27 -144,-27 -49,0 -91,10 -125,31 -35,21 -52,53 -52,95 0,38 10,66 30,85 20,18 53,34 97,46 23,5 48,11 75,17 28,5 57,12 88,20 67,16 117,44 150,82 34,39 51,92 51,158 0,39 -8,76 -23,110 -16,35 -38,65 -68,89 -32,27 -68,47 -109,61 -40,14 -91,21 -152,21z"/>
   <polygon id="19" class="fil1" points="20230,1733 19429,1733 19429,532 19731,532 19731,1503 20230,1503 "/>
   <path id="20" class="fil1" d="M20856 1496l0 -190c-47,5 -86,10 -115,13 -29,3 -58,10 -86,21 -25,8 -44,22 -58,39 -13,17 -20,41 -20,70 0,43 11,72 34,88 23,16 56,24 100,24 25,0 50,-6 75,-17 26,-12 49,-28 70,-48zm0 140c-19,17 -36,31 -52,44 -15,13 -35,26 -61,39 -25,12 -50,22 -74,28 -23,7 -57,10 -100,10 -79,0 -146,-27 -198,-81 -53,-54 -80,-121 -80,-203 0,-68 14,-122 41,-164 26,-41 65,-74 115,-98 51,-25 112,-42 183,-52 70,-10 146,-17 228,-23l0 -5c0,-49 -19,-84 -55,-103 -37,-19 -92,-29 -165,-29 -33,0 -72,6 -117,18 -44,13 -87,28 -130,47l-24 0 0 -219c28,-8 73,-18 136,-29 62,-11 125,-16 188,-16 156,0 269,25 341,77 71,52 106,132 106,238l0 618 -282 0 0 -97z"/>
   <path id="21" class="fil1" d="M21945 1274c0,-91 -13,-155 -41,-193 -27,-39 -69,-59 -126,-59 -26,0 -51,5 -76,13 -25,8 -49,20 -74,36l0 454c19,7 38,13 57,15 19,3 38,4 57,4 69,0 119,-22 153,-67 34,-46 50,-113 50,-203zm289 -6c0,144 -36,260 -109,349 -74,89 -164,134 -272,134 -45,0 -85,-6 -118,-16 -33,-10 -69,-26 -107,-48l-12 46 -270 0 0 -1255 282 0 0 444c42,-35 84,-64 127,-86 43,-22 93,-33 149,-33 106,0 187,41 245,123 57,82 85,196 85,342z"/>
   <path class="fil2" d="M1212 1820c296,0 627,-325 616,-756 -10,-364 -146,-816 -441,-809 -124,3 -175,103 -175,320l0 1245zm-93 -1820c99,0 195,13 287,37 -305,12 -413,213 -413,538l0 1245c-467,-2 -589,-635 -570,-918 28,-421 196,-848 638,-901 19,-1 39,-1 58,-1zm942 516c112,175 177,382 177,605 0,588 -451,1070 -1026,1117l0 -300c276,0 661,-153 856,-630 130,-317 82,-594 -7,-792zm-1068 1719c-558,-63 -993,-537 -993,-1114 0,-224 65,-432 178,-607 -64,150 -90,328 -77,544 30,486 477,880 892,880l0 297z"/>
  </g>
 </g>
</svg>
