<?xml version="1.0" encoding="UTF-8"?>
<!DOCTYPE svg PUBLIC "-//W3C//DTD SVG 1.1//EN" "http://www.w3.org/Graphics/SVG/1.1/DTD/svg11.dtd">
<!-- Creator: CorelDRAW X7 -->
<svg xmlns="http://www.w3.org/2000/svg" xml:space="preserve" width="189.258mm" height="141.147mm" version="1.1" style="shape-rendering:geometricPrecision; text-rendering:geometricPrecision; image-rendering:optimizeQuality; fill-rule:evenodd; clip-rule:evenodd"
viewBox="0 0 18926 14115"
 xmlns:xlink="http://www.w3.org/1999/xlink">
 <defs>
  <style type="text/css">
   <![CDATA[
    .fil2 {fill:black}
    .fil0 {fill:black;fill-rule:nonzero}
    .fil1 {fill:#E81C23;fill-rule:nonzero}
   ]]>
  </style>
 </defs>
 <g id="Layer_x0020_1">
  <metadata id="CorelCorpID_0Corel-Layer"/>
  <g id="_618958896">
   <path class="fil0" d="M911 13281c0,55 -9,107 -27,157 -17,50 -42,92 -75,125 -20,20 -42,39 -66,57 -25,17 -51,32 -80,45 -29,11 -61,21 -95,28 -34,7 -72,10 -115,10l-155 0 0 387 -298 0 0 -1182 459 0c69,0 127,6 177,19 50,12 94,32 135,59 44,29 79,69 103,119 24,49 37,108 37,176zm-306 7c0,-33 -8,-61 -24,-86 -16,-23 -35,-40 -57,-49 -28,-12 -55,-19 -80,-21 -26,-2 -60,-3 -104,-3l-42 0 0 353 20 0c28,0 55,0 79,-1 25,0 47,-2 65,-5 16,-3 33,-8 51,-16 17,-7 31,-16 40,-25 20,-20 34,-40 41,-61 7,-21 11,-50 11,-86z"/>
   <path id="1" class="fil0" d="M1888 14090l-278 0 0 -441c0,-37 -1,-72 -4,-108 -3,-36 -9,-62 -17,-79 -9,-20 -23,-35 -41,-43 -18,-9 -42,-13 -73,-13 -23,0 -46,4 -69,12 -24,9 -49,22 -76,41l0 631 -278 0 0 -1236 278 0 0 444c46,-39 90,-69 134,-91 43,-21 91,-32 143,-32 91,0 161,29 209,86 48,57 72,140 72,249l0 580z"/>
   <path id="2" class="fil0" d="M2371 14090l-278 0 0 -891 278 0 0 891zm9 -1018l-295 0 0 -216 295 0 0 216z"/>
   <path id="3" class="fil0" d="M9730 14090l-363 0 -329 -434 -105 0 0 434 -296 0 0 -1182 476 0c65,0 122,4 171,12 49,9 94,26 135,52 42,27 76,61 101,102 25,42 37,95 37,159 0,90 -20,163 -61,220 -41,56 -95,101 -164,134l398 503zm-478 -821c0,-30 -6,-55 -17,-77 -12,-21 -31,-38 -57,-49 -18,-8 -39,-13 -62,-15 -22,-3 -51,-4 -84,-4l-99 0 0 319 84 0c42,0 77,-2 105,-7 29,-5 53,-16 74,-33 18,-14 33,-32 42,-53 9,-20 14,-48 14,-81z"/>
   <path id="4" class="fil0" d="M10259 14115c-169,0 -298,-40 -388,-121 -90,-80 -135,-195 -135,-344 0,-145 42,-261 126,-348 84,-87 201,-130 351,-130 137,0 240,36 309,110 69,74 104,179 104,316l0 100 -612 0c3,42 12,76 27,104 14,28 34,50 59,67 24,16 51,28 83,35 32,7 67,11 104,11 33,0 65,-4 96,-11 32,-7 60,-17 86,-29 23,-10 44,-21 63,-33 20,-12 36,-22 48,-31l29 0 0 230c-22,9 -43,17 -62,25 -19,8 -45,15 -77,23 -31,8 -62,14 -94,19 -32,5 -71,7 -117,7zm94 -584c-2,-59 -16,-105 -42,-136 -26,-31 -65,-46 -119,-46 -54,0 -97,16 -128,49 -30,32 -47,77 -51,133l340 0z"/>
   <path id="5" class="fil0" d="M11040 14115c-66,0 -128,-7 -187,-22 -58,-14 -106,-31 -145,-50l0 -234 23 0c14,10 29,21 46,33 17,12 40,25 70,38 26,12 56,23 88,31 33,9 68,13 106,13 39,0 74,-6 104,-18 30,-12 45,-31 45,-58 0,-20 -7,-36 -21,-47 -14,-10 -41,-20 -80,-30 -22,-5 -48,-11 -81,-17 -32,-6 -61,-13 -86,-21 -69,-22 -122,-54 -158,-96 -35,-43 -52,-99 -52,-168 0,-40 9,-77 27,-112 18,-35 45,-67 81,-94 35,-27 79,-49 131,-64 53,-16 112,-24 177,-24 63,0 120,6 173,18 52,13 97,28 133,45l0 226 -23 0c-9,-7 -24,-17 -45,-30 -21,-12 -41,-23 -60,-32 -24,-11 -50,-20 -79,-27 -29,-6 -58,-10 -89,-10 -40,0 -74,7 -102,21 -28,13 -41,32 -41,54 0,21 6,36 20,48 14,12 44,23 90,34 24,6 51,12 83,17 30,6 60,13 89,23 64,20 113,51 146,91 33,40 50,93 50,159 0,41 -10,81 -30,119 -19,38 -47,70 -83,96 -38,28 -83,49 -135,65 -52,15 -113,23 -185,23z"/>
   <path id="6" class="fil0" d="M12061 14115c-168,0 -298,-40 -388,-121 -89,-80 -134,-195 -134,-344 0,-145 42,-261 126,-348 83,-87 201,-130 351,-130 137,0 240,36 309,110 69,74 103,179 103,316l0 100 -611 0c3,42 11,76 26,104 15,28 35,50 59,67 24,16 52,28 84,35 32,7 66,11 104,11 33,0 64,-4 96,-11 31,-7 60,-17 86,-29 23,-10 44,-21 63,-33 20,-12 35,-22 47,-31l30 0 0 230c-23,9 -44,17 -62,25 -19,8 -45,15 -78,23 -30,8 -61,14 -93,19 -33,5 -72,7 -118,7zm94 -584c-2,-59 -15,-105 -41,-136 -26,-31 -66,-46 -119,-46 -55,0 -97,16 -128,49 -31,32 -48,77 -51,133l339 0z"/>
   <path id="7" class="fil0" d="M13061 13857l0 -186c-47,5 -85,9 -114,12 -29,3 -57,10 -85,21 -24,8 -43,21 -56,38 -13,17 -20,40 -20,69 0,42 11,71 33,87 23,15 55,23 99,23 24,0 49,-6 74,-17 25,-11 48,-26 69,-47zm0 139c-19,16 -36,30 -51,43 -16,12 -36,25 -61,38 -25,12 -49,21 -72,28 -24,6 -57,10 -99,10 -78,0 -144,-27 -195,-80 -53,-53 -79,-120 -79,-201 0,-66 14,-120 40,-160 26,-41 64,-74 114,-98 50,-24 110,-41 180,-51 69,-9 144,-16 224,-22l0 -5c0,-49 -18,-83 -54,-102 -36,-18 -90,-28 -162,-28 -33,0 -71,6 -115,18 -44,12 -86,27 -128,46l-24 0 0 -216c28,-8 72,-17 134,-28 61,-11 123,-16 185,-16 154,0 265,25 336,76 70,51 105,130 105,235l0 607 -278 0 0 -94z"/>
   <path id="8" class="fil0" d="M14143 13463l-23 0c-11,-4 -26,-7 -46,-9 -20,-2 -43,-3 -67,-3 -30,0 -60,5 -92,13 -32,8 -64,18 -94,30l0 596 -278 0 0 -891 278 0 0 128c13,-12 30,-26 53,-44 23,-18 43,-32 62,-43 20,-12 44,-22 70,-31 27,-9 53,-13 77,-13 9,0 19,0 30,1 11,0 21,1 30,2l0 264z"/>
   <path id="9" class="fil0" d="M14685 14115c-73,0 -140,-10 -202,-28 -61,-19 -114,-47 -159,-86 -44,-38 -79,-87 -103,-145 -25,-59 -38,-128 -38,-207 0,-86 14,-158 41,-218 27,-60 63,-109 109,-148 45,-36 97,-64 157,-82 60,-17 122,-26 188,-26 49,0 98,5 147,17 49,11 99,29 148,54l0 238 -35 0c-11,-11 -25,-22 -41,-35 -16,-13 -34,-24 -53,-35 -20,-11 -43,-20 -68,-28 -26,-7 -54,-11 -85,-11 -71,0 -126,24 -165,74 -39,49 -58,116 -58,200 0,89 21,156 62,200 42,44 97,66 166,66 35,0 65,-4 92,-12 26,-8 49,-18 68,-29 19,-11 34,-22 48,-34 13,-12 24,-23 34,-33l35 0 0 239c-16,6 -34,14 -55,23 -21,9 -42,17 -63,23 -28,7 -53,13 -76,17 -24,4 -55,6 -94,6z"/>
   <path id="10" class="fil0" d="M15942 14090l-278 0 0 -441c0,-37 -2,-72 -5,-108 -3,-36 -8,-62 -16,-79 -10,-20 -24,-35 -42,-43 -18,-9 -42,-13 -72,-13 -23,0 -47,4 -70,12 -23,9 -49,22 -75,41l0 631 -278 0 0 -1236 278 0 0 444c45,-39 90,-69 133,-91 43,-21 91,-32 143,-32 91,0 161,29 209,86 48,57 73,140 73,249l0 580z"/>
   <path id="11" class="fil0" d="M3514 14090l-204 0 -374 -470 -179 0 0 470 -158 0 0 -1182 305 0c67,0 124,4 170,11 46,8 89,25 131,52 41,26 74,60 98,102 24,42 36,94 36,156 0,87 -22,159 -66,217 -44,59 -104,102 -180,130l421 514zm-340 -849c0,-34 -5,-64 -18,-91 -12,-26 -31,-48 -56,-65 -22,-15 -48,-25 -78,-31 -29,-6 -66,-9 -110,-9l-155 0 0 444 138 0c45,0 85,-4 121,-12 36,-8 67,-24 92,-49 23,-22 39,-49 50,-79 11,-31 16,-67 16,-108z"/>
   <path id="12" class="fil0" d="M4296 13647c0,150 -36,265 -108,346 -72,81 -168,122 -287,122 -123,0 -221,-42 -291,-126 -71,-84 -106,-198 -106,-342 0,-148 36,-262 109,-344 73,-82 169,-123 288,-123 119,0 215,41 287,122 72,82 108,197 108,345zm-154 0c0,-114 -21,-198 -63,-254 -42,-56 -101,-83 -178,-83 -78,0 -138,27 -180,83 -42,56 -62,140 -62,254 0,111 20,195 62,252 42,57 102,86 180,86 76,0 136,-28 178,-84 42,-57 63,-141 63,-254z"/>
   <path id="13" class="fil0" d="M5041 13644c0,-106 -17,-186 -49,-241 -32,-54 -84,-82 -156,-82 -41,0 -82,10 -124,29 -42,19 -80,43 -114,73l0 507c38,18 72,31 101,38 29,8 61,12 96,12 77,0 137,-27 180,-81 44,-54 66,-139 66,-255zm154 -11c0,144 -35,261 -106,349 -70,89 -159,133 -265,133 -48,0 -90,-6 -124,-18 -34,-12 -68,-28 -102,-48l-9 41 -140 0 0 -1236 149 0 0 443c38,-34 79,-62 123,-84 44,-22 94,-33 150,-33 100,0 180,40 238,120 57,80 86,191 86,333z"/>
   <path id="14" class="fil0" d="M6078 13647c0,150 -36,265 -108,346 -72,81 -168,122 -287,122 -124,0 -221,-42 -291,-126 -71,-84 -106,-198 -106,-342 0,-148 36,-262 109,-344 73,-82 169,-123 288,-123 119,0 215,41 287,122 72,82 108,197 108,345zm-155 0c0,-114 -21,-198 -62,-254 -42,-56 -101,-83 -178,-83 -78,0 -138,27 -180,83 -42,56 -63,140 -63,254 0,111 21,195 63,252 42,57 102,86 180,86 76,0 135,-28 177,-84 42,-57 63,-141 63,-254z"/>
   <path id="15" class="fil0" d="M6499 14108c-81,0 -145,-23 -190,-69 -46,-46 -69,-119 -69,-219l0 -491 -101 0 0 -125 101 0 0 -255 150 0 0 255 275 0 0 125 -275 0 0 421c0,45 1,80 2,104 2,25 8,47 18,69 9,18 24,32 44,41 20,9 48,14 82,14 24,0 48,-4 71,-11 22,-7 39,-13 49,-18l9 0 0 134c-28,8 -57,14 -86,18 -29,5 -55,7 -80,7z"/>
   <path id="16" class="fil0" d="M6929 14090l-150 0 0 -886 150 0 0 886zm11 -1036l-170 0 0 -154 170 0 0 154z"/>
   <path id="17" class="fil0" d="M7498 14110c-61,0 -116,-10 -167,-28 -51,-19 -95,-48 -132,-86 -36,-38 -64,-86 -85,-144 -20,-58 -30,-126 -30,-204 0,-78 11,-145 32,-202 21,-56 48,-104 83,-142 35,-39 79,-69 131,-90 52,-21 108,-31 168,-31 49,0 96,7 142,21 45,13 85,29 121,47l0 168 -9 0c-11,-9 -24,-20 -41,-31 -17,-12 -37,-23 -61,-36 -20,-10 -45,-19 -73,-27 -28,-8 -55,-12 -81,-12 -78,0 -140,29 -187,88 -47,58 -70,140 -70,247 0,104 23,186 68,244 45,58 108,88 189,88 48,0 95,-10 139,-30 44,-20 83,-46 117,-78l9 0 0 168c-15,7 -34,15 -56,25 -22,10 -42,17 -60,22 -26,7 -49,13 -69,17 -20,4 -46,6 -78,6z"/>
   <path id="18" class="fil0" d="M8137 14110c-59,0 -114,-8 -166,-24 -52,-16 -94,-33 -128,-51l0 -167 8 0c12,10 27,21 44,33 18,13 40,25 69,39 25,12 53,22 83,31 30,9 62,14 94,14 24,0 49,-3 76,-9 27,-5 47,-12 60,-21 18,-12 32,-25 40,-39 8,-14 12,-35 12,-62 0,-36 -9,-63 -28,-81 -19,-18 -53,-33 -101,-45 -19,-5 -44,-10 -75,-16 -31,-7 -59,-13 -85,-21 -68,-19 -117,-50 -148,-90 -30,-41 -46,-91 -46,-149 0,-80 30,-145 91,-195 60,-51 140,-76 240,-76 49,0 99,7 149,19 49,12 91,27 125,46l0 160 -8 0c-38,-31 -80,-55 -127,-73 -46,-18 -93,-26 -141,-26 -49,0 -90,10 -124,31 -34,20 -50,51 -50,93 0,38 10,65 29,84 20,18 52,33 96,45 22,5 46,11 74,16 27,6 56,13 86,20 66,16 115,44 148,82 33,38 50,90 50,155 0,38 -8,74 -23,108 -15,34 -37,64 -66,88 -32,26 -68,46 -108,60 -40,14 -90,21 -150,21z"/>
   <polygon id="19" class="fil1" points="16952,14090 16163,14090 16163,12908 16461,12908 16461,13864 16952,13864 "/>
   <path id="20" class="fil1" d="M17569 13857l0 -186c-47,5 -85,9 -114,12 -29,3 -57,10 -85,21 -24,8 -43,21 -56,38 -14,17 -20,40 -20,69 0,42 11,71 33,87 23,15 55,23 99,23 24,0 49,-6 74,-17 25,-11 48,-26 69,-47zm0 139c-19,16 -37,30 -51,43 -16,12 -36,25 -61,38 -25,12 -49,21 -72,28 -24,6 -57,10 -99,10 -78,0 -144,-27 -196,-80 -52,-53 -78,-120 -78,-201 0,-66 14,-120 40,-160 26,-41 64,-74 114,-98 50,-24 110,-41 179,-51 70,-9 145,-16 225,-22l0 -5c0,-49 -18,-83 -54,-102 -36,-18 -90,-28 -162,-28 -33,0 -71,6 -115,18 -44,12 -86,27 -128,46l-24 0 0 -216c28,-8 72,-17 134,-28 61,-11 123,-16 185,-16 154,0 265,25 335,76 71,51 106,130 106,235l0 607 -278 0 0 -94z"/>
   <path id="21" class="fil1" d="M18641 13639c0,-89 -13,-153 -40,-191 -27,-38 -69,-57 -125,-57 -25,0 -50,4 -74,12 -25,8 -49,20 -73,36l0 447c18,7 37,12 56,15 19,3 38,4 56,4 67,0 118,-22 151,-67 33,-44 49,-111 49,-199zm285 -6c0,142 -36,256 -108,344 -72,87 -162,131 -268,131 -45,0 -83,-5 -116,-15 -33,-10 -68,-26 -105,-47l-12 44 -266 0 0 -1236 278 0 0 438c41,-35 82,-63 125,-85 42,-21 91,-32 147,-32 104,0 184,40 240,121 57,81 85,193 85,337z"/>
   <path class="fil2" d="M9941 9374c1523,0 3227,-1675 3170,-3898 -49,-1870 -748,-4201 -2269,-4162 -639,17 -901,527 -901,1647l0 6413zm-478 -9374c510,0 1005,67 1476,192 -1569,60 -2123,1096 -2123,2769l0 6408c-2406,-7 -3032,-3266 -2937,-4725 142,-2168 1008,-4366 3285,-4636 99,-5 199,-8 299,-8zm4851 2657c577,899 911,1968 911,3115 0,3026 -2325,5508 -5284,5752l0 -1546c1422,0 3406,-789 4410,-3244 667,-1630 421,-3059 -37,-4077zm-5498 8850c-2877,-321 -5115,-2766 -5115,-5735 0,-1151 337,-2223 916,-3124 -330,769 -463,1690 -395,2798 152,2502 2453,4532 4594,4532l0 1529z"/>
  </g>
 </g>
</svg>
