<?xml version="1.0" encoding="UTF-8"?>
<!DOCTYPE svg PUBLIC "-//W3C//DTD SVG 1.1//EN" "http://www.w3.org/Graphics/SVG/1.1/DTD/svg11.dtd">
<!-- Creator: CorelDRAW X7 -->
<svg xmlns="http://www.w3.org/2000/svg" xml:space="preserve" width="203.906mm" height="98.381mm" version="1.1" style="shape-rendering:geometricPrecision; text-rendering:geometricPrecision; image-rendering:optimizeQuality; fill-rule:evenodd; clip-rule:evenodd"
viewBox="0 0 20391 9838"
 xmlns:xlink="http://www.w3.org/1999/xlink">
 <defs>
  <style type="text/css">
   <![CDATA[
    .fil2 {fill:black}
    .fil0 {fill:black;fill-rule:nonzero}
    .fil1 {fill:#E81C23;fill-rule:nonzero}
   ]]>
  </style>
 </defs>
 <g id="Layer_x0020_1">
  <metadata id="CorelCorpID_0Corel-Layer"/>
  <g id="_614710656">
   <path class="fil0" d="M16925 5718l-1714 0 -1555 -2052 -497 0 0 2052 -1399 0 0 -5587 2248 0c310,0 581,19 811,57 231,40 443,121 638,243 200,128 359,289 476,485 118,196 177,446 177,748 0,428 -96,774 -289,1040 -194,266 -451,478 -775,635l1879 2379zm-2260 -3881c0,-141 -27,-261 -80,-363 -54,-101 -143,-180 -267,-235 -87,-37 -184,-60 -292,-71 -107,-10 -241,-15 -399,-15l-468 0 0 1506 400 0c194,0 360,-11 495,-36 136,-23 251,-74 346,-152 90,-69 156,-154 200,-251 44,-98 65,-226 65,-383zm5726 1760l-2967 0 0 -712c176,-108 352,-219 530,-336 179,-117 335,-227 467,-332 261,-207 429,-375 504,-504 76,-128 113,-268 113,-418 0,-145 -51,-257 -152,-337 -102,-80 -248,-120 -438,-120 -176,0 -349,37 -519,110 -170,74 -302,137 -395,190l-87 0 0 -893c176,-60 372,-113 587,-160 216,-46 452,-69 708,-69 460,0 811,92 1054,277 242,186 364,451 364,796 0,218 -47,420 -142,604 -96,186 -281,403 -556,651 -85,74 -178,149 -278,223 -100,74 -215,159 -344,254l1551 0 0 776z"/>
   <path class="fil1" d="M14019 9823l-2282 0 0 -3422 861 0 0 2767 1421 0 0 655zm44 0l1157 -3422 938 0 1157 3422 -884 0 -213 -692 -1084 0 -211 692 -860 0zm1965 -1318l-352 -1135 -352 1135 704 0zm4362 270c0,170 -32,319 -96,448 -65,129 -152,235 -260,320 -129,100 -270,172 -424,215 -155,43 -351,65 -588,65l-1371 0 0 -3422 1211 0c251,0 442,10 571,29 131,19 252,59 366,120 122,66 214,155 274,265 61,110 91,237 91,382 0,166 -41,315 -125,445 -83,130 -199,226 -346,287l0 19c211,45 380,135 507,272 127,137 190,322 190,555zm-1101 -1407c0,-55 -14,-113 -42,-171 -29,-58 -72,-100 -133,-126 -56,-25 -123,-38 -201,-41 -77,-2 -193,-3 -346,-3l-59 0 0 725 108 0c147,0 249,-2 309,-5 59,-3 119,-19 183,-48 68,-33 116,-77 142,-134 26,-56 39,-122 39,-197zm217 1393c0,-106 -22,-189 -65,-248 -43,-61 -107,-105 -193,-136 -52,-20 -124,-31 -215,-34 -91,-2 -213,-3 -367,-3l-158 0 0 857 46 0c224,0 378,-2 464,-5 86,-3 173,-24 262,-62 78,-34 135,-83 171,-148 36,-65 55,-139 55,-221z"/>
   <path class="fil2" d="M5328 8002c1300,0 2754,-1429 2705,-3327 -41,-1596 -639,-3587 -1937,-3553 -546,14 -768,450 -768,1405l0 5475zm-409 -8002c436,0 858,57 1260,164 -1339,51 -1812,936 -1812,2363l0 5471c-2054,-6 -2589,-2788 -2508,-4033 121,-1851 861,-3728 2805,-3958 84,-5 169,-7 255,-7zm4142 2268c492,767 777,1680 777,2660 0,2583 -1985,4702 -4510,4910l0 -1319c1213,0 2907,-674 3764,-2770 570,-1392 360,-2611 -31,-3481zm-4694 7556c-2457,-275 -4367,-2362 -4367,-4896 0,-983 287,-1899 782,-2667 -281,656 -395,1442 -337,2389 130,2136 2094,3869 3922,3869l0 1305z"/>
  </g>
 </g>
</svg>
