<?xml version="1.0" encoding="UTF-8"?>
<!DOCTYPE svg PUBLIC "-//W3C//DTD SVG 1.1//EN" "http://www.w3.org/Graphics/SVG/1.1/DTD/svg11.dtd">
<!-- Creator: CorelDRAW X7 -->
<svg xmlns="http://www.w3.org/2000/svg" xml:space="preserve" width="107.721mm" height="107.721mm" version="1.1" style="shape-rendering:geometricPrecision; text-rendering:geometricPrecision; image-rendering:optimizeQuality; fill-rule:evenodd; clip-rule:evenodd"
viewBox="0 0 10772 10772"
 xmlns:xlink="http://www.w3.org/1999/xlink">
 <defs>
  <style type="text/css">
   <![CDATA[
    .fil0 {fill:#201E1E}
   ]]>
  </style>
 </defs>
 <g id="Layer_x0020_1">
  <metadata id="CorelCorpID_0Corel-Layer"/>
  <path class="fil0" d="M5833 8762c1424,0 3017,-1565 2963,-3643 -46,-1748 -699,-3927 -2121,-3890 -598,15 -842,492 -842,1538l0 5995zm-447 -8762c477,0 940,62 1380,179 -1467,56 -1984,1025 -1984,2588l0 5991c-2250,-7 -2835,-3053 -2746,-4417 133,-2027 942,-4082 3071,-4334 92,-5 185,-7 279,-7zm4535 2484c539,840 851,1839 851,2911 0,2829 -2173,5149 -4939,5377l0 -1445c1329,0 3184,-738 4122,-3032 624,-1524 394,-2859 -34,-3811zm-5139 8273c-2690,-301 -4782,-2587 -4782,-5362 0,-1076 315,-2078 856,-2920 -308,719 -432,1580 -369,2616 142,2339 2293,4236 4295,4236l0 1430z"/>
 </g>
</svg>
