<?xml version="1.0" encoding="UTF-8" standalone="no"?>
<!-- Created with Inkscape (http://www.inkscape.org/) -->

<svg
   xmlns:dc="http://purl.org/dc/elements/1.1/"
   xmlns:cc="http://creativecommons.org/ns#"
   xmlns:rdf="http://www.w3.org/1999/02/22-rdf-syntax-ns#"
   xmlns:svg="http://www.w3.org/2000/svg"
   xmlns="http://www.w3.org/2000/svg"
   xmlns:sodipodi="http://sodipodi.sourceforge.net/DTD/sodipodi-0.dtd"
   xmlns:inkscape="http://www.inkscape.org/namespaces/inkscape"
   id="svg2"
   version="1.1"
   inkscape:version="0.91 r13725"
   xml:space="preserve"
   width="321.25"
   height="112.5"
   viewBox="0 0 321.25 112.5"
   sodipodi:docname="little_overlap.svg"><metadata
     id="metadata8"><rdf:RDF><cc:Work
         rdf:about=""><dc:format>image/svg+xml</dc:format><dc:type
           rdf:resource="http://purl.org/dc/dcmitype/StillImage" /><dc:title></dc:title></cc:Work></rdf:RDF></metadata><defs
     id="defs6"><clipPath
       clipPathUnits="userSpaceOnUse"
       id="clipPath20"><path
         d="m 0,3.51172 2570,0 0,890 -2570,0 0,-890 z"
         id="path22"
         inkscape:connector-curvature="0" /></clipPath><clipPath
       clipPathUnits="userSpaceOnUse"
       id="clipPath26"><path
         d="m 0,7796.01 4230.9,0 0,-11033.5 -4230.9,0 0,11033.5 z m 1771.09,-7665.658 48.95,13.238 -39.22,-48.0119 89.8,60.6599 -9.29,34.731"
         id="path28"
         inkscape:connector-curvature="0" /></clipPath><clipPath
       clipPathUnits="userSpaceOnUse"
       id="clipPath32"><path
         d="m 0,3.51172 2570,0 0,890 -2570,0 0,-890 z"
         id="path34"
         inkscape:connector-curvature="0" /></clipPath><clipPath
       clipPathUnits="userSpaceOnUse"
       id="clipPath38"><path
         d="m 0,3.51172 2570,0 0,890 -2570,0 0,-890 z"
         id="path40"
         inkscape:connector-curvature="0" /></clipPath><clipPath
       clipPathUnits="userSpaceOnUse"
       id="clipPath44"><path
         d="m 0,1000 1500,0 L 1500,0 0,0 0,1000 Z"
         id="path46"
         inkscape:connector-curvature="0" /></clipPath><pattern
       patternTransform="matrix(0.891833,0,0,-1.39312,-1227,-3098.69)"
       patternUnits="userSpaceOnUse"
       x="0"
       y="0"
       width="150"
       height="100"
       id="pattern48"><g
         transform="scale(0.1,0.1)"
         id="g50"><g
           id="g52"><g
             clip-path="url(#clipPath44)"
             id="g54"><path
               d="m 0,-500 1000,0 0,2000 -1000,0 0,-2000 z"
               style="fill:#000000;fill-opacity:1;fill-rule:nonzero;stroke:none"
               id="path56" /></g></g></g></pattern></defs><sodipodi:namedview
     pagecolor="#ffffff"
     bordercolor="#666666"
     borderopacity="1"
     objecttolerance="10"
     gridtolerance="10"
     guidetolerance="10"
     inkscape:pageopacity="0"
     inkscape:pageshadow="2"
     inkscape:window-width="1256"
     inkscape:window-height="658"
     id="namedview4"
     showgrid="false"
     inkscape:zoom="2.7692188"
     inkscape:cx="161.35532"
     inkscape:cy="59.931976"
     inkscape:window-x="0"
     inkscape:window-y="0"
     inkscape:window-maximized="0"
     inkscape:current-layer="g10" /><g
     id="g10"
     inkscape:groupmode="layer"
     inkscape:label="ink_ext_XXXXXX"
     transform="matrix(1.25,0,0,-1.25,0,112.5)"><g
       id="g12"
       transform="scale(0.1,0.1)"><path
         d="m 0,307.18 0.859375,0 2.109375,0.39 3.83203,0 5.96872,0.469 8.0899,0.82 11.0195,0.86 13.1992,1.293 16.1719,1.25 18.2813,1.718 19.957,1.68 21.6837,2.149 22.578,2.109 23.789,2.57 23.832,2.543 23.789,2.11 23.391,2.578 22.969,2.972 22.109,2.539 21.293,2.579 20.387,2.543 19.14,2.957 18.281,2.543 17,2.578 16.168,2.968 15.313,2.543 14.019,2.969 13.641,3.008 12.731,3.391 12.347,2.972 11.481,3.399 11.05,3.398 10.2,3.832 10.621,3.399 12.777,5.543 24.652,11.058 22.969,12.731 11.481,7.23 10.621,7.231 21.289,15.308 19.57,17.031 18.719,17.848 8.473,8.949 16.168,18.711 7.66,9.332 6.8,9.379 6.79,8.899 6.41,9.382 5.941,8.911 5.539,8.937 5.512,8.52 5.117,8.902 5.082,8.519 4.68,8.079 10.199,18.722 4.691,8.938 5.11,9.34 5.078,9.761 4.691,9.379 20.43,39.141 5.078,10.191 5.121,9.77 5.5,9.367 5.121,9.773 5.121,9.368 5.079,8.91 10.23,17.031 4.648,8.09 5.122,8.039 5.109,7.23 4.652,7.231 10.239,13.629 5.5,7.23 11.921,13.59 6.789,6.371 6.372,6.399 7.269,6.371 15.27,11.922 8.089,5.066 8.508,5.121 8.524,4.691 8.898,4.258 8.949,3.821 9.371,2.972 9.34,2.539 9.379,2.149 9.332,1.25 9.77,1.293 19.139,0 9.37,-0.864 10.2,-1.25 16.99,-3.398 8.95,-2.582 9.33,-2.539 9.81,-3.391 9.76,-3.828 10.24,-3.832 10.62,-4.687 11.06,-4.68 11.05,-5.082 11.05,-5.551 11.49,-5.937 34.45,-19.141 22.97,-13.629 11.49,-7.23 11.01,-6.789 10.67,-6.801 10.62,-7.231 20.39,-13.59 19.57,-13.628 46.8,-34.032 19.53,-14.449 9.37,-7.23 10.2,-7.223 9.8,-7.227 10.2,-7.66 9.77,-7.222 10.23,-7.231 10.2,-7.66 10.19,-7.219 9.77,-7.23 10.23,-6.801 19.53,-13.629 9.38,-5.937 9.33,-6.364 9.38,-5.976 17.85,-11.051 8.94,-5.121 8.52,-5.078 8.91,-4.692 9.37,-5.109 9.77,-4.652 9.76,-5.118 20.43,-9.339 10.63,-4.25 22.11,-9.383 11.05,-4.258 34.45,-12.731 34.46,-11.492 11.05,-3.82 22.11,-6.797 10.63,-3.402 10.19,-3.399 10.24,-3.011 19.57,-5.93 9.33,-2.969 8.95,-2.582 8.47,-2.969 8.95,-2.539 8.95,-2.968 9.33,-2.571 9.38,-2.972 19.53,-5.938 10.23,-3.012 31.88,-8.898 11.48,-2.973 11.06,-2.968 11.48,-3.008 11.91,-2.543 11.49,-2.969 11.91,-2.582 11.88,-2.527 12.34,-2.539 11.92,-2.543 12.34,-2.579 12.3,-2.109 12.35,-2.152 12.77,-2.11 13.16,-2.148 10.63,-1.68 11.05,-1.722 11.49,-1.25 11.91,-1.707 12.78,-1.684 13.16,-1.289 13.63,-1.719 14.89,-1.68 15.7,-1.718 16.6,-1.25 17.42,-1.723 18.28,-2.109 19.57,-1.719 20.86,-1.68 21.25,-2.152 22.54,-1.668 22.97,-2.152 22.97,-1.719 22.93,-2.11 22.54,-1.679 22.15,-2.153 20.39,-1.289 18.28,-1.679 16.6,-1.289 14.02,-1.25 11.49,-0.86 8.94,-0.863 6.37,-0.43 4.26,0 2.11,-0.429 0.86,0"
         style="fill:none;stroke:#0072bd;stroke-width:7.5;stroke-linecap:butt;stroke-linejoin:miter;stroke-miterlimit:10;stroke-dasharray:none;stroke-opacity:1"
         id="path14"
         inkscape:connector-curvature="0" /><g
         id="g16"><g
           id="g18"
           clip-path="url(#clipPath20)"><g
             id="g24"
             clip-path="url(#clipPath26)"><g
               id="g30"
               clip-path="url(#clipPath32)"><g
                 id="g36"
                 clip-path="url(#clipPath38)"><g
                   id="g42"
                   transform="scale(0.780615,1.21939)"><path
                     d="m 1420,136.397 1.01,-0.509 2.6,-0.516 4.15,-1.535 7.26,-2.082 9.35,-3.107 12.91,-3.617 15.07,-4.683 18.12,-5.699 20.71,-6.218 22.32,-6.724 24.32,-6.7565 24.92,-7.243 25.37,-7.7812 25.92,-7.243 25.37,-6.7561 24.87,-6.7337 23.87,-6.724 23.31,-5.699 21.78,-5.7086 21.21,-4.6738 20.22,-4.6418 18.66,-4.1677 18.17,-3.1074 17.06,-3.1073 16.62,-2.5916 15.51,-2.0502 15.06,-1.5761 14.51,-1.5313 14.46,-1.0603 14.01,-0.5158 29.58,0 15.01,1.0251 15.56,1.0571 15.51,1.5441 15.57,2.5916 16.06,2.5884 16.57,3.6263 17.11,4.1645 18.16,4.6418 18.62,5.1928 19.21,5.699 20.17,6.7241 21.27,7.275 43.53,15.54 21.78,8.2905 21.76,8.816 21.22,8.2937 19.21,7.7904 17.62,7.231 28.47,11.407 9.86,4.136 15.56,6.724"
                     style="fill:none;stroke:url(#pattern48);stroke-width:7.68728018;stroke-linecap:butt;stroke-linejoin:miter;stroke-miterlimit:4;stroke-dasharray:none;stroke-opacity:1"
                     id="path58"
                     inkscape:connector-curvature="0" /></g></g></g></g></g></g><path
         d="m 1761.64,127.031 49.41,16.989 -35.62,-38.481 -6.84,10.551 -6.95,10.941 z"
         style="fill:#ff00ff;fill-opacity:1;fill-rule:evenodd;stroke:none"
         id="path60"
         inkscape:connector-curvature="0" /><path
         d="m 1761.64,127.031 49.41,16.989 -35.62,-38.481 -6.84,10.551 -6.95,10.941 z"
         style="fill:none;stroke:#19001d;stroke-width:19.13439941;stroke-linecap:butt;stroke-linejoin:miter;stroke-miterlimit:10;stroke-dasharray:none;stroke-opacity:1"
         id="path62"
         inkscape:connector-curvature="0" /><path
         d="m 1035.74,222.488 c 0,-11.707 -9.49,-21.25 -21.25,-21.25 -11.72,0 -21.252,9.543 -21.252,21.25 0,11.762 9.532,21.293 21.252,21.293 11.76,0 21.25,-9.531 21.25,-21.293 z"
         style="fill:#ff0000;fill-opacity:1;fill-rule:evenodd;stroke:none"
         id="path64"
         inkscape:connector-curvature="0" /><path
         d="m 1035.74,222.488 c 0,-11.707 -9.49,-21.25 -21.25,-21.25 -11.72,0 -21.252,9.543 -21.252,21.25 0,11.762 9.532,21.293 21.252,21.293 11.76,0 21.25,-9.531 21.25,-21.293 z"
         style="fill:#edb120;stroke:#edb120;stroke-width:6.375;stroke-linecap:butt;stroke-linejoin:miter;stroke-miterlimit:10;stroke-dasharray:none;stroke-opacity:1;fill-opacity:1"
         id="path66"
         inkscape:connector-curvature="0" /><path
         d="m 1112.27,222.488 c 0,-11.707 -9.54,-21.25 -21.25,-21.25 -11.76,0 -21.29,9.543 -21.29,21.25 0,11.762 9.53,21.293 21.29,21.293 11.71,0 21.25,-9.531 21.25,-21.293 z"
         style="fill:#ff0000;fill-opacity:1;fill-rule:evenodd;stroke:none"
         id="path68"
         inkscape:connector-curvature="0" /><path
         d="m 1112.27,222.488 c 0,-11.707 -9.54,-21.25 -21.25,-21.25 -11.76,0 -21.29,9.543 -21.29,21.25 0,11.762 9.53,21.293 21.29,21.293 11.71,0 21.25,-9.531 21.25,-21.293 z"
         style="fill:#edb120;stroke:#edb120;stroke-width:6.375;stroke-linecap:butt;stroke-linejoin:miter;stroke-miterlimit:10;stroke-dasharray:none;stroke-opacity:1;fill-opacity:1"
         id="path70"
         inkscape:connector-curvature="0" /><path
         d="m 1188.75,222.488 c 0,-11.707 -9.53,-21.25 -21.25,-21.25 -11.76,0 -21.25,9.543 -21.25,21.25 0,11.762 9.49,21.293 21.25,21.293 11.72,0 21.25,-9.531 21.25,-21.293 z"
         style="fill:#ff0000;fill-opacity:1;fill-rule:evenodd;stroke:none"
         id="path72"
         inkscape:connector-curvature="0" /><path
         d="m 1188.75,222.488 c 0,-11.707 -9.53,-21.25 -21.25,-21.25 -11.76,0 -21.25,9.543 -21.25,21.25 0,11.762 9.49,21.293 21.25,21.293 11.72,0 21.25,-9.531 21.25,-21.293 z"
         style="fill:#edb120;stroke:#edb120;stroke-width:6.375;stroke-linecap:butt;stroke-linejoin:miter;stroke-miterlimit:10;stroke-dasharray:none;stroke-opacity:1;fill-opacity:1"
         id="path74"
         inkscape:connector-curvature="0" /><path
         d="m 1265.27,222.488 c 0,-11.707 -9.53,-21.25 -21.29,-21.25 -11.71,0 -21.25,9.543 -21.25,21.25 0,11.762 9.54,21.293 21.25,21.293 11.76,0 21.29,-9.531 21.29,-21.293 z"
         style="fill:#ff0000;fill-opacity:1;fill-rule:evenodd;stroke:none"
         id="path76"
         inkscape:connector-curvature="0" /><path
         d="m 1265.27,222.488 c 0,-11.707 -9.53,-21.25 -21.29,-21.25 -11.71,0 -21.25,9.543 -21.25,21.25 0,11.762 9.54,21.293 21.25,21.293 11.76,0 21.29,-9.531 21.29,-21.293 z"
         style="fill:#edb120;stroke:#edb120;stroke-width:6.375;stroke-linecap:butt;stroke-linejoin:miter;stroke-miterlimit:10;stroke-dasharray:none;stroke-opacity:1;fill-opacity:1"
         id="path78"
         inkscape:connector-curvature="0" /><path
         d="m 1380,222.488 c 0,-11.707 -9.53,-21.25 -21.25,-21.25 -11.76,0 -21.25,9.543 -21.25,21.25 0,11.762 9.49,21.293 21.25,21.293 11.72,0 21.25,-9.531 21.25,-21.293 z"
         style="fill:#ff0000;fill-opacity:1;fill-rule:evenodd;stroke:none"
         id="path80"
         inkscape:connector-curvature="0" /><path
         d="m 1380,222.488 c 0,-11.707 -9.53,-21.25 -21.25,-21.25 -11.76,0 -21.25,9.543 -21.25,21.25 0,11.762 9.49,21.293 21.25,21.293 11.72,0 21.25,-9.531 21.25,-21.293 z"
         style="fill:#edb120;stroke:#edb120;stroke-width:6.375;stroke-linecap:butt;stroke-linejoin:miter;stroke-miterlimit:10;stroke-dasharray:none;stroke-opacity:0.97990197;fill-opacity:1"
         id="path82"
         inkscape:connector-curvature="0" /><path
         d="m 1513.87,222.488 c 0,-11.707 -9.49,-21.25 -21.25,-21.25 -11.72,0 -21.25,9.543 -21.25,21.25 0,11.762 9.53,21.293 21.25,21.293 11.76,0 21.25,-9.531 21.25,-21.293 z"
         style="fill:#ff0000;fill-opacity:1;fill-rule:evenodd;stroke:none"
         id="path84"
         inkscape:connector-curvature="0" /><path
         d="m 1513.87,222.488 c 0,-11.707 -9.49,-21.25 -21.25,-21.25 -11.72,0 -21.25,9.543 -21.25,21.25 0,11.762 9.53,21.293 21.25,21.293 11.76,0 21.25,-9.531 21.25,-21.293 z"
         style="fill:#edb120;stroke:#edb120;stroke-width:6.375;stroke-linecap:butt;stroke-linejoin:miter;stroke-miterlimit:10;stroke-dasharray:none;stroke-opacity:1;fill-opacity:1"
         id="path86"
         inkscape:connector-curvature="0" /><path
         d="m 748.871,222.488 c 0,-11.707 -9.492,-21.25 -21.25,-21.25 -11.723,0 -21.25,9.543 -21.25,21.25 0,11.762 9.527,21.293 21.25,21.293 11.758,0 21.25,-9.531 21.25,-21.293 z"
         style="fill:#ff0000;fill-opacity:1;fill-rule:evenodd;stroke:none"
         id="path88"
         inkscape:connector-curvature="0" /><path
         d="m 748.871,222.488 c 0,-11.707 -9.492,-21.25 -21.25,-21.25 -11.723,0 -21.25,9.543 -21.25,21.25 0,11.762 9.527,21.293 21.25,21.293 11.758,0 21.25,-9.531 21.25,-21.293 z"
         style="fill:#edb120;stroke:#edb120;stroke-width:6.375;stroke-linecap:butt;stroke-linejoin:miter;stroke-miterlimit:10;stroke-dasharray:none;stroke-opacity:1;fill-opacity:1"
         id="path90"
         inkscape:connector-curvature="0" /><path
         d="m 1666.88,222.488 c 0,-11.707 -9.54,-21.25 -21.26,-21.25 -11.75,0 -21.24,9.543 -21.24,21.25 0,11.762 9.49,21.293 21.24,21.293 11.72,0 21.26,-9.531 21.26,-21.293 z"
         style="fill:#ff0000;fill-opacity:1;fill-rule:evenodd;stroke:none"
         id="path92"
         inkscape:connector-curvature="0" /><path
         d="m 1666.88,222.488 c 0,-11.707 -9.54,-21.25 -21.26,-21.25 -11.75,0 -21.24,9.543 -21.24,21.25 0,11.762 9.49,21.293 21.24,21.293 11.72,0 21.26,-9.531 21.26,-21.293 z"
         style="fill:#edb120;stroke:#edb120;stroke-width:6.375;stroke-linecap:butt;stroke-linejoin:miter;stroke-miterlimit:10;stroke-dasharray:none;stroke-opacity:1;fill-opacity:1"
         id="path94"
         inkscape:connector-curvature="0" /><path
         d="m 618.398,222.488 c 0,-11.707 -9.527,-21.25 -21.289,-21.25 -11.718,0 -21.25,9.543 -21.25,21.25 0,11.762 9.532,21.293 21.25,21.293 11.762,0 21.289,-9.531 21.289,-21.293 z"
         style="fill:#ff0000;fill-opacity:1;fill-rule:evenodd;stroke:none"
         id="path96"
         inkscape:connector-curvature="0" /><path
         d="m 618.398,222.488 c 0,-11.707 -9.527,-21.25 -21.289,-21.25 -11.718,0 -21.25,9.543 -21.25,21.25 0,11.762 9.532,21.293 21.25,21.293 11.762,0 21.289,-9.531 21.289,-21.293 z"
         style="fill:#edb120;stroke:#edb120;stroke-width:6.375;stroke-linecap:butt;stroke-linejoin:miter;stroke-miterlimit:10;stroke-dasharray:none;stroke-opacity:1;fill-opacity:1"
         id="path98"
         inkscape:connector-curvature="0" /><path
         d="m 1858.12,222.488 c 0,-11.707 -9.53,-21.25 -21.24,-21.25 -11.76,0 -21.26,9.543 -21.26,21.25 0,11.762 9.5,21.293 21.26,21.293 11.71,0 21.24,-9.531 21.24,-21.293 z"
         style="fill:#ff0000;fill-opacity:1;fill-rule:evenodd;stroke:none"
         id="path100"
         inkscape:connector-curvature="0" /><path
         d="m 1858.12,222.488 c 0,-11.707 -9.53,-21.25 -21.24,-21.25 -11.76,0 -21.26,9.543 -21.26,21.25 0,11.762 9.5,21.293 21.26,21.293 11.71,0 21.24,-9.531 21.24,-21.293 z"
         style="fill:#edb120;stroke:#edb120;stroke-width:6.375;stroke-linecap:butt;stroke-linejoin:miter;stroke-miterlimit:10;stroke-dasharray:none;stroke-opacity:1;fill-opacity:1"
         id="path102"
         inkscape:connector-curvature="0" /><path
         d="m 2296.33,222.488 c 0,-11.707 -9.53,-21.25 -21.25,-21.25 -11.76,0 -21.29,9.543 -21.29,21.25 0,11.762 9.53,21.293 21.29,21.293 11.72,0 21.25,-9.531 21.25,-21.293 z"
         style="fill:#ff0000;fill-opacity:1;fill-rule:evenodd;stroke:none"
         id="path104"
         inkscape:connector-curvature="0" /><path
         d="m 2296.33,222.488 c 0,-11.707 -9.53,-21.25 -21.25,-21.25 -11.76,0 -21.29,9.543 -21.29,21.25 0,11.762 9.53,21.293 21.29,21.293 11.72,0 21.25,-9.531 21.25,-21.293 z"
         style="fill:#edb120;stroke:#edb120;stroke-width:6.375;stroke-linecap:butt;stroke-linejoin:miter;stroke-miterlimit:10;stroke-dasharray:none;stroke-opacity:1;fill-opacity:1"
         id="path106"
         inkscape:connector-curvature="0" /><path
         d="m 2105.08,222.488 c 0,-11.707 -9.53,-21.25 -21.25,-21.25 -11.76,0 -21.29,9.543 -21.29,21.25 0,11.762 9.53,21.293 21.29,21.293 11.72,0 21.25,-9.531 21.25,-21.293 z"
         style="fill:#ff0000;fill-opacity:1;fill-rule:evenodd;stroke:none"
         id="path108"
         inkscape:connector-curvature="0" /><path
         d="m 2105.08,222.488 c 0,-11.707 -9.53,-21.25 -21.25,-21.25 -11.76,0 -21.29,9.543 -21.29,21.25 0,11.762 9.53,21.293 21.29,21.293 11.72,0 21.25,-9.531 21.25,-21.293 z"
         style="fill:#edb120;stroke:#edb120;stroke-width:6.375;stroke-linecap:butt;stroke-linejoin:miter;stroke-miterlimit:10;stroke-dasharray:none;stroke-opacity:1;fill-opacity:1"
         id="path110"
         inkscape:connector-curvature="0" /><path
         d="m 846.211,222.488 c 0,-11.707 -9.531,-21.25 -21.289,-21.25 -11.723,0 -21.25,9.543 -21.25,21.25 0,11.762 9.527,21.293 21.25,21.293 11.758,0 21.289,-9.531 21.289,-21.293 z"
         style="fill:#ff0000;fill-opacity:1;fill-rule:evenodd;stroke:none"
         id="path112"
         inkscape:connector-curvature="0" /><path
         d="m 846.211,222.488 c 0,-11.707 -9.531,-21.25 -21.289,-21.25 -11.723,0 -21.25,9.543 -21.25,21.25 0,11.762 9.527,21.293 21.25,21.293 11.758,0 21.289,-9.531 21.289,-21.293 z"
         style="fill:#edb120;stroke:#edb120;stroke-width:6.375;stroke-linecap:butt;stroke-linejoin:miter;stroke-miterlimit:10;stroke-dasharray:none;stroke-opacity:1;fill-opacity:1"
         id="path114"
         inkscape:connector-curvature="0" /><path
         d="m 921.02,222.488 c 0,-11.707 -9.54,-21.25 -21.25,-21.25 -11.758,0 -21.29,9.543 -21.29,21.25 0,11.762 9.532,21.293 21.29,21.293 11.71,0 21.25,-9.531 21.25,-21.293 z"
         style="fill:#ff0000;fill-opacity:1;fill-rule:evenodd;stroke:none"
         id="path116"
         inkscape:connector-curvature="0" /><path
         d="m 921.02,222.488 c 0,-11.707 -9.54,-21.25 -21.25,-21.25 -11.758,0 -21.29,9.543 -21.29,21.25 0,11.762 9.532,21.293 21.29,21.293 11.71,0 21.25,-9.531 21.25,-21.293 z"
         style="fill:#edb120;stroke:#edb120;stroke-width:6.375;stroke-linecap:butt;stroke-linejoin:miter;stroke-miterlimit:10;stroke-dasharray:none;stroke-opacity:1;fill-opacity:1"
         id="path118"
         inkscape:connector-curvature="0" /><path
         d="m 978.398,222.488 c 0,-11.707 -9.527,-21.25 -21.289,-21.25 -11.718,0 -21.25,9.543 -21.25,21.25 0,11.762 9.532,21.293 21.25,21.293 11.762,0 21.289,-9.531 21.289,-21.293 z"
         style="fill:#ff0000;fill-opacity:1;fill-rule:evenodd;stroke:none"
         id="path120"
         inkscape:connector-curvature="0" /><path
         d="m 978.398,222.488 c 0,-11.707 -9.527,-21.25 -21.289,-21.25 -11.718,0 -21.25,9.543 -21.25,21.25 0,11.762 9.532,21.293 21.25,21.293 11.762,0 21.289,-9.531 21.289,-21.293 z"
         style="fill:#edb120;stroke:#edb120;stroke-width:6.375;stroke-linecap:butt;stroke-linejoin:miter;stroke-miterlimit:10;stroke-dasharray:none;stroke-opacity:1;fill-opacity:1"
         id="path122"
         inkscape:connector-curvature="0" /><path
         d="m 1011.41,316.789 1.4,0 4.26,0.391 11.41,1.211 18.55,2.027 27.07,2.82 31.33,3.203 35.62,3.629 68.4,7.231 29.89,3.238 28.55,3.59 25.63,2.859 62.69,8.821 37.03,6.453 17.11,3.238 37.07,8.051 17.07,4.41 18.52,4.848 18.55,5.23 17.07,5.629 17.11,6.441 15.67,6.45 15.66,6.832 14.3,7.23 14.22,7.66 12.85,7.649 11.4,8.05 11.37,8.438 8.56,6.832 7.11,6.879 7.14,7.223 8.52,8.046 7.15,8.051 14.26,17.731 7.1,9.648 7.11,10.082 14.26,20.899 5.7,10.902 7.11,10.848 5.75,10.859 5.66,11.293 5.74,10.859 5.67,11.25 4.29,10.469 5.67,10.902 4.29,10.86 8.56,20.898 8.55,23.36 2.86,12.07 17.07,48.32 8.55,23.321 2.85,10.468 4.3,10.071 4.26,9.652 2.85,8.051 4.3,7.269 2.85,6.438 2.81,4.812 4.3,4.02 2.85,2.418 2.85,1.601 2.81,0 2.89,-0.781 2.85,-2.418 2.86,-3.203 2.81,-4.848 4.29,-5.621 2.86,-6.879 2.85,-7.609 4.26,-8.871 2.89,-9.649 4.25,-10.082 2.82,-10.468 2.85,-11.25 4.3,-11.289 2.85,-10.864 2.85,-11.277 4.3,-10.859 5.66,-20.942 2.85,-9.648 2.85,-9.262 2.85,-10.082 4.26,-9.25 2.85,-9.648 2.89,-8.829 4.26,-9.3 4.26,-8.832 2.85,-8.469 4.3,-8.828 4.26,-8.481 2.85,-8.043 4.29,-8.047 2.82,-7.66 4.29,-7.613 4.3,-7.27 5.66,-13.668 4.3,-6.878 2.85,-7.223 2.85,-6.84 4.26,-7.258 2.85,-7.23 8.56,-16.09 5.7,-8.051 11.41,-16.922 14.22,-16.91 8.59,-8.437 8.52,-8.039 9.96,-7.661 11.4,-7.273 11.41,-6.828 11.41,-6.449 14.25,-6.012 14.22,-5.629 14.26,-5.23 17.11,-5.239 19.96,-4.84 21.37,-4.839 24.22,-4.813 27.07,-5.23 31.32,-4.848 34.22,-5.231 76.92,-10.859 38.47,-5.23 38.52,-4.422 32.73,-4.449 27.11,-3.211 18.52,-2.028 9.96,-1.601 5.7,-0.391"
         style="fill:none;stroke:#d95319;stroke-width:7.5;stroke-linecap:butt;stroke-linejoin:miter;stroke-miterlimit:10;stroke-dasharray:none;stroke-opacity:1"
         id="path124"
         inkscape:connector-curvature="0" /></g></g></svg>