<?xml version="1.0" encoding="UTF-8" standalone="no"?>
<!-- Created with Inkscape (http://www.inkscape.org/) -->

<svg
   xmlns:dc="http://purl.org/dc/elements/1.1/"
   xmlns:cc="http://creativecommons.org/ns#"
   xmlns:rdf="http://www.w3.org/1999/02/22-rdf-syntax-ns#"
   xmlns:svg="http://www.w3.org/2000/svg"
   xmlns="http://www.w3.org/2000/svg"
   xmlns:sodipodi="http://sodipodi.sourceforge.net/DTD/sodipodi-0.dtd"
   xmlns:inkscape="http://www.inkscape.org/namespaces/inkscape"
   id="svg2"
   version="1.1"
   inkscape:version="0.91 r13725"
   xml:space="preserve"
   width="321.25"
   height="107.5"
   viewBox="0 0 321.25 107.5"
   sodipodi:docname="peaked_likelihood.svg"><metadata
     id="metadata8"><rdf:RDF><cc:Work
         rdf:about=""><dc:format>image/svg+xml</dc:format><dc:type
           rdf:resource="http://purl.org/dc/dcmitype/StillImage" /><dc:title></dc:title></cc:Work></rdf:RDF></metadata><defs
     id="defs6"><clipPath
       clipPathUnits="userSpaceOnUse"
       id="clipPath20"><path
         d="m 0,6.48047 2570,0 0,850 -2570,0 0,-850 z"
         id="path22"
         inkscape:connector-curvature="0" /></clipPath><clipPath
       clipPathUnits="userSpaceOnUse"
       id="clipPath26"><path
         d="M -362.73,5249.18 2993.79,5502.66 3442.07,-2099.53 85.5508,-2353.05 -362.73,5249.18 Z m 2155.23,-5142.5 29.57,11.398 -22.19,-34.9178 52.78,45.9808 -7.11,23.519"
         id="path28"
         inkscape:connector-curvature="0" /></clipPath><clipPath
       clipPathUnits="userSpaceOnUse"
       id="clipPath32"><path
         d="m 0,6.48047 2570,0 0,850 -2570,0 0,-850 z"
         id="path34"
         inkscape:connector-curvature="0" /></clipPath><clipPath
       clipPathUnits="userSpaceOnUse"
       id="clipPath38"><path
         d="M 85.5898,-2353.6 3442.11,-2100.12 2993.83,5502.07 -362.699,5248.59 85.5898,-2353.6 Z"
         id="path40"
         inkscape:connector-curvature="0" /></clipPath><clipPath
       clipPathUnits="userSpaceOnUse"
       id="clipPath44"><path
         d="m 0,6.48438 2570,0 0,850 -2570,0 0,-850 z"
         id="path46"
         inkscape:connector-curvature="0" /></clipPath><clipPath
       clipPathUnits="userSpaceOnUse"
       id="clipPath50"><path
         d="m 0,1000 1500,0 L 1500,0 0,0 0,1000 Z"
         id="path52"
         inkscape:connector-curvature="0" /></clipPath><pattern
       patternTransform="matrix(0.548453,0.04142,0.0565998,-0.959873,80,-2258.01)"
       patternUnits="userSpaceOnUse"
       x="0"
       y="0"
       width="150"
       height="100"
       id="pattern54"><g
         transform="scale(0.1,0.1)"
         id="g56"><g
           id="g58"><g
             clip-path="url(#clipPath50)"
             id="g60"><path
               d="m 0,-500 1000,0 0,2000 -1000,0 0,-2000 z"
               style="fill:#000000;fill-opacity:1;fill-rule:nonzero;stroke:none"
               id="path62" /></g></g></g></pattern><clipPath
       clipPathUnits="userSpaceOnUse"
       id="clipPath134"><path
         d="m 0,6.48047 2220,0 0,850 -2220,0 0,-850 z"
         id="path136"
         inkscape:connector-curvature="0" /></clipPath><clipPath
       clipPathUnits="userSpaceOnUse"
       id="clipPath140"><path
         d="m 0,5035.9 2211.72,0 0,-7116.06 -2211.72,0 0,7116.06 z M 1139.34,91.9102 l 21.32,8.5588 -17.11,-30.9807 39.15,39.1407 -4.07,22.422"
         id="path142"
         inkscape:connector-curvature="0" /></clipPath><clipPath
       clipPathUnits="userSpaceOnUse"
       id="clipPath146"><path
         d="m 0,6.48047 2220,0 0,850 -2220,0 0,-850 z"
         id="path148"
         inkscape:connector-curvature="0" /></clipPath><clipPath
       clipPathUnits="userSpaceOnUse"
       id="clipPath152"><path
         d="m 0,6.48438 2211.72,0 0,850 -2211.72,0 0,-850 z"
         id="path154"
         inkscape:connector-curvature="0" /></clipPath><clipPath
       clipPathUnits="userSpaceOnUse"
       id="clipPath158"><path
         d="m 0,6.48438 2220,0 0,850 -2220,0 0,-850 z"
         id="path160"
         inkscape:connector-curvature="0" /></clipPath><clipPath
       clipPathUnits="userSpaceOnUse"
       id="clipPath164"><path
         d="m 0,1000 1500,0 L 1500,0 0,0 0,1000 Z"
         id="path166"
         inkscape:connector-curvature="0" /></clipPath><pattern
       patternTransform="matrix(0.388806,0,0,-0.898493,-168,-1991.15)"
       patternUnits="userSpaceOnUse"
       x="0"
       y="0"
       width="150"
       height="100"
       id="pattern168"><g
         transform="scale(0.1,0.1)"
         id="g170"><g
           id="g172"><g
             clip-path="url(#clipPath164)"
             id="g174"><path
               d="m 0,-500 1000,0 0,2000 -1000,0 0,-2000 z"
               style="fill:#000000;fill-opacity:1;fill-rule:nonzero;stroke:none"
               id="path176" /></g></g></g></pattern></defs><sodipodi:namedview
     pagecolor="#ffffff"
     bordercolor="#666666"
     borderopacity="1"
     objecttolerance="10"
     gridtolerance="10"
     guidetolerance="10"
     inkscape:pageopacity="0"
     inkscape:pageshadow="2"
     inkscape:window-width="1284"
     inkscape:window-height="686"
     id="namedview4"
     showgrid="false"
     inkscape:zoom="2.470803"
     inkscape:cx="169.6236"
     inkscape:cy="54.891457"
     inkscape:window-x="0"
     inkscape:window-y="0"
     inkscape:window-maximized="0"
     inkscape:current-layer="g10" /><g
     id="g10"
     inkscape:groupmode="layer"
     inkscape:label="ink_ext_XXXXXX"
     transform="matrix(1.25,0,0,-1.25,0,107.5)"><g
       id="g12"
       transform="scale(0.1,0.1)"><path
         d="m 0,270.152 0.859375,0 2.109375,0.391 3.83203,0 5.96872,0.469 8.0899,0.82 11.0195,0.859 13.1992,1.293 16.1719,1.25 18.2813,1.719 19.957,1.68 21.6837,2.152 22.578,2.11 23.789,2.57 23.832,2.539 23.789,2.109 23.391,2.578 22.969,2.973 22.109,2.539 21.293,2.582 20.387,2.539 19.14,2.961 18.281,2.539 17,2.578 16.168,2.973 15.313,2.539 14.019,2.969 13.641,3.012 12.731,3.39 12.347,2.969 11.481,3.398 11.05,3.403 10.2,3.828 10.621,3.402 12.777,5.539 24.652,11.059 22.969,12.73 11.481,7.231 10.621,7.23 21.289,15.309 19.57,17.031 18.719,17.848 8.473,8.953 16.168,18.707 7.66,9.332 6.8,9.379 6.79,8.902 6.41,9.379 5.941,8.91 5.539,8.938 5.512,8.523 5.117,8.899 5.082,8.519 4.68,8.082 10.199,18.719 4.691,8.937 5.11,9.344 5.078,9.758 4.691,9.379 20.43,39.141 5.078,10.191 5.121,9.769 5.5,9.372 5.121,9.769 5.121,9.371 5.079,8.906 10.23,17.032 4.648,8.09 5.122,8.039 5.109,7.23 4.652,7.231 10.239,13.628 5.5,7.231 11.921,13.59 6.789,6.371 6.372,6.402 7.269,6.367 15.27,11.922 8.089,5.071 8.508,5.117 8.524,4.691 8.898,4.262 8.949,3.82 9.371,2.969 9.34,2.539 9.379,2.148 9.332,1.25 9.77,1.293 19.139,0 9.37,-0.859 10.2,-1.25 16.99,-3.402 8.95,-2.578 9.33,-2.543 9.81,-3.387 9.76,-3.832 10.24,-3.828 10.62,-4.692 11.06,-4.679 11.05,-5.082 11.05,-5.547 11.49,-5.942 34.45,-19.14 22.97,-13.629 11.49,-7.231 11.01,-6.789 10.67,-6.801 10.62,-7.23 20.39,-13.59 19.57,-13.629 46.8,-34.031 19.53,-14.449 9.37,-7.231 10.2,-7.218 9.8,-7.231 10.2,-7.66 9.77,-7.219 10.23,-7.23 10.2,-7.66 10.19,-7.223 9.77,-7.231 10.23,-6.796 19.53,-13.633 9.38,-5.938 9.33,-6.359 9.38,-5.981 17.85,-11.05 8.94,-5.121 8.52,-5.079 8.91,-4.691 9.37,-5.109 9.77,-4.649 9.76,-5.121 20.43,-9.34 10.63,-4.25 22.11,-9.383 11.05,-4.257 34.45,-12.731 34.46,-11.488 11.05,-3.82 22.11,-6.801 10.63,-3.403 10.19,-3.398 10.24,-3.008 19.57,-5.933 9.33,-2.969 8.95,-2.578 8.47,-2.973 8.95,-2.539 8.95,-2.969 9.33,-2.57 9.38,-2.969 19.53,-5.941 10.23,-3.012 31.88,-8.898 11.48,-2.969 11.06,-2.973 11.48,-3.008 11.91,-2.543 11.49,-2.968 11.91,-2.578 11.88,-2.532 12.34,-2.539 11.92,-2.539 12.34,-2.582 12.3,-2.109 12.35,-2.153 12.77,-2.109 13.16,-2.148 10.63,-1.68 11.05,-1.719 11.49,-1.25 11.91,-1.711 12.78,-1.679 13.16,-1.293 13.63,-1.719 14.89,-1.68 15.7,-1.719 16.6,-1.25 17.42,-1.722 18.28,-2.11 19.57,-1.718 20.86,-1.68 21.25,-2.152 22.54,-1.668 22.97,-2.149 22.97,-1.722 22.93,-2.11 22.54,-1.68 22.15,-2.148 20.39,-1.293 18.28,-1.68 16.6,-1.289 14.02,-1.25 11.49,-0.859 8.94,-0.859 6.37,-0.43 4.26,0 2.11,-0.43 0.86,0"
         style="fill:none;stroke:#0072bd;stroke-width:7.504;stroke-linecap:butt;stroke-linejoin:miter;stroke-miterlimit:10;stroke-dasharray:none;stroke-opacity:1"
         id="path14"
         inkscape:connector-curvature="0" /><g
         id="g16"><g
           id="g18"
           clip-path="url(#clipPath20)"><g
             id="g24"
             clip-path="url(#clipPath26)"><g
               id="g30"
               clip-path="url(#clipPath32)"><g
                 id="g36"
                 clip-path="url(#clipPath38)"><g
                   id="g42"
                   clip-path="url(#clipPath44)"><g
                     id="g48"
                     transform="matrix(0.682858,0.0515705,-0.0704702,1.1951,0,0)"><path
                       d="m 2025.8,-3.1564 0.7,-0.35411 1.85,-0.37397 2.92,-1.07391 5.12,-1.46264 6.52,-2.17409 9.12,-2.55398 10.59,-3.3037 12.74,-3.9754 14.54,-4.3926 15.69,-4.727 17.14,-4.7304 17.49,-5.1017 17.79,-5.4748 18.25,-5.1016 17.87,-4.7198 17.47,-4.7446 16.78,-4.7447 16.36,-4.0069 15.32,-3.9917 14.94,-3.2987 14.17,-3.2888 13.15,-2.8846 12.76,-2.1914 12.01,-2.1855 11.66,-1.8399 10.95,-1.4562 10.52,-1.0719 10.24,-1.0956 10.17,-0.7363 9.86,-0.3598 20.77,-0.0072 10.54,0.7185 10.94,0.7371 10.92,1.0944 10.95,1.8156 11.29,1.8336 11.64,2.5438 12.03,2.9099 12.75,3.2738 13.14,3.6464 13.45,4.0344 14.22,4.7111 14.94,5.1046 30.58,10.9341 15.31,5.8177 15.34,6.1987 14.91,5.8319 13.49,5.4646 12.36,5.1211 20.05,7.9925 6.94,2.90068 10.9,4.76249"
                       style="fill:none;stroke:url(#pattern54);stroke-width:8.2837801;stroke-linecap:butt;stroke-linejoin:miter;stroke-miterlimit:4;stroke-dasharray:none;stroke-opacity:1"
                       id="path64"
                       inkscape:connector-curvature="0" /></g></g></g></g></g></g></g><path
         d="m 1380.94,114.449 -49.57,16.332 36.05,-38.0115 6.72,10.6285 6.8,11.051 z"
         style="fill:#ff00ff;fill-opacity:1;fill-rule:evenodd;stroke:none"
         id="path66"
         inkscape:connector-curvature="0" /><path
         d="m 1380.94,114.453 -49.57,16.332 36.05,-38.0116 6.72,10.6216 6.8,11.058 z"
         style="fill:none;stroke:#19001d;stroke-width:19.13439941;stroke-linecap:butt;stroke-linejoin:miter;stroke-miterlimit:10;stroke-dasharray:none;stroke-opacity:1"
         id="path68"
         inkscape:connector-curvature="0" /><path
         d="m 1035.74,185.469 c 0,-11.719 -9.49,-21.25 -21.25,-21.25 -11.72,0 -21.252,9.531 -21.252,21.25 0,11.761 9.532,21.293 21.252,21.293 11.76,0 21.25,-9.532 21.25,-21.293 z"
         style="fill:#ff0000;fill-opacity:1;fill-rule:evenodd;stroke:none"
         id="path70"
         inkscape:connector-curvature="0" /><path
         d="m 1035.74,185.465 c 0,-11.711 -9.49,-21.25 -21.25,-21.25 -11.72,0 -21.252,9.539 -21.252,21.25 0,11.758 9.532,21.289 21.252,21.289 11.76,0 21.25,-9.531 21.25,-21.289 z"
         style="fill:#edb120;stroke:#edb120;stroke-width:6.375;stroke-linecap:butt;stroke-linejoin:miter;stroke-miterlimit:10;stroke-dasharray:none;stroke-opacity:1;fill-opacity:1"
         id="path72"
         inkscape:connector-curvature="0" /><path
         d="m 1112.27,185.469 c 0,-11.719 -9.54,-21.25 -21.25,-21.25 -11.76,0 -21.29,9.531 -21.29,21.25 0,11.761 9.53,21.293 21.29,21.293 11.71,0 21.25,-9.532 21.25,-21.293 z"
         style="fill:#ff0000;fill-opacity:1;fill-rule:evenodd;stroke:none"
         id="path74"
         inkscape:connector-curvature="0" /><path
         d="m 1112.27,185.465 c 0,-11.711 -9.54,-21.25 -21.25,-21.25 -11.76,0 -21.29,9.539 -21.29,21.25 0,11.758 9.53,21.289 21.29,21.289 11.71,0 21.25,-9.531 21.25,-21.289 z"
         style="fill:#edb120;stroke:#edb120;stroke-width:6.375;stroke-linecap:butt;stroke-linejoin:miter;stroke-miterlimit:10;stroke-dasharray:none;stroke-opacity:1;fill-opacity:1"
         id="path76"
         inkscape:connector-curvature="0" /><path
         d="m 1188.75,185.469 c 0,-11.719 -9.53,-21.25 -21.25,-21.25 -11.76,0 -21.25,9.531 -21.25,21.25 0,11.761 9.49,21.293 21.25,21.293 11.72,0 21.25,-9.532 21.25,-21.293 z"
         style="fill:#ff0000;fill-opacity:1;fill-rule:evenodd;stroke:none"
         id="path78"
         inkscape:connector-curvature="0" /><path
         d="m 1188.75,185.465 c 0,-11.711 -9.53,-21.25 -21.25,-21.25 -11.76,0 -21.25,9.539 -21.25,21.25 0,11.758 9.49,21.289 21.25,21.289 11.72,0 21.25,-9.531 21.25,-21.289 z"
         style="fill:#edb120;stroke:#edb120;stroke-width:6.375;stroke-linecap:butt;stroke-linejoin:miter;stroke-miterlimit:10;stroke-dasharray:none;stroke-opacity:1;fill-opacity:1"
         id="path80"
         inkscape:connector-curvature="0" /><path
         d="m 1265.27,185.469 c 0,-11.719 -9.53,-21.25 -21.29,-21.25 -11.71,0 -21.25,9.531 -21.25,21.25 0,11.761 9.54,21.293 21.25,21.293 11.76,0 21.29,-9.532 21.29,-21.293 z"
         style="fill:#ff0000;fill-opacity:1;fill-rule:evenodd;stroke:none"
         id="path82"
         inkscape:connector-curvature="0" /><path
         d="m 1265.27,185.465 c 0,-11.711 -9.53,-21.25 -21.29,-21.25 -11.71,0 -21.25,9.539 -21.25,21.25 0,11.758 9.54,21.289 21.25,21.289 11.76,0 21.29,-9.531 21.29,-21.289 z"
         style="fill:#edb120;stroke:#edb120;stroke-width:6.375;stroke-linecap:butt;stroke-linejoin:miter;stroke-miterlimit:10;stroke-dasharray:none;stroke-opacity:1;fill-opacity:1"
         id="path84"
         inkscape:connector-curvature="0" /><path
         d="m 1380,185.469 c 0,-11.719 -9.53,-21.25 -21.25,-21.25 -11.76,0 -21.25,9.531 -21.25,21.25 0,11.761 9.49,21.293 21.25,21.293 11.72,0 21.25,-9.532 21.25,-21.293 z"
         style="fill:#ff0000;fill-opacity:1;fill-rule:evenodd;stroke:none"
         id="path86"
         inkscape:connector-curvature="0" /><path
         d="m 1380,185.465 c 0,-11.711 -9.53,-21.25 -21.25,-21.25 -11.76,0 -21.25,9.539 -21.25,21.25 0,11.758 9.49,21.289 21.25,21.289 11.72,0 21.25,-9.531 21.25,-21.289 z"
         style="fill:#edb120;stroke:#edb120;stroke-width:6.375;stroke-linecap:butt;stroke-linejoin:miter;stroke-miterlimit:10;stroke-dasharray:none;stroke-opacity:1;fill-opacity:1"
         id="path88"
         inkscape:connector-curvature="0" /><path
         d="m 1513.87,185.469 c 0,-11.719 -9.49,-21.25 -21.25,-21.25 -11.72,0 -21.25,9.531 -21.25,21.25 0,11.761 9.53,21.293 21.25,21.293 11.76,0 21.25,-9.532 21.25,-21.293 z"
         style="fill:#ff0000;fill-opacity:1;fill-rule:evenodd;stroke:none"
         id="path90"
         inkscape:connector-curvature="0" /><path
         d="m 1513.87,185.465 c 0,-11.711 -9.49,-21.25 -21.25,-21.25 -11.72,0 -21.25,9.539 -21.25,21.25 0,11.758 9.53,21.289 21.25,21.289 11.76,0 21.25,-9.531 21.25,-21.289 z"
         style="fill:#edb120;stroke:#edb120;stroke-width:6.375;stroke-linecap:butt;stroke-linejoin:miter;stroke-miterlimit:10;stroke-dasharray:none;stroke-opacity:1;fill-opacity:1"
         id="path92"
         inkscape:connector-curvature="0" /><path
         d="m 748.871,185.469 c 0,-11.719 -9.492,-21.25 -21.25,-21.25 -11.723,0 -21.25,9.531 -21.25,21.25 0,11.761 9.527,21.293 21.25,21.293 11.758,0 21.25,-9.532 21.25,-21.293 z"
         style="fill:#ff0000;fill-opacity:1;fill-rule:evenodd;stroke:none"
         id="path94"
         inkscape:connector-curvature="0" /><path
         d="m 748.871,185.465 c 0,-11.711 -9.492,-21.25 -21.25,-21.25 -11.723,0 -21.25,9.539 -21.25,21.25 0,11.758 9.527,21.289 21.25,21.289 11.758,0 21.25,-9.531 21.25,-21.289 z"
         style="fill:#edb120;stroke:#edb120;stroke-width:6.375;stroke-linecap:butt;stroke-linejoin:miter;stroke-miterlimit:10;stroke-dasharray:none;stroke-opacity:1;fill-opacity:1"
         id="path96"
         inkscape:connector-curvature="0" /><path
         d="m 1666.88,185.469 c 0,-11.719 -9.54,-21.25 -21.26,-21.25 -11.75,0 -21.24,9.531 -21.24,21.25 0,11.761 9.49,21.293 21.24,21.293 11.72,0 21.26,-9.532 21.26,-21.293 z"
         style="fill:#ff0000;fill-opacity:1;fill-rule:evenodd;stroke:none"
         id="path98"
         inkscape:connector-curvature="0" /><path
         d="m 1666.88,185.465 c 0,-11.711 -9.54,-21.25 -21.26,-21.25 -11.75,0 -21.24,9.539 -21.24,21.25 0,11.758 9.49,21.289 21.24,21.289 11.72,0 21.26,-9.531 21.26,-21.289 z"
         style="fill:#edb120;stroke:#edb11f;stroke-width:6.375;stroke-linecap:butt;stroke-linejoin:miter;stroke-miterlimit:10;stroke-dasharray:none;stroke-opacity:1;fill-opacity:1"
         id="path100"
         inkscape:connector-curvature="0" /><path
         d="m 618.398,185.469 c 0,-11.719 -9.527,-21.25 -21.289,-21.25 -11.718,0 -21.25,9.531 -21.25,21.25 0,11.761 9.532,21.293 21.25,21.293 11.762,0 21.289,-9.532 21.289,-21.293 z"
         style="fill:#ff0000;fill-opacity:1;fill-rule:evenodd;stroke:none"
         id="path102"
         inkscape:connector-curvature="0" /><path
         d="m 618.398,185.465 c 0,-11.711 -9.527,-21.25 -21.289,-21.25 -11.718,0 -21.25,9.539 -21.25,21.25 0,11.758 9.532,21.289 21.25,21.289 11.762,0 21.289,-9.531 21.289,-21.289 z"
         style="fill:#edb120;stroke:#edb120;stroke-width:6.375;stroke-linecap:butt;stroke-linejoin:miter;stroke-miterlimit:10;stroke-dasharray:none;stroke-opacity:1;fill-opacity:1"
         id="path104"
         inkscape:connector-curvature="0" /><path
         d="m 1858.12,185.469 c 0,-11.719 -9.53,-21.25 -21.24,-21.25 -11.76,0 -21.26,9.531 -21.26,21.25 0,11.761 9.5,21.293 21.26,21.293 11.71,0 21.24,-9.532 21.24,-21.293 z"
         style="fill:#ff0000;fill-opacity:1;fill-rule:evenodd;stroke:none"
         id="path106"
         inkscape:connector-curvature="0" /><path
         d="m 1858.12,185.465 c 0,-11.711 -9.53,-21.25 -21.24,-21.25 -11.76,0 -21.26,9.539 -21.26,21.25 0,11.758 9.5,21.289 21.26,21.289 11.71,0 21.24,-9.531 21.24,-21.289 z"
         style="fill:#edb120;stroke:#edb120;stroke-width:6.375;stroke-linecap:butt;stroke-linejoin:miter;stroke-miterlimit:10;stroke-dasharray:none;stroke-opacity:1;fill-opacity:1"
         id="path108"
         inkscape:connector-curvature="0" /><path
         d="m 2296.33,185.469 c 0,-11.719 -9.53,-21.25 -21.25,-21.25 -11.76,0 -21.29,9.531 -21.29,21.25 0,11.761 9.53,21.293 21.29,21.293 11.72,0 21.25,-9.532 21.25,-21.293 z"
         style="fill:#ff0000;fill-opacity:1;fill-rule:evenodd;stroke:none"
         id="path110"
         inkscape:connector-curvature="0" /><path
         d="m 2296.33,185.465 c 0,-11.711 -9.53,-21.25 -21.25,-21.25 -11.76,0 -21.29,9.539 -21.29,21.25 0,11.758 9.53,21.289 21.29,21.289 11.72,0 21.25,-9.531 21.25,-21.289 z"
         style="fill:#edb120;stroke:#edb120;stroke-width:6.375;stroke-linecap:butt;stroke-linejoin:miter;stroke-miterlimit:10;stroke-dasharray:none;stroke-opacity:1;fill-opacity:1"
         id="path112"
         inkscape:connector-curvature="0" /><path
         d="m 2105.08,185.469 c 0,-11.719 -9.53,-21.25 -21.25,-21.25 -11.76,0 -21.29,9.531 -21.29,21.25 0,11.761 9.53,21.293 21.29,21.293 11.72,0 21.25,-9.532 21.25,-21.293 z"
         style="fill:#ff0000;fill-opacity:1;fill-rule:evenodd;stroke:none"
         id="path114"
         inkscape:connector-curvature="0" /><path
         d="m 2105.08,185.465 c 0,-11.711 -9.53,-21.25 -21.25,-21.25 -11.76,0 -21.29,9.539 -21.29,21.25 0,11.758 9.53,21.289 21.29,21.289 11.72,0 21.25,-9.531 21.25,-21.289 z"
         style="fill:#edb120;stroke:#edb120;stroke-width:6.375;stroke-linecap:butt;stroke-linejoin:miter;stroke-miterlimit:10;stroke-dasharray:none;stroke-opacity:1;fill-opacity:1"
         id="path116"
         inkscape:connector-curvature="0" /><path
         d="m 846.211,185.469 c 0,-11.719 -9.531,-21.25 -21.289,-21.25 -11.723,0 -21.25,9.531 -21.25,21.25 0,11.761 9.527,21.293 21.25,21.293 11.758,0 21.289,-9.532 21.289,-21.293 z"
         style="fill:#ff0000;fill-opacity:1;fill-rule:evenodd;stroke:none"
         id="path118"
         inkscape:connector-curvature="0" /><path
         d="m 846.211,185.465 c 0,-11.711 -9.531,-21.25 -21.289,-21.25 -11.723,0 -21.25,9.539 -21.25,21.25 0,11.758 9.527,21.289 21.25,21.289 11.758,0 21.289,-9.531 21.289,-21.289 z"
         style="fill:#edb120;stroke:#edb120;stroke-width:6.375;stroke-linecap:butt;stroke-linejoin:miter;stroke-miterlimit:10;stroke-dasharray:none;stroke-opacity:1;fill-opacity:1"
         id="path120"
         inkscape:connector-curvature="0" /><path
         d="m 921.02,185.469 c 0,-11.719 -9.54,-21.25 -21.25,-21.25 -11.758,0 -21.29,9.531 -21.29,21.25 0,11.761 9.532,21.293 21.29,21.293 11.71,0 21.25,-9.532 21.25,-21.293 z"
         style="fill:#ff0000;fill-opacity:1;fill-rule:evenodd;stroke:none"
         id="path122"
         inkscape:connector-curvature="0" /><path
         d="m 921.02,185.465 c 0,-11.711 -9.54,-21.25 -21.25,-21.25 -11.758,0 -21.29,9.539 -21.29,21.25 0,11.758 9.532,21.289 21.29,21.289 11.71,0 21.25,-9.531 21.25,-21.289 z"
         style="fill:#edb120;stroke:#edb120;stroke-width:6.375;stroke-linecap:butt;stroke-linejoin:miter;stroke-miterlimit:10;stroke-dasharray:none;stroke-opacity:1;fill-opacity:1"
         id="path124"
         inkscape:connector-curvature="0" /><path
         d="m 978.398,185.469 c 0,-11.719 -9.527,-21.25 -21.289,-21.25 -11.718,0 -21.25,9.531 -21.25,21.25 0,11.761 9.532,21.293 21.25,21.293 11.762,0 21.289,-9.532 21.289,-21.293 z"
         style="fill:#ff0000;fill-opacity:1;fill-rule:evenodd;stroke:none"
         id="path126"
         inkscape:connector-curvature="0" /><path
         d="m 978.398,185.465 c 0,-11.711 -9.527,-21.25 -21.289,-21.25 -11.718,0 -21.25,9.539 -21.25,21.25 0,11.758 9.532,21.289 21.25,21.289 11.762,0 21.289,-9.531 21.289,-21.289 z"
         style="fill:#edb120;stroke:#edb120;stroke-width:6.375;stroke-linecap:butt;stroke-linejoin:miter;stroke-miterlimit:10;stroke-dasharray:none;stroke-opacity:1;fill-opacity:1"
         id="path128"
         inkscape:connector-curvature="0" /><g
         id="g130"><g
           id="g132"
           clip-path="url(#clipPath134)"><g
             id="g138"
             clip-path="url(#clipPath140)"><g
               id="g144"
               clip-path="url(#clipPath146)"><g
                 id="g150"
                 clip-path="url(#clipPath152)"><g
                   id="g156"
                   clip-path="url(#clipPath158)"><g
                     id="g162"
                     transform="scale(0.604065,1.39594)"><path
                       d="m 1407.85,82.4912 0.58,-0.2799 1.49,-0.3078 2.32,-0.8647 4.08,-1.1752 5.23,-1.735 7.31,-2.0707 8.48,-2.6052 10.21,-3.2181 11.71,-3.4951 12.54,-3.8057 13.71,-3.8085 14.04,-4.0855 14.28,-4.3625 14.62,-4.0884 14.3,-3.8056 14.02,-3.8029 13.39,-3.775 13.19,-3.2236 12.23,-3.218 11.96,-2.6277 11.38,-2.6304 10.54,-2.3197 10.21,-1.7714 9.64,-1.7321 9.31,-1.4551 8.8,-1.1753 8.47,-0.8647 8.14,-0.8955 8.22,-0.5876 7.89,-0.2798 16.62,0 8.47,0.5876 8.73,0.5877 8.79,0.8646 8.74,1.4551 9.04,1.4552 9.38,2.0399 9.64,2.359 10.22,2.6276 10.47,2.9102 10.8,3.2153 11.38,3.8113 11.96,4.0827 24.58,8.7335 12.22,4.6704 12.29,4.9781 11.96,4.6788 10.8,4.3626 9.96,4.0827 16.03,6.4389 5.56,2.3226 8.73,3.8029"
                       style="fill:none;stroke:url(#pattern168);stroke-width:8.16746044;stroke-linecap:butt;stroke-linejoin:miter;stroke-miterlimit:4;stroke-dasharray:none;stroke-opacity:1"
                       id="path178"
                       inkscape:connector-curvature="0" /></g></g></g></g></g></g></g><path
         d="m 1131.64,95.0391 45.16,26.2499 -27.46,-44.6484 -8.79,8.9805 -8.91,9.418 z"
         style="fill:#ff00ff;fill-opacity:1;fill-rule:evenodd;stroke:none"
         id="path180"
         inkscape:connector-curvature="0" /><path
         d="m 1131.64,95.0352 45.16,26.2498 -27.46,-44.6405 -8.79,8.9805 -8.91,9.4102 z"
         style="fill:none;stroke:#19001d;stroke-width:19.13439941;stroke-linecap:butt;stroke-linejoin:miter;stroke-miterlimit:10;stroke-dasharray:none;stroke-opacity:1"
         id="path182"
         inkscape:connector-curvature="0" /><path
         d="m 1003.44,283.672 0.43,0 1.29,0.43 3.39,1.293 5.55,2.109 8.05,3 9.37,3.359 10.63,3.871 20.43,7.618 8.9,3.433 8.52,3.789 7.66,3.008 18.71,9.34 11.05,6.793 5.12,3.398 11.05,8.52 5.08,4.691 5.55,5.11 5.51,5.507 5.11,5.981 5.08,6.793 4.69,6.797 4.69,7.23 4.25,7.653 4.26,8.089 3.83,8.09 3.4,8.469 3.4,8.949 2.54,7.223 2.14,7.226 2.11,7.661 2.54,8.511 2.15,8.481 4.26,18.711 2.11,10.23 2.11,10.629 4.26,22.109 1.72,11.481 2.1,11.488 1.72,11.481 1.68,11.922 1.72,11.437 1.72,11.922 1.25,11.051 1.72,11.48 1.29,11.488 2.54,22.11 2.54,24.691 0.86,12.731 5.11,51.047 2.54,24.652 0.86,11.059 1.25,10.621 1.29,10.238 0.86,8.473 1.25,7.66 0.86,6.797 0.86,5.113 1.25,4.258 0.86,2.539 0.86,1.722 0.86,0 0.86,-0.859 0.82,-2.543 0.86,-3.398 0.85,-5.11 1.29,-5.941 0.82,-7.27 0.86,-8.039 1.29,-9.383 0.86,-10.187 1.25,-10.629 0.86,-11.051 0.86,-11.922 1.25,-11.91 0.86,-11.488 0.86,-11.91 1.29,-11.492 1.68,-22.098 0.86,-10.199 0.86,-9.77 0.82,-10.66 1.29,-9.773 0.86,-10.188 0.86,-9.379 1.25,-9.762 1.28,-9.378 0.86,-8.903 1.29,-9.379 1.25,-8.898 0.86,-8.524 1.29,-8.507 0.82,-8.09 1.29,-8.051 1.29,-7.648 1.68,-14.461 1.29,-7.262 0.86,-7.617 0.86,-7.27 1.25,-7.652 0.86,-7.621 2.54,-17.028 1.71,-8.519 3.4,-17.852 4.26,-17.851 2.54,-8.938 2.54,-8.519 2.97,-8.051 3.44,-7.652 3.39,-7.227 3.4,-6.84 4.26,-6.363 4.22,-5.938 4.26,-5.55 5.11,-5.5 5.94,-5.121 6.41,-5.079 7.22,-5.121 8.09,-5.539 9.34,-5.082 10.19,-5.551 22.97,-11.476 11.48,-5.512 11.49,-4.691 9.76,-4.688 8.09,-3.39 5.55,-2.11 2.97,-1.722 1.71,-0.43"
         style="fill:none;stroke:#d95319;stroke-width:7.5;stroke-linecap:butt;stroke-linejoin:miter;stroke-miterlimit:10;stroke-dasharray:none;stroke-opacity:1"
         id="path184"
         inkscape:connector-curvature="0" /></g></g></svg>