<?xml version="1.0" encoding="UTF-8" standalone="no"?>
<!-- Created with Inkscape (http://www.inkscape.org/) -->

<svg
   xmlns:dc="http://purl.org/dc/elements/1.1/"
   xmlns:cc="http://creativecommons.org/ns#"
   xmlns:rdf="http://www.w3.org/1999/02/22-rdf-syntax-ns#"
   xmlns:svg="http://www.w3.org/2000/svg"
   xmlns="http://www.w3.org/2000/svg"
   xmlns:sodipodi="http://sodipodi.sourceforge.net/DTD/sodipodi-0.dtd"
   xmlns:inkscape="http://www.inkscape.org/namespaces/inkscape"
   id="svg2"
   version="1.1"
   inkscape:version="0.91 r13725"
   xml:space="preserve"
   width="680"
   height="665"
   viewBox="0 0 680 665"
   sodipodi:docname="taitbryan.svg"><metadata
     id="metadata8"><rdf:RDF><cc:Work
         rdf:about=""><dc:format>image/svg+xml</dc:format><dc:type
           rdf:resource="http://purl.org/dc/dcmitype/StillImage" /><dc:title></dc:title></cc:Work></rdf:RDF></metadata><defs
     id="defs6" /><sodipodi:namedview
     pagecolor="#ffffff"
     bordercolor="#666666"
     borderopacity="1"
     objecttolerance="10"
     gridtolerance="10"
     guidetolerance="10"
     inkscape:pageopacity="0"
     inkscape:pageshadow="2"
     inkscape:window-width="1272"
     inkscape:window-height="683"
     id="namedview4"
     showgrid="false"
     inkscape:zoom="0.8352872"
     inkscape:cx="400.52548"
     inkscape:cy="321.17609"
     inkscape:window-x="0"
     inkscape:window-y="0"
     inkscape:window-maximized="0"
     inkscape:current-layer="g10" /><g
     id="g10"
     inkscape:groupmode="layer"
     inkscape:label="taitbryan"
     transform="matrix(1.25,0,0,-1.25,0,665)"><g
       id="g12"><path
         d="M 0,0 544,0 544,532 0,532 0,0 Z"
         style="fill:#ffffff;fill-opacity:1;fill-rule:nonzero;stroke:none"
         id="path14"
         inkscape:connector-curvature="0" /><path
         d="m 25.199,180.398 c 0,83.067 115.332,150.403 257.602,150.403 142.269,0 257.597,-67.336 257.597,-150.403 C 540.398,97.336 425.07,30 282.801,30 140.531,30 25.199,97.336 25.199,180.398 Z"
         style="fill:none;stroke:#0072bd;stroke-width:1.60000002;stroke-linecap:butt;stroke-linejoin:round;stroke-miterlimit:4;stroke-dasharray:6.4, 6.40000000000000036;stroke-dashoffset:0;stroke-opacity:1"
         id="path16"
         inkscape:connector-curvature="0" /><path
         d="M 282.801,180.398 30.836,181.527"
         style="fill:none;stroke:#0072bd;stroke-width:2.4000001;stroke-linecap:butt;stroke-linejoin:round;stroke-miterlimit:4;stroke-dasharray:none;stroke-opacity:1"
         id="path18"
         inkscape:connector-curvature="0" /><path
         d="m 42.836,181.473 2.434,7.191 -19.235,-7.117 19.168,-7.285 -2.367,7.211 z"
         style="fill:#0072bd;fill-opacity:1;fill-rule:nonzero;stroke:none"
         id="path20"
         inkscape:connector-curvature="0" /><path
         d="M 191.473,39.77 C 110.461,149.316 85.68,301.09 136.117,378.758 c 50.438,77.668 157,51.824 238.012,-57.727"
         style="fill:#ffffff;fill-opacity:1;fill-rule:nonzero;stroke:#d95319;stroke-width:1.60000002;stroke-linecap:butt;stroke-linejoin:round;stroke-miterlimit:4;stroke-dasharray:6.4, 6.40000000000000036;stroke-dashoffset:0;stroke-opacity:1"
         id="path22"
         inkscape:connector-curvature="0" /><path
         d="m 192.969,41.363 90.777,141.028"
         style="fill:#000000;fill-opacity:1;fill-rule:nonzero;stroke:#000000;stroke-width:2.4000001;stroke-linecap:butt;stroke-linejoin:round;stroke-miterlimit:4;stroke-dasharray:14.4, 14.4;stroke-dashoffset:0;stroke-opacity:1"
         id="path24"
         inkscape:connector-curvature="0" /><path
         d="M 282.238,180.398 511.496,118.43"
         style="fill:#000000;fill-opacity:1;fill-rule:nonzero;stroke:#000000;stroke-width:2.4000001;stroke-linecap:butt;stroke-linejoin:round;stroke-miterlimit:4;stroke-dasharray:none;stroke-opacity:1"
         id="path26"
         inkscape:connector-curvature="0" /><g
         id="g28"
         transform="matrix(-1,0.270304,0.270304,1,0,532)"><path
           d="m -571.578,-256.567 4.631,-4.634 -16.217,4.633 16.218,4.636 -4.632,-4.635 z"
           style="fill:#000000;fill-opacity:1;fill-rule:evenodd;stroke:#000000;stroke-width:1.15842605;stroke-linecap:butt;stroke-linejoin:miter;stroke-miterlimit:4;stroke-dasharray:none;stroke-opacity:1"
           id="path30"
           inkscape:connector-curvature="0" /></g><path
         d="M 282.801,180.398 288.844,35.879"
         style="fill:none;stroke:#0072bd;stroke-width:2.4000001;stroke-linecap:butt;stroke-linejoin:round;stroke-miterlimit:4;stroke-dasharray:none;stroke-opacity:1"
         id="path32"
         inkscape:connector-curvature="0" /><path
         d="m 288.344,47.871 -7.293,2.094 7.996,-18.879 6.391,19.48 -7.094,-2.695 z"
         style="fill:#0072bd;fill-opacity:1;fill-rule:nonzero;stroke:none"
         id="path34"
         inkscape:connector-curvature="0" /><path
         d="m 284.805,138.418 c 25.601,-0.555 53.121,9.934 54.332,33.566 0.918,17.989 -10.051,32.934 -27.563,42.411"
         style="fill:none;stroke:#000000;stroke-width:2.4000001;stroke-linecap:butt;stroke-linejoin:round;stroke-miterlimit:4;stroke-dasharray:none;stroke-opacity:1"
         id="path36"
         inkscape:connector-curvature="0" /><path
         d="m 322.125,208.684 5.539,5.191 -20.312,2.805 13.46,-15.469 1.313,7.473 z"
         style="fill:#000000;fill-opacity:1;fill-rule:nonzero;stroke:none"
         id="path38"
         inkscape:connector-curvature="0" /><path
         d="M 282.801,180.398 470.621,307.93"
         style="fill:none;stroke:#d95319;stroke-width:2.4000001;stroke-linecap:butt;stroke-linejoin:round;stroke-miterlimit:4;stroke-dasharray:none;stroke-opacity:1"
         id="path40"
         inkscape:connector-curvature="0" /><path
         d="m 460.695,301.191 2.059,-7.304 11.84,16.738 -19.93,-4.828 6.031,-4.606 z"
         style="fill:#d95319;fill-opacity:1;fill-rule:nonzero;stroke:none"
         id="path42"
         inkscape:connector-curvature="0" /><path
         d="m 282.801,180.398 -114.403,224"
         style="fill:none;stroke:#d95319;stroke-width:2.4000001;stroke-linecap:butt;stroke-linejoin:round;stroke-miterlimit:4;stroke-dasharray:none;stroke-opacity:1"
         id="path44"
         inkscape:connector-curvature="0" /><path
         d="m 173.859,393.715 7.504,1.137 -15.144,13.824 2.32,-20.375 5.32,5.414 z"
         style="fill:#d95319;fill-opacity:1;fill-rule:nonzero;stroke:none"
         id="path46"
         inkscape:connector-curvature="0" /><path
         d="M 282.801,180.398 143.863,137.105"
         style="fill:none;stroke:#d95319;stroke-width:2.4000001;stroke-linecap:butt;stroke-linejoin:round;stroke-miterlimit:4;stroke-dasharray:none;stroke-opacity:1"
         id="path48"
         inkscape:connector-curvature="0" /><path
         d="m 155.32,140.676 0.149,7.59 -16.188,-12.586 20.473,-1.164 -4.434,6.16 z"
         style="fill:#d95319;fill-opacity:1;fill-rule:nonzero;stroke:none"
         id="path50"
         inkscape:connector-curvature="0" /><path
         d="M 315.68,232.715 C 303.344,263.816 266.453,273.688 246,265.199"
         style="fill:none;stroke:#000000;stroke-width:2.4000001;stroke-linecap:butt;stroke-linejoin:round;stroke-miterlimit:4;stroke-dasharray:none;stroke-opacity:1"
         id="path52"
         inkscape:connector-curvature="0" /><path
         d="m 257.082,269.801 -0.539,7.566 -14.977,-14.008 20.493,0.711 -4.977,5.731 z"
         style="fill:#000000;fill-opacity:1;fill-rule:nonzero;stroke:none"
         id="path54"
         inkscape:connector-curvature="0" /><path
         d="m 374.711,156.297 c 3.66,25.523 0.461,45.805 -14.34,69.805"
         style="fill:none;stroke:#000000;stroke-width:2.4000001;stroke-linecap:butt;stroke-linejoin:round;stroke-miterlimit:4;stroke-dasharray:none;stroke-opacity:1"
         id="path56"
         inkscape:connector-curvature="0" /><path
         d="m 366.672,215.887 7.387,1.734 -16.207,12.567 3.949,-20.126 4.871,5.825 z"
         style="fill:#000000;fill-opacity:1;fill-rule:nonzero;stroke:none"
         id="path58"
         inkscape:connector-curvature="0" /><path
         d="m 282.801,180.398 0,253.5"
         style="fill:none;stroke:#0072bd;stroke-width:2.4000001;stroke-linecap:butt;stroke-linejoin:round;stroke-miterlimit:4;stroke-dasharray:none;stroke-opacity:1"
         id="path60"
         inkscape:connector-curvature="0" /><path
         d="M 282.801,421.898 290,419.5 l -7.199,19.199 -7.199,-19.199 7.199,2.398 z"
         style="fill:#0072bd;fill-opacity:1;fill-rule:nonzero;stroke:none"
         id="path62"
         inkscape:connector-curvature="0" /><path
         d="m 284.895,184.066 88.472,134.055"
         style="fill:none;stroke:#000000;stroke-width:2.36483788;stroke-linecap:butt;stroke-linejoin:miter;stroke-miterlimit:2.5;stroke-dasharray:none;stroke-opacity:1"
         id="path64"
         inkscape:connector-curvature="0" /><g
         id="g66"
         transform="matrix(-0.659983,-1,1,-0.659983,0,532)"><path
           d="m -14.767,358.41 3.946,-3.95 -13.816,3.948 13.817,3.947 -3.947,-3.945 z"
           style="fill:#000000;fill-opacity:1;fill-rule:evenodd;stroke:#000000;stroke-width:0.986866;stroke-linecap:butt;stroke-linejoin:miter;stroke-miterlimit:4;stroke-dasharray:none;stroke-opacity:1"
           id="path68"
           inkscape:connector-curvature="0" /></g></g></g></svg>