<?xml version="1.0" encoding="UTF-8" standalone="no"?>
<!-- Created with Inkscape (http://www.inkscape.org/) -->

<svg
   xmlns:dc="http://purl.org/dc/elements/1.1/"
   xmlns:cc="http://creativecommons.org/ns#"
   xmlns:rdf="http://www.w3.org/1999/02/22-rdf-syntax-ns#"
   xmlns:svg="http://www.w3.org/2000/svg"
   xmlns="http://www.w3.org/2000/svg"
   xmlns:sodipodi="http://sodipodi.sourceforge.net/DTD/sodipodi-0.dtd"
   xmlns:inkscape="http://www.inkscape.org/namespaces/inkscape"
   id="svg2"
   version="1.1"
   inkscape:version="0.91 r13725"
   xml:space="preserve"
   width="990"
   height="765"
   viewBox="0 0 990 765"
   sodipodi:docname="unscented_transform_schematic.svg"><metadata
     id="metadata8"><rdf:RDF><cc:Work
         rdf:about=""><dc:format>image/svg+xml</dc:format><dc:type
           rdf:resource="http://purl.org/dc/dcmitype/StillImage" /><dc:title></dc:title></cc:Work></rdf:RDF></metadata><defs
     id="defs6"><clipPath
       clipPathUnits="userSpaceOnUse"
       id="clipPath230"><path
         d="m 55.5,316.5 15,0 0,18.75 -15,0 0,-18.75 z"
         id="path232"
         inkscape:connector-curvature="0" /></clipPath><clipPath
       clipPathUnits="userSpaceOnUse"
       id="clipPath252"><path
         d="m 72.75,213.75 22.5,0 0,24 -22.5,0 0,-24 z"
         id="path254"
         inkscape:connector-curvature="0" /></clipPath><clipPath
       clipPathUnits="userSpaceOnUse"
       id="clipPath264"><path
         d="m 72.75,211.5 22.5,0 0,14.25 -22.5,0 0,-14.25 z"
         id="path266"
         inkscape:connector-curvature="0" /></clipPath><clipPath
       clipPathUnits="userSpaceOnUse"
       id="clipPath316"><path
         d="m 386.25,121.5 250.5,0 0,30 -250.5,0 0,-30 z"
         id="path318"
         inkscape:connector-curvature="0" /></clipPath><clipPath
       clipPathUnits="userSpaceOnUse"
       id="clipPath328"><path
         d="m 386.25,121.5 250.5,0 0,30 -250.5,0 0,-30 z"
         id="path330"
         inkscape:connector-curvature="0" /></clipPath><clipPath
       clipPathUnits="userSpaceOnUse"
       id="clipPath352"><path
         d="m 429,260.25 47.25,0 0,25.5 -47.25,0 0,-25.5 z"
         id="path354"
         inkscape:connector-curvature="0" /></clipPath><clipPath
       clipPathUnits="userSpaceOnUse"
       id="clipPath364"><path
         d="m 429,255.75 47.25,0 0,30 -47.25,0 0,-30 z"
         id="path366"
         inkscape:connector-curvature="0" /></clipPath><clipPath
       clipPathUnits="userSpaceOnUse"
       id="clipPath376"><path
         d="m 429,255.75 47.25,0 0,30 -47.25,0 0,-30 z"
         id="path378"
         inkscape:connector-curvature="0" /></clipPath><clipPath
       clipPathUnits="userSpaceOnUse"
       id="clipPath420"><path
         d="m 564,414 22.5,0 0,24 -22.5,0 0,-24 z"
         id="path422"
         inkscape:connector-curvature="0" /></clipPath><clipPath
       clipPathUnits="userSpaceOnUse"
       id="clipPath432"><path
         d="m 564,412.5 22.5,0 0,12.75 -22.5,0 0,-12.75 z"
         id="path434"
         inkscape:connector-curvature="0" /></clipPath><clipPath
       clipPathUnits="userSpaceOnUse"
       id="clipPath448"><path
         d="m 570.75,196.5 21.75,0 0,24 -21.75,0 0,-24 z"
         id="path450"
         inkscape:connector-curvature="0" /></clipPath><clipPath
       clipPathUnits="userSpaceOnUse"
       id="clipPath460"><path
         d="m 570.75,195 21.75,0 0,12.75 -21.75,0 0,-12.75 z"
         id="path462"
         inkscape:connector-curvature="0" /></clipPath><clipPath
       clipPathUnits="userSpaceOnUse"
       id="clipPath476"><path
         d="m 700.5,317.25 15,0 0,22.5 -15,0 0,-22.5 z"
         id="path478"
         inkscape:connector-curvature="0" /></clipPath><clipPath
       clipPathUnits="userSpaceOnUse"
       id="clipPath498"><path
         d="m 717.75,215.25 22.5,0 0,24.75 -22.5,0 0,-24.75 z"
         id="path500"
         inkscape:connector-curvature="0" /></clipPath><clipPath
       clipPathUnits="userSpaceOnUse"
       id="clipPath522"><path
         d="m 501,239.25 24,0 0,24 -24,0 0,-24 z"
         id="path524"
         inkscape:connector-curvature="0" /></clipPath><clipPath
       clipPathUnits="userSpaceOnUse"
       id="clipPath534"><path
         d="m 501,237.75 24,0 0,12.75 -24,0 0,-12.75 z"
         id="path536"
         inkscape:connector-curvature="0" /></clipPath></defs><sodipodi:namedview
     pagecolor="#ffffff"
     bordercolor="#666666"
     borderopacity="1"
     objecttolerance="10"
     gridtolerance="10"
     guidetolerance="10"
     inkscape:pageopacity="0"
     inkscape:pageshadow="2"
     inkscape:window-width="1278"
     inkscape:window-height="694"
     id="namedview4"
     showgrid="false"
     inkscape:zoom="1.0845393"
     inkscape:cx="559.15282"
     inkscape:cy="335.20469"
     inkscape:window-x="0"
     inkscape:window-y="0"
     inkscape:window-maximized="0"
     inkscape:current-layer="g10" /><g
     id="g10"
     inkscape:groupmode="layer"
     inkscape:label="The Unscented Particle Filter Presentation"
     transform="matrix(1.25,0,0,-1.25,0,765)"><path
       d="m 292.5,321.75 1.5,0 0,1.5 -1.5,0 0,-1.5 z"
       style="fill:#000000;fill-opacity:1;fill-rule:nonzero;stroke:none"
       id="path14"
       inkscape:connector-curvature="0" /><path
       d="m 292.5,318.75 1.5,0 0,1.5 -1.5,0 0,-1.5 z"
       style="fill:#000000;fill-opacity:1;fill-rule:nonzero;stroke:none"
       id="path16"
       inkscape:connector-curvature="0" /><path
       d="m 292.5,315.75 1.5,0 0,1.5 -1.5,0 0,-1.5 z"
       style="fill:#000000;fill-opacity:1;fill-rule:nonzero;stroke:none"
       id="path18"
       inkscape:connector-curvature="0" /><path
       d="m 292.5,312.75 1.5,0 0,1.5 -1.5,0 0,-1.5 z"
       style="fill:#000000;fill-opacity:1;fill-rule:nonzero;stroke:none"
       id="path20"
       inkscape:connector-curvature="0" /><path
       d="m 292.5,309.75 1.5,0 0,1.5 -1.5,0 0,-1.5 z"
       style="fill:#000000;fill-opacity:1;fill-rule:nonzero;stroke:none"
       id="path22"
       inkscape:connector-curvature="0" /><path
       d="m 292.5,306.75 1.5,0 0,1.5 -1.5,0 0,-1.5 z"
       style="fill:#000000;fill-opacity:1;fill-rule:nonzero;stroke:none"
       id="path24"
       inkscape:connector-curvature="0" /><path
       d="m 292.5,303.75 1.5,0 0,1.5 -1.5,0 0,-1.5 z"
       style="fill:#000000;fill-opacity:1;fill-rule:nonzero;stroke:none"
       id="path26"
       inkscape:connector-curvature="0" /><path
       d="m 292.5,300.75 1.5,0 0,1.5 -1.5,0 0,-1.5 z"
       style="fill:#000000;fill-opacity:1;fill-rule:nonzero;stroke:none"
       id="path28"
       inkscape:connector-curvature="0" /><path
       d="m 292.5,297.75 1.5,0 0,1.5 -1.5,0 0,-1.5 z"
       style="fill:#000000;fill-opacity:1;fill-rule:nonzero;stroke:none"
       id="path30"
       inkscape:connector-curvature="0" /><path
       d="m 292.5,294.75 1.5,0 0,1.5 -1.5,0 0,-1.5 z"
       style="fill:#000000;fill-opacity:1;fill-rule:nonzero;stroke:none"
       id="path32"
       inkscape:connector-curvature="0" /><path
       d="m 292.5,291.75 1.5,0 0,1.5 -1.5,0 0,-1.5 z"
       style="fill:#000000;fill-opacity:1;fill-rule:nonzero;stroke:none"
       id="path34"
       inkscape:connector-curvature="0" /><path
       d="m 292.5,288.75 1.5,0 0,1.5 -1.5,0 0,-1.5 z"
       style="fill:#000000;fill-opacity:1;fill-rule:nonzero;stroke:none"
       id="path36"
       inkscape:connector-curvature="0" /><path
       d="m 292.5,285.75 1.5,0 0,1.5 -1.5,0 0,-1.5 z"
       style="fill:#000000;fill-opacity:1;fill-rule:nonzero;stroke:none"
       id="path38"
       inkscape:connector-curvature="0" /><path
       d="m 292.5,282.75 1.5,0 0,1.5 -1.5,0 0,-1.5 z"
       style="fill:#000000;fill-opacity:1;fill-rule:nonzero;stroke:none"
       id="path40"
       inkscape:connector-curvature="0" /><path
       d="m 292.5,279.75 1.5,0 0,1.5 -1.5,0 0,-1.5 z"
       style="fill:#000000;fill-opacity:1;fill-rule:nonzero;stroke:none"
       id="path42"
       inkscape:connector-curvature="0" /><path
       d="m 292.5,276.75 1.5,0 0,1.5 -1.5,0 0,-1.5 z"
       style="fill:#000000;fill-opacity:1;fill-rule:nonzero;stroke:none"
       id="path44"
       inkscape:connector-curvature="0" /><path
       d="m 292.5,273.75 1.5,0 0,1.5 -1.5,0 0,-1.5 z"
       style="fill:#000000;fill-opacity:1;fill-rule:nonzero;stroke:none"
       id="path46"
       inkscape:connector-curvature="0" /><path
       d="m 292.5,270.75 1.5,0 0,1.5 -1.5,0 0,-1.5 z"
       style="fill:#000000;fill-opacity:1;fill-rule:nonzero;stroke:none"
       id="path48"
       inkscape:connector-curvature="0" /><path
       d="m 292.5,267.75 1.5,0 0,1.5 -1.5,0 0,-1.5 z"
       style="fill:#000000;fill-opacity:1;fill-rule:nonzero;stroke:none"
       id="path50"
       inkscape:connector-curvature="0" /><path
       d="m 292.5,264.75 1.5,0 0,1.5 -1.5,0 0,-1.5 z"
       style="fill:#000000;fill-opacity:1;fill-rule:nonzero;stroke:none"
       id="path52"
       inkscape:connector-curvature="0" /><path
       d="m 292.5,261.75 1.5,0 0,1.5 -1.5,0 0,-1.5 z"
       style="fill:#000000;fill-opacity:1;fill-rule:nonzero;stroke:none"
       id="path54"
       inkscape:connector-curvature="0" /><path
       d="m 292.5,258.75 1.5,0 0,1.5 -1.5,0 0,-1.5 z"
       style="fill:#000000;fill-opacity:1;fill-rule:nonzero;stroke:none"
       id="path56"
       inkscape:connector-curvature="0" /><path
       d="m 292.5,255.75 1.5,0 0,1.5 -1.5,0 0,-1.5 z"
       style="fill:#000000;fill-opacity:1;fill-rule:nonzero;stroke:none"
       id="path58"
       inkscape:connector-curvature="0" /><path
       d="m 292.5,252.75 1.5,0 0,1.5 -1.5,0 0,-1.5 z"
       style="fill:#000000;fill-opacity:1;fill-rule:nonzero;stroke:none"
       id="path60"
       inkscape:connector-curvature="0" /><path
       d="m 292.5,249.75 1.5,0 0,1.5 -1.5,0 0,-1.5 z"
       style="fill:#000000;fill-opacity:1;fill-rule:nonzero;stroke:none"
       id="path62"
       inkscape:connector-curvature="0" /><path
       d="m 292.5,246.75 1.5,0 0,1.5 -1.5,0 0,-1.5 z"
       style="fill:#000000;fill-opacity:1;fill-rule:nonzero;stroke:none"
       id="path64"
       inkscape:connector-curvature="0" /><path
       d="m 292.5,243.75 1.5,0 0,1.5 -1.5,0 0,-1.5 z"
       style="fill:#000000;fill-opacity:1;fill-rule:nonzero;stroke:none"
       id="path66"
       inkscape:connector-curvature="0" /><path
       d="m 292.5,240.75 1.5,0 0,1.5 -1.5,0 0,-1.5 z"
       style="fill:#000000;fill-opacity:1;fill-rule:nonzero;stroke:none"
       id="path68"
       inkscape:connector-curvature="0" /><path
       d="m 292.5,237.75 1.5,0 0,1.5 -1.5,0 0,-1.5 z"
       style="fill:#000000;fill-opacity:1;fill-rule:nonzero;stroke:none"
       id="path70"
       inkscape:connector-curvature="0" /><path
       d="m 292.5,234.75 1.5,0 0,1.5 -1.5,0 0,-1.5 z"
       style="fill:#000000;fill-opacity:1;fill-rule:nonzero;stroke:none"
       id="path72"
       inkscape:connector-curvature="0" /><path
       d="m 292.5,231.75 1.5,0 0,1.5 -1.5,0 0,-1.5 z"
       style="fill:#000000;fill-opacity:1;fill-rule:nonzero;stroke:none"
       id="path74"
       inkscape:connector-curvature="0" /><path
       d="m 292.5,228.75 1.5,0 0,1.5 -1.5,0 0,-1.5 z"
       style="fill:#000000;fill-opacity:1;fill-rule:nonzero;stroke:none"
       id="path76"
       inkscape:connector-curvature="0" /><path
       d="m 292.5,225.75 1.5,0 0,1.5 -1.5,0 0,-1.5 z"
       style="fill:#000000;fill-opacity:1;fill-rule:nonzero;stroke:none"
       id="path78"
       inkscape:connector-curvature="0" /><path
       d="m 292.5,222.75 1.5,0 0,1.5 -1.5,0 0,-1.5 z"
       style="fill:#000000;fill-opacity:1;fill-rule:nonzero;stroke:none"
       id="path80"
       inkscape:connector-curvature="0" /><path
       d="m 292.5,219.75 1.5,0 0,1.5 -1.5,0 0,-1.5 z"
       style="fill:#000000;fill-opacity:1;fill-rule:nonzero;stroke:none"
       id="path82"
       inkscape:connector-curvature="0" /><path
       d="m 292.5,216.75 1.5,0 0,1.5 -1.5,0 0,-1.5 z"
       style="fill:#000000;fill-opacity:1;fill-rule:nonzero;stroke:none"
       id="path84"
       inkscape:connector-curvature="0" /><path
       d="m 292.5,213.75 1.5,0 0,1.5 -1.5,0 0,-1.5 z"
       style="fill:#000000;fill-opacity:1;fill-rule:nonzero;stroke:none"
       id="path86"
       inkscape:connector-curvature="0" /><path
       d="m 292.5,210.75 1.5,0 0,1.5 -1.5,0 0,-1.5 z"
       style="fill:#000000;fill-opacity:1;fill-rule:nonzero;stroke:none"
       id="path88"
       inkscape:connector-curvature="0" /><path
       d="M 288.75,210.75 294,201 l 4.5,9.75 -9.75,0"
       style="fill:#000000;fill-opacity:1;fill-rule:evenodd;stroke:none"
       id="path90"
       inkscape:connector-curvature="0" /><path
       d="m 330.75,321.75 1.5,0 0,1.5 -1.5,0 0,-1.5 z"
       style="fill:#000000;fill-opacity:1;fill-rule:nonzero;stroke:none"
       id="path92"
       inkscape:connector-curvature="0" /><path
       d="m 330.75,318.75 1.5,0 0,1.5 -1.5,0 0,-1.5 z"
       style="fill:#000000;fill-opacity:1;fill-rule:nonzero;stroke:none"
       id="path94"
       inkscape:connector-curvature="0" /><path
       d="m 330.75,315.75 1.5,0 0,1.5 -1.5,0 0,-1.5 z"
       style="fill:#000000;fill-opacity:1;fill-rule:nonzero;stroke:none"
       id="path96"
       inkscape:connector-curvature="0" /><path
       d="m 330.75,312.75 1.5,0 0,1.5 -1.5,0 0,-1.5 z"
       style="fill:#000000;fill-opacity:1;fill-rule:nonzero;stroke:none"
       id="path98"
       inkscape:connector-curvature="0" /><path
       d="m 330.75,309.75 1.5,0 0,1.5 -1.5,0 0,-1.5 z"
       style="fill:#000000;fill-opacity:1;fill-rule:nonzero;stroke:none"
       id="path100"
       inkscape:connector-curvature="0" /><path
       d="m 330.75,306.75 1.5,0 0,1.5 -1.5,0 0,-1.5 z"
       style="fill:#000000;fill-opacity:1;fill-rule:nonzero;stroke:none"
       id="path102"
       inkscape:connector-curvature="0" /><path
       d="m 330.75,303.75 1.5,0 0,1.5 -1.5,0 0,-1.5 z"
       style="fill:#000000;fill-opacity:1;fill-rule:nonzero;stroke:none"
       id="path104"
       inkscape:connector-curvature="0" /><path
       d="m 330.75,300.75 1.5,0 0,1.5 -1.5,0 0,-1.5 z"
       style="fill:#000000;fill-opacity:1;fill-rule:nonzero;stroke:none"
       id="path106"
       inkscape:connector-curvature="0" /><path
       d="m 330.75,297.75 1.5,0 0,1.5 -1.5,0 0,-1.5 z"
       style="fill:#000000;fill-opacity:1;fill-rule:nonzero;stroke:none"
       id="path108"
       inkscape:connector-curvature="0" /><path
       d="m 330.75,294.75 1.5,0 0,1.5 -1.5,0 0,-1.5 z"
       style="fill:#000000;fill-opacity:1;fill-rule:nonzero;stroke:none"
       id="path110"
       inkscape:connector-curvature="0" /><path
       d="m 330.75,291.75 1.5,0 0,1.5 -1.5,0 0,-1.5 z"
       style="fill:#000000;fill-opacity:1;fill-rule:nonzero;stroke:none"
       id="path112"
       inkscape:connector-curvature="0" /><path
       d="m 330.75,288.75 1.5,0 0,1.5 -1.5,0 0,-1.5 z"
       style="fill:#000000;fill-opacity:1;fill-rule:nonzero;stroke:none"
       id="path114"
       inkscape:connector-curvature="0" /><path
       d="m 330.75,285.75 1.5,0 0,1.5 -1.5,0 0,-1.5 z"
       style="fill:#000000;fill-opacity:1;fill-rule:nonzero;stroke:none"
       id="path116"
       inkscape:connector-curvature="0" /><path
       d="m 330.75,282.75 1.5,0 0,1.5 -1.5,0 0,-1.5 z"
       style="fill:#000000;fill-opacity:1;fill-rule:nonzero;stroke:none"
       id="path118"
       inkscape:connector-curvature="0" /><path
       d="m 330.75,279.75 1.5,0 0,1.5 -1.5,0 0,-1.5 z"
       style="fill:#000000;fill-opacity:1;fill-rule:nonzero;stroke:none"
       id="path120"
       inkscape:connector-curvature="0" /><path
       d="m 330.75,276.75 1.5,0 0,1.5 -1.5,0 0,-1.5 z"
       style="fill:#000000;fill-opacity:1;fill-rule:nonzero;stroke:none"
       id="path122"
       inkscape:connector-curvature="0" /><path
       d="m 330.75,273.75 1.5,0 0,1.5 -1.5,0 0,-1.5 z"
       style="fill:#000000;fill-opacity:1;fill-rule:nonzero;stroke:none"
       id="path124"
       inkscape:connector-curvature="0" /><path
       d="m 330.75,270.75 1.5,0 0,1.5 -1.5,0 0,-1.5 z"
       style="fill:#000000;fill-opacity:1;fill-rule:nonzero;stroke:none"
       id="path126"
       inkscape:connector-curvature="0" /><path
       d="m 330.75,267.75 1.5,0 0,1.5 -1.5,0 0,-1.5 z"
       style="fill:#000000;fill-opacity:1;fill-rule:nonzero;stroke:none"
       id="path128"
       inkscape:connector-curvature="0" /><path
       d="m 330.75,264.75 1.5,0 0,1.5 -1.5,0 0,-1.5 z"
       style="fill:#000000;fill-opacity:1;fill-rule:nonzero;stroke:none"
       id="path130"
       inkscape:connector-curvature="0" /><path
       d="m 330.75,261.75 1.5,0 0,1.5 -1.5,0 0,-1.5 z"
       style="fill:#000000;fill-opacity:1;fill-rule:nonzero;stroke:none"
       id="path132"
       inkscape:connector-curvature="0" /><path
       d="m 330.75,258.75 1.5,0 0,1.5 -1.5,0 0,-1.5 z"
       style="fill:#000000;fill-opacity:1;fill-rule:nonzero;stroke:none"
       id="path134"
       inkscape:connector-curvature="0" /><path
       d="m 330.75,255.75 1.5,0 0,1.5 -1.5,0 0,-1.5 z"
       style="fill:#000000;fill-opacity:1;fill-rule:nonzero;stroke:none"
       id="path136"
       inkscape:connector-curvature="0" /><path
       d="m 330.75,252.75 1.5,0 0,1.5 -1.5,0 0,-1.5 z"
       style="fill:#000000;fill-opacity:1;fill-rule:nonzero;stroke:none"
       id="path138"
       inkscape:connector-curvature="0" /><path
       d="m 330.75,249.75 1.5,0 0,1.5 -1.5,0 0,-1.5 z"
       style="fill:#000000;fill-opacity:1;fill-rule:nonzero;stroke:none"
       id="path140"
       inkscape:connector-curvature="0" /><path
       d="m 330.75,246.75 1.5,0 0,1.5 -1.5,0 0,-1.5 z"
       style="fill:#000000;fill-opacity:1;fill-rule:nonzero;stroke:none"
       id="path142"
       inkscape:connector-curvature="0" /><path
       d="m 330.75,243.75 1.5,0 0,1.5 -1.5,0 0,-1.5 z"
       style="fill:#000000;fill-opacity:1;fill-rule:nonzero;stroke:none"
       id="path144"
       inkscape:connector-curvature="0" /><path
       d="m 330.75,240.75 1.5,0 0,1.5 -1.5,0 0,-1.5 z"
       style="fill:#000000;fill-opacity:1;fill-rule:nonzero;stroke:none"
       id="path146"
       inkscape:connector-curvature="0" /><path
       d="m 330.75,237.75 1.5,0 0,1.5 -1.5,0 0,-1.5 z"
       style="fill:#000000;fill-opacity:1;fill-rule:nonzero;stroke:none"
       id="path148"
       inkscape:connector-curvature="0" /><path
       d="m 330.75,234.75 1.5,0 0,1.5 -1.5,0 0,-1.5 z"
       style="fill:#000000;fill-opacity:1;fill-rule:nonzero;stroke:none"
       id="path150"
       inkscape:connector-curvature="0" /><path
       d="m 330.75,231.75 1.5,0 0,1.5 -1.5,0 0,-1.5 z"
       style="fill:#000000;fill-opacity:1;fill-rule:nonzero;stroke:none"
       id="path152"
       inkscape:connector-curvature="0" /><path
       d="m 330.75,228.75 1.5,0 0,1.5 -1.5,0 0,-1.5 z"
       style="fill:#000000;fill-opacity:1;fill-rule:nonzero;stroke:none"
       id="path154"
       inkscape:connector-curvature="0" /><path
       d="m 330.75,225.75 1.5,0 0,1.5 -1.5,0 0,-1.5 z"
       style="fill:#000000;fill-opacity:1;fill-rule:nonzero;stroke:none"
       id="path156"
       inkscape:connector-curvature="0" /><path
       d="m 330.75,222.75 1.5,0 0,1.5 -1.5,0 0,-1.5 z"
       style="fill:#000000;fill-opacity:1;fill-rule:nonzero;stroke:none"
       id="path158"
       inkscape:connector-curvature="0" /><path
       d="m 330.75,219.75 1.5,0 0,1.5 -1.5,0 0,-1.5 z"
       style="fill:#000000;fill-opacity:1;fill-rule:nonzero;stroke:none"
       id="path160"
       inkscape:connector-curvature="0" /><path
       d="m 330.75,216.75 1.5,0 0,1.5 -1.5,0 0,-1.5 z"
       style="fill:#000000;fill-opacity:1;fill-rule:nonzero;stroke:none"
       id="path162"
       inkscape:connector-curvature="0" /><path
       d="m 330.75,213.75 1.5,0 0,1.5 -1.5,0 0,-1.5 z"
       style="fill:#000000;fill-opacity:1;fill-rule:nonzero;stroke:none"
       id="path164"
       inkscape:connector-curvature="0" /><path
       d="m 330.75,210.75 1.5,0 0,1.5 -1.5,0 0,-1.5 z"
       style="fill:#000000;fill-opacity:1;fill-rule:nonzero;stroke:none"
       id="path166"
       inkscape:connector-curvature="0" /><path
       d="m 327,210.75 4.5,-9.75 5.25,9.75 -9.75,0"
       style="fill:#000000;fill-opacity:1;fill-rule:evenodd;stroke:none"
       id="path168"
       inkscape:connector-curvature="0" /><path
       d="m 108,276 32.25,0"
       style="fill:none;stroke:#000000;stroke-width:0.75;stroke-linecap:round;stroke-linejoin:round;stroke-miterlimit:10;stroke-dasharray:none;stroke-opacity:1"
       id="path170"
       inkscape:connector-curvature="0" /><path
       d="m 138.75,271.5 8.25,4.5 -8.25,3.75 0,-8.25"
       style="fill:#000000;fill-opacity:1;fill-rule:evenodd;stroke:none"
       id="path172"
       inkscape:connector-curvature="0" /><path
       d="m 146.25,234 69.75,0 0,71.25 -69.75,0 0,-71.25 z"
       style="fill:none;stroke:#000000;stroke-width:0.75;stroke-linecap:round;stroke-linejoin:round;stroke-miterlimit:10;stroke-dasharray:none;stroke-opacity:1"
       id="path174"
       inkscape:connector-curvature="0" /><path
       d="m 215.25,270 25.5,0"
       style="fill:none;stroke:#000000;stroke-width:0.75;stroke-linecap:round;stroke-linejoin:round;stroke-miterlimit:10;stroke-dasharray:none;stroke-opacity:1"
       id="path186"
       inkscape:connector-curvature="0" /><path
       d="m 239.25,265.5 8.25,4.5 -8.25,3.75 0,-8.25"
       style="fill:#000000;fill-opacity:1;fill-rule:evenodd;stroke:none"
       id="path188"
       inkscape:connector-curvature="0" /><path
       d="m 215.25,270 25.5,0"
       style="fill:none;stroke:#000000;stroke-width:0.75;stroke-linecap:round;stroke-linejoin:round;stroke-miterlimit:10;stroke-dasharray:none;stroke-opacity:1"
       id="path190"
       inkscape:connector-curvature="0" /><path
       d="m 239.25,265.5 8.25,4.5 -8.25,3.75 0,-8.25"
       style="fill:#000000;fill-opacity:1;fill-rule:evenodd;stroke:none"
       id="path192"
       inkscape:connector-curvature="0" /><path
       d="m 79.5,372 159.75,0"
       style="fill:none;stroke:#000000;stroke-width:0.75;stroke-linecap:round;stroke-linejoin:round;stroke-miterlimit:10;stroke-dasharray:none;stroke-opacity:1"
       id="path194"
       inkscape:connector-curvature="0" /><path
       d="m 237.75,367.5 8.25,4.5 -8.25,3.75 0,-8.25"
       style="fill:#000000;fill-opacity:1;fill-rule:evenodd;stroke:none"
       id="path196"
       inkscape:connector-curvature="0" /><path
       d="m 246.75,231 133.5,0 0,77.25 -133.5,0 0,-77.25 z"
       style="fill:#ffffff;fill-opacity:1;fill-rule:nonzero;stroke:#000000;stroke-width:0.75;stroke-linecap:round;stroke-linejoin:round;stroke-miterlimit:10;stroke-dasharray:none;stroke-opacity:1"
       id="path198"
       inkscape:connector-curvature="0" /><path
       d="m 253.5,237 11.25,0 0,61.5 -11.25,0 0,-61.5 z"
       style="fill:none;stroke:#000000;stroke-width:0.75;stroke-linecap:round;stroke-linejoin:round;stroke-miterlimit:10;stroke-dasharray:none;stroke-opacity:1"
       id="path200"
       inkscape:connector-curvature="0" /><path
       d="m 264,237 12,0 0,61.5 -12,0 0,-61.5 z"
       style="fill:#ffff99;fill-opacity:1;fill-rule:nonzero;stroke:#000000;stroke-width:0.75;stroke-linecap:round;stroke-linejoin:round;stroke-miterlimit:10;stroke-dasharray:none;stroke-opacity:1"
       id="path202"
       inkscape:connector-curvature="0" /><path
       d="m 275.25,237 11.25,0 0,61.5 -11.25,0 0,-61.5 z"
       style="fill:#ffff99;fill-opacity:1;fill-rule:nonzero;stroke:#000000;stroke-width:0.75;stroke-linecap:round;stroke-linejoin:round;stroke-miterlimit:10;stroke-dasharray:none;stroke-opacity:1"
       id="path204"
       inkscape:connector-curvature="0" /><path
       d="m 285.75,237 12,0 0,61.5 -12,0 0,-61.5 z"
       style="fill:#ffff99;fill-opacity:1;fill-rule:nonzero;stroke:#000000;stroke-width:0.75;stroke-linecap:round;stroke-linejoin:round;stroke-miterlimit:10;stroke-dasharray:none;stroke-opacity:1"
       id="path206"
       inkscape:connector-curvature="0" /><path
       d="m 297,237 11.25,0 0,61.5 -11.25,0 0,-61.5 z"
       style="fill:#ffff99;fill-opacity:1;fill-rule:nonzero;stroke:#000000;stroke-width:0.75;stroke-linecap:round;stroke-linejoin:round;stroke-miterlimit:10;stroke-dasharray:none;stroke-opacity:1"
       id="path208"
       inkscape:connector-curvature="0" /><path
       d="m 307.5,237 12,0 0,61.5 -12,0 0,-61.5 z"
       style="fill:#ffff99;fill-opacity:1;fill-rule:nonzero;stroke:#000000;stroke-width:0.75;stroke-linecap:round;stroke-linejoin:round;stroke-miterlimit:10;stroke-dasharray:none;stroke-opacity:1"
       id="path210"
       inkscape:connector-curvature="0" /><path
       d="m 318.75,237 11.25,0 0,61.5 -11.25,0 0,-61.5 z"
       style="fill:#75ff75;fill-opacity:1;fill-rule:nonzero;stroke:#000000;stroke-width:0.75;stroke-linecap:round;stroke-linejoin:round;stroke-miterlimit:10;stroke-dasharray:none;stroke-opacity:1"
       id="path212"
       inkscape:connector-curvature="0" /><path
       d="m 329.25,237 12,0 0,61.5 -12,0 0,-61.5 z"
       style="fill:#75ff75;fill-opacity:1;fill-rule:nonzero;stroke:#000000;stroke-width:0.75;stroke-linecap:round;stroke-linejoin:round;stroke-miterlimit:10;stroke-dasharray:none;stroke-opacity:1"
       id="path214"
       inkscape:connector-curvature="0" /><path
       d="m 340.5,237 11.25,0 0,61.5 -11.25,0 0,-61.5 z"
       style="fill:#75ff75;fill-opacity:1;fill-rule:nonzero;stroke:#000000;stroke-width:0.75;stroke-linecap:round;stroke-linejoin:round;stroke-miterlimit:10;stroke-dasharray:none;stroke-opacity:1"
       id="path216"
       inkscape:connector-curvature="0" /><path
       d="m 351,237 12,0 0,61.5 -12,0 0,-61.5 z"
       style="fill:#75ff75;fill-opacity:1;fill-rule:nonzero;stroke:#000000;stroke-width:0.75;stroke-linecap:round;stroke-linejoin:round;stroke-miterlimit:10;stroke-dasharray:none;stroke-opacity:1"
       id="path218"
       inkscape:connector-curvature="0" /><path
       d="m 362.25,237 11.25,0 0,61.5 -11.25,0 0,-61.5 z"
       style="fill:#75ff75;fill-opacity:1;fill-rule:nonzero;stroke:#000000;stroke-width:0.75;stroke-linecap:round;stroke-linejoin:round;stroke-miterlimit:10;stroke-dasharray:none;stroke-opacity:1"
       id="path220"
       inkscape:connector-curvature="0" /><path
       d="m 57.75,341.25 11.25,0 0,58.5 -11.25,0 0,-58.5 z"
       style="fill:#00ccff;fill-opacity:1;fill-rule:nonzero;stroke:#000000;stroke-width:0.75;stroke-linecap:round;stroke-linejoin:round;stroke-miterlimit:10;stroke-dasharray:none;stroke-opacity:1"
       id="path222"
       inkscape:connector-curvature="0" /><path
       d="m 54,243.75 11.25,0 0,57.75 -11.25,0 0,-57.75 z"
       style="fill:#003300;fill-opacity:1;fill-rule:nonzero;stroke:#000000;stroke-width:0.75;stroke-linecap:round;stroke-linejoin:round;stroke-miterlimit:10;stroke-dasharray:none;stroke-opacity:1"
       id="path238"
       inkscape:connector-curvature="0" /><path
       d="m 64.5,243.75 11.25,0 0,57.75 -11.25,0 0,-57.75 z"
       style="fill:#003300;fill-opacity:1;fill-rule:nonzero;stroke:#000000;stroke-width:0.75;stroke-linecap:round;stroke-linejoin:round;stroke-miterlimit:10;stroke-dasharray:none;stroke-opacity:1"
       id="path240"
       inkscape:connector-curvature="0" /><path
       d="m 75,243.75 10.5,0 0,57.75 -10.5,0 0,-57.75 z"
       style="fill:#003300;fill-opacity:1;fill-rule:nonzero;stroke:#000000;stroke-width:0.75;stroke-linecap:round;stroke-linejoin:round;stroke-miterlimit:10;stroke-dasharray:none;stroke-opacity:1"
       id="path242"
       inkscape:connector-curvature="0" /><path
       d="m 84.75,243.75 11.25,0 0,57.75 -11.25,0 0,-57.75 z"
       style="fill:#003300;fill-opacity:1;fill-rule:nonzero;stroke:#000000;stroke-width:0.75;stroke-linecap:round;stroke-linejoin:round;stroke-miterlimit:10;stroke-dasharray:none;stroke-opacity:1"
       id="path244"
       inkscape:connector-curvature="0" /><path
       d="m 95.25,243.75 11.25,0 0,57.75 -11.25,0 0,-57.75 z"
       style="fill:#003300;fill-opacity:1;fill-rule:nonzero;stroke:#000000;stroke-width:0.75;stroke-linecap:round;stroke-linejoin:round;stroke-miterlimit:10;stroke-dasharray:none;stroke-opacity:1"
       id="path246"
       inkscape:connector-curvature="0" /><path
       d="m 539.25,333 103.5,0 0,71.25 -103.5,0 0,-71.25 z"
       style="fill:none;stroke:#000000;stroke-width:0.75;stroke-linecap:round;stroke-linejoin:round;stroke-miterlimit:10;stroke-dasharray:none;stroke-opacity:1"
       id="path344"
       inkscape:connector-curvature="0" /><path
       d="m 381.75,156.75 75.75,0"
       style="fill:none;stroke:#000000;stroke-width:0.75;stroke-linecap:round;stroke-linejoin:round;stroke-miterlimit:10;stroke-dasharray:none;stroke-opacity:1"
       id="path346"
       inkscape:connector-curvature="0" /><path
       d="m 419.25,234 70.5,0 0,71.25 -70.5,0 0,-71.25 z"
       style="fill:none;stroke:#000000;stroke-width:0.75;stroke-linecap:round;stroke-linejoin:round;stroke-miterlimit:10;stroke-dasharray:none;stroke-opacity:1"
       id="path384"
       inkscape:connector-curvature="0" /><path
       d="m 489,270 24.75,0"
       style="fill:none;stroke:#000000;stroke-width:0.75;stroke-linecap:round;stroke-linejoin:round;stroke-miterlimit:10;stroke-dasharray:none;stroke-opacity:1"
       id="path392"
       inkscape:connector-curvature="0" /><path
       d="m 513.75,372 19.5,0"
       style="fill:none;stroke:#000000;stroke-width:0.75;stroke-linecap:round;stroke-linejoin:round;stroke-miterlimit:10;stroke-dasharray:none;stroke-opacity:1"
       id="path394"
       inkscape:connector-curvature="0" /><path
       d="m 531.75,367.5 8.25,4.5 -8.25,3.75 0,-8.25"
       style="fill:#000000;fill-opacity:1;fill-rule:evenodd;stroke:none"
       id="path396"
       inkscape:connector-curvature="0" /><path
       d="m 513.75,372 0,-102 19.5,0"
       style="fill:none;stroke:#000000;stroke-width:0.75;stroke-linecap:round;stroke-linejoin:round;stroke-miterlimit:10;stroke-dasharray:none;stroke-opacity:1"
       id="path398"
       inkscape:connector-curvature="0" /><path
       d="m 531.75,265.5 8.25,4.5 -8.25,3.75 0,-8.25"
       style="fill:#000000;fill-opacity:1;fill-rule:evenodd;stroke:none"
       id="path400"
       inkscape:connector-curvature="0" /><path
       d="m 539.25,234 126.75,0 0,71.25 -126.75,0 0,-71.25 z"
       style="fill:none;stroke:#000000;stroke-width:0.75;stroke-linecap:round;stroke-linejoin:round;stroke-miterlimit:10;stroke-dasharray:none;stroke-opacity:1"
       id="path402"
       inkscape:connector-curvature="0" /><path
       d="m 589.5,436.5 0,-26.25"
       style="fill:none;stroke:#000000;stroke-width:0.75;stroke-linecap:round;stroke-linejoin:round;stroke-miterlimit:10;stroke-dasharray:none;stroke-opacity:1"
       id="path412"
       inkscape:connector-curvature="0" /><path
       d="m 585.75,411.75 3.75,-8.25 4.5,8.25 -8.25,0"
       style="fill:#000000;fill-opacity:1;fill-rule:evenodd;stroke:none"
       id="path414"
       inkscape:connector-curvature="0" /><path
       d="m 595.5,225.75 0,-26.25"
       style="fill:none;stroke:#000000;stroke-width:0.75;stroke-linecap:round;stroke-linejoin:round;stroke-miterlimit:10;stroke-dasharray:none;stroke-opacity:1"
       id="path440"
       inkscape:connector-curvature="0" /><path
       d="m 600,223.5 -4.5,7.5 -3.75,-7.5 8.25,0"
       style="fill:#000000;fill-opacity:1;fill-rule:evenodd;stroke:none"
       id="path442"
       inkscape:connector-curvature="0" /><path
       d="m 702.75,342.75 11.25,0 0,58.5 -11.25,0 0,-58.5 z"
       style="fill:#008080;fill-opacity:1;fill-rule:nonzero;stroke:#000000;stroke-width:0.75;stroke-linecap:round;stroke-linejoin:round;stroke-miterlimit:10;stroke-dasharray:none;stroke-opacity:1"
       id="path468"
       inkscape:connector-curvature="0" /><path
       d="m 699,243.75 11.25,0 0,57.75 -11.25,0 0,-57.75 z"
       style="fill:#ff0038;fill-opacity:1;fill-rule:nonzero;stroke:#000000;stroke-width:0.75;stroke-linecap:round;stroke-linejoin:round;stroke-miterlimit:10;stroke-dasharray:none;stroke-opacity:1"
       id="path484"
       inkscape:connector-curvature="0" /><path
       d="m 709.5,243.75 11.25,0 0,57.75 -11.25,0 0,-57.75 z"
       style="fill:#ff0038;fill-opacity:1;fill-rule:nonzero;stroke:#000000;stroke-width:0.75;stroke-linecap:round;stroke-linejoin:round;stroke-miterlimit:10;stroke-dasharray:none;stroke-opacity:1"
       id="path486"
       inkscape:connector-curvature="0" /><path
       d="m 720,243.75 10.5,0 0,57.75 -10.5,0 0,-57.75 z"
       style="fill:#ff0038;fill-opacity:1;fill-rule:nonzero;stroke:#000000;stroke-width:0.75;stroke-linecap:round;stroke-linejoin:round;stroke-miterlimit:10;stroke-dasharray:none;stroke-opacity:1"
       id="path488"
       inkscape:connector-curvature="0" /><path
       d="m 729.75,243.75 11.25,0 0,57.75 -11.25,0 0,-57.75 z"
       style="fill:#ff0038;fill-opacity:1;fill-rule:nonzero;stroke:#000000;stroke-width:0.75;stroke-linecap:round;stroke-linejoin:round;stroke-miterlimit:10;stroke-dasharray:none;stroke-opacity:1"
       id="path490"
       inkscape:connector-curvature="0" /><path
       d="m 740.25,243.75 11.25,0 0,57.75 -11.25,0 0,-57.75 z"
       style="fill:#ff0038;fill-opacity:1;fill-rule:nonzero;stroke:#000000;stroke-width:0.75;stroke-linecap:round;stroke-linejoin:round;stroke-miterlimit:10;stroke-dasharray:none;stroke-opacity:1"
       id="path492"
       inkscape:connector-curvature="0" /><path
       d="m 665.25,270 25.5,0"
       style="fill:none;stroke:#000000;stroke-width:0.75;stroke-linecap:round;stroke-linejoin:round;stroke-miterlimit:10;stroke-dasharray:none;stroke-opacity:1"
       id="path510"
       inkscape:connector-curvature="0" /><path
       d="m 689.25,265.5 8.25,4.5 -8.25,3.75 0,-8.25"
       style="fill:#000000;fill-opacity:1;fill-rule:evenodd;stroke:none"
       id="path512"
       inkscape:connector-curvature="0" /><path
       d="m 646.5,372 44.25,0"
       style="fill:none;stroke:#000000;stroke-width:0.75;stroke-linecap:round;stroke-linejoin:round;stroke-miterlimit:10;stroke-dasharray:none;stroke-opacity:1"
       id="path514"
       inkscape:connector-curvature="0" /><path
       d="m 689.25,367.5 8.25,4.5 -8.25,3.75 0,-8.25"
       style="fill:#000000;fill-opacity:1;fill-rule:evenodd;stroke:none"
       id="path516"
       inkscape:connector-curvature="0" /><path
       d="m 246.75,328.5 133.5,0 0,78 -133.5,0 0,-78 z"
       style="fill:none;stroke:#000000;stroke-width:0.75;stroke-linecap:round;stroke-linejoin:round;stroke-miterlimit:10;stroke-dasharray:none;stroke-opacity:1"
       id="path542"
       inkscape:connector-curvature="0" /><path
       d="m 253.5,335.25 11.25,0 0,61.5 -11.25,0 0,-61.5 z"
       style="fill:#00ccff;fill-opacity:1;fill-rule:nonzero;stroke:#000000;stroke-width:0.75;stroke-linecap:round;stroke-linejoin:round;stroke-miterlimit:10;stroke-dasharray:none;stroke-opacity:1"
       id="path544"
       inkscape:connector-curvature="0" /><path
       d="m 264,335.25 12,0 0,61.5 -12,0 0,-61.5 z"
       style="fill:#00ccff;fill-opacity:1;fill-rule:nonzero;stroke:#000000;stroke-width:0.75;stroke-linecap:round;stroke-linejoin:round;stroke-miterlimit:10;stroke-dasharray:none;stroke-opacity:1"
       id="path546"
       inkscape:connector-curvature="0" /><path
       d="m 275.25,335.25 11.25,0 0,61.5 -11.25,0 0,-61.5 z"
       style="fill:#00ccff;fill-opacity:1;fill-rule:nonzero;stroke:#000000;stroke-width:0.75;stroke-linecap:round;stroke-linejoin:round;stroke-miterlimit:10;stroke-dasharray:none;stroke-opacity:1"
       id="path548"
       inkscape:connector-curvature="0" /><path
       d="m 285.75,335.25 12,0 0,61.5 -12,0 0,-61.5 z"
       style="fill:#00ccff;fill-opacity:1;fill-rule:nonzero;stroke:#000000;stroke-width:0.75;stroke-linecap:round;stroke-linejoin:round;stroke-miterlimit:10;stroke-dasharray:none;stroke-opacity:1"
       id="path550"
       inkscape:connector-curvature="0" /><path
       d="m 297,335.25 11.25,0 0,61.5 -11.25,0 0,-61.5 z"
       style="fill:#00ccff;fill-opacity:1;fill-rule:nonzero;stroke:#000000;stroke-width:0.75;stroke-linecap:round;stroke-linejoin:round;stroke-miterlimit:10;stroke-dasharray:none;stroke-opacity:1"
       id="path552"
       inkscape:connector-curvature="0" /><path
       d="m 307.5,335.25 12,0 0,61.5 -12,0 0,-61.5 z"
       style="fill:#00ccff;fill-opacity:1;fill-rule:nonzero;stroke:#000000;stroke-width:0.75;stroke-linecap:round;stroke-linejoin:round;stroke-miterlimit:10;stroke-dasharray:none;stroke-opacity:1"
       id="path554"
       inkscape:connector-curvature="0" /><path
       d="m 318.75,335.25 11.25,0 0,61.5 -11.25,0 0,-61.5 z"
       style="fill:#00ccff;fill-opacity:1;fill-rule:nonzero;stroke:#000000;stroke-width:0.75;stroke-linecap:round;stroke-linejoin:round;stroke-miterlimit:10;stroke-dasharray:none;stroke-opacity:1"
       id="path556"
       inkscape:connector-curvature="0" /><path
       d="m 329.25,335.25 12,0 0,61.5 -12,0 0,-61.5 z"
       style="fill:#00ccff;fill-opacity:1;fill-rule:nonzero;stroke:#000000;stroke-width:0.75;stroke-linecap:round;stroke-linejoin:round;stroke-miterlimit:10;stroke-dasharray:none;stroke-opacity:1"
       id="path558"
       inkscape:connector-curvature="0" /><path
       d="m 340.5,335.25 11.25,0 0,61.5 -11.25,0 0,-61.5 z"
       style="fill:#00ccff;fill-opacity:1;fill-rule:nonzero;stroke:#000000;stroke-width:0.75;stroke-linecap:round;stroke-linejoin:round;stroke-miterlimit:10;stroke-dasharray:none;stroke-opacity:1"
       id="path560"
       inkscape:connector-curvature="0" /><path
       d="m 351,335.25 12,0 0,61.5 -12,0 0,-61.5 z"
       style="fill:#00ccff;fill-opacity:1;fill-rule:nonzero;stroke:#000000;stroke-width:0.75;stroke-linecap:round;stroke-linejoin:round;stroke-miterlimit:10;stroke-dasharray:none;stroke-opacity:1"
       id="path562"
       inkscape:connector-curvature="0" /><path
       d="m 362.25,335.25 11.25,0 0,61.5 -11.25,0 0,-61.5 z"
       style="fill:#00ccff;fill-opacity:1;fill-rule:nonzero;stroke:#000000;stroke-width:0.75;stroke-linecap:round;stroke-linejoin:round;stroke-miterlimit:10;stroke-dasharray:none;stroke-opacity:1"
       id="path564"
       inkscape:connector-curvature="0" /><path
       d="m 246.75,117.75 133.5,0 0,77.25 -133.5,0 0,-77.25 z"
       style="fill:none;stroke:#000000;stroke-width:0.75;stroke-linecap:round;stroke-linejoin:round;stroke-miterlimit:10;stroke-dasharray:none;stroke-opacity:1"
       id="path572"
       inkscape:connector-curvature="0" /><path
       d="m 253.5,123.75 11.25,0 0,61.5 -11.25,0 0,-61.5 z"
       style="fill:#00ccff;fill-opacity:1;fill-rule:nonzero;stroke:#000000;stroke-width:0.75;stroke-linecap:round;stroke-linejoin:round;stroke-miterlimit:10;stroke-dasharray:none;stroke-opacity:1"
       id="path574"
       inkscape:connector-curvature="0" /><path
       d="m 264,123.75 12,0 0,61.5 -12,0 0,-61.5 z"
       style="fill:#ffff00;fill-opacity:1;fill-rule:nonzero;stroke:#000000;stroke-width:0.75;stroke-linecap:round;stroke-linejoin:round;stroke-miterlimit:10;stroke-dasharray:none;stroke-opacity:1"
       id="path576"
       inkscape:connector-curvature="0" /><path
       d="m 275.25,123.75 11.25,0 0,61.5 -11.25,0 0,-61.5 z"
       style="fill:#ffff00;fill-opacity:1;fill-rule:nonzero;stroke:#000000;stroke-width:0.75;stroke-linecap:round;stroke-linejoin:round;stroke-miterlimit:10;stroke-dasharray:none;stroke-opacity:1"
       id="path578"
       inkscape:connector-curvature="0" /><path
       d="m 285.75,123.75 12,0 0,61.5 -12,0 0,-61.5 z"
       style="fill:#ffff00;fill-opacity:1;fill-rule:nonzero;stroke:#000000;stroke-width:0.75;stroke-linecap:round;stroke-linejoin:round;stroke-miterlimit:10;stroke-dasharray:none;stroke-opacity:1"
       id="path580"
       inkscape:connector-curvature="0" /><path
       d="m 297,123.75 11.25,0 0,61.5 -11.25,0 0,-61.5 z"
       style="fill:#ffff00;fill-opacity:1;fill-rule:nonzero;stroke:#000000;stroke-width:0.75;stroke-linecap:round;stroke-linejoin:round;stroke-miterlimit:10;stroke-dasharray:none;stroke-opacity:1"
       id="path582"
       inkscape:connector-curvature="0" /><path
       d="m 307.5,123.75 12,0 0,61.5 -12,0 0,-61.5 z"
       style="fill:#ffff00;fill-opacity:1;fill-rule:nonzero;stroke:#000000;stroke-width:0.75;stroke-linecap:round;stroke-linejoin:round;stroke-miterlimit:10;stroke-dasharray:none;stroke-opacity:1"
       id="path584"
       inkscape:connector-curvature="0" /><path
       d="m 318.75,123.75 11.25,0 0,61.5 -11.25,0 0,-61.5 z"
       style="fill:#00ff00;fill-opacity:1;fill-rule:nonzero;stroke:#000000;stroke-width:0.75;stroke-linecap:round;stroke-linejoin:round;stroke-miterlimit:10;stroke-dasharray:none;stroke-opacity:1"
       id="path586"
       inkscape:connector-curvature="0" /><path
       d="m 329.25,123.75 12,0 0,61.5 -12,0 0,-61.5 z"
       style="fill:#00ff00;fill-opacity:1;fill-rule:nonzero;stroke:#000000;stroke-width:0.75;stroke-linecap:round;stroke-linejoin:round;stroke-miterlimit:10;stroke-dasharray:none;stroke-opacity:1"
       id="path588"
       inkscape:connector-curvature="0" /><path
       d="m 340.5,123.75 11.25,0 0,61.5 -11.25,0 0,-61.5 z"
       style="fill:#00ff00;fill-opacity:1;fill-rule:nonzero;stroke:#000000;stroke-width:0.75;stroke-linecap:round;stroke-linejoin:round;stroke-miterlimit:10;stroke-dasharray:none;stroke-opacity:1"
       id="path590"
       inkscape:connector-curvature="0" /><path
       d="m 351,123.75 12,0 0,61.5 -12,0 0,-61.5 z"
       style="fill:#00ff00;fill-opacity:1;fill-rule:nonzero;stroke:#000000;stroke-width:0.75;stroke-linecap:round;stroke-linejoin:round;stroke-miterlimit:10;stroke-dasharray:none;stroke-opacity:1"
       id="path592"
       inkscape:connector-curvature="0" /><path
       d="m 362.25,123.75 11.25,0 0,61.5 -11.25,0 0,-61.5 z"
       style="fill:#00ff00;fill-opacity:1;fill-rule:nonzero;stroke:#000000;stroke-width:0.75;stroke-linecap:round;stroke-linejoin:round;stroke-miterlimit:10;stroke-dasharray:none;stroke-opacity:1"
       id="path594"
       inkscape:connector-curvature="0" /><path
       d="m 457.5,221.25 0,-64.5"
       style="fill:none;stroke:#000000;stroke-width:0.75;stroke-linecap:round;stroke-linejoin:round;stroke-miterlimit:10;stroke-dasharray:none;stroke-opacity:1"
       id="path596"
       inkscape:connector-curvature="0" /><path
       d="m 462,219 -4.5,7.5 -3.75,-7.5 8.25,0"
       style="fill:#000000;fill-opacity:1;fill-rule:evenodd;stroke:none"
       id="path598"
       inkscape:connector-curvature="0" /></g></svg>