<?xml version="1.0" encoding="UTF-8" standalone="no"?>
<!-- Created with Inkscape (http://www.inkscape.org/) -->

<svg
   xmlns:osb="http://www.openswatchbook.org/uri/2009/osb"
   xmlns:dc="http://purl.org/dc/elements/1.1/"
   xmlns:cc="http://creativecommons.org/ns#"
   xmlns:rdf="http://www.w3.org/1999/02/22-rdf-syntax-ns#"
   xmlns:svg="http://www.w3.org/2000/svg"
   xmlns="http://www.w3.org/2000/svg"
   xmlns:sodipodi="http://sodipodi.sourceforge.net/DTD/sodipodi-0.dtd"
   xmlns:inkscape="http://www.inkscape.org/namespaces/inkscape"
   id="svg2"
   version="1.1"
   inkscape:version="0.91 r13725"
   xml:space="preserve"
   width="256.25"
   height="307.5"
   viewBox="0 0 256.25 307.5"
   sodipodi:docname="unscented_transform.svg"><metadata
     id="metadata8"><rdf:RDF><cc:Work
         rdf:about=""><dc:format>image/svg+xml</dc:format><dc:type
           rdf:resource="http://purl.org/dc/dcmitype/StillImage" /><dc:title></dc:title></cc:Work></rdf:RDF></metadata><defs
     id="defs6"><linearGradient
       id="linearGradient4262"
       osb:paint="solid"><stop
         style="stop-color:#000000;stop-opacity:1;"
         offset="0"
         id="stop4264" /></linearGradient><linearGradient
       id="linearGradient4256"
       osb:paint="solid"><stop
         style="stop-color:#000000;stop-opacity:1;"
         offset="0"
         id="stop4258" /></linearGradient><linearGradient
       id="linearGradient4250"
       osb:paint="solid"><stop
         style="stop-color:#000000;stop-opacity:1;"
         offset="0"
         id="stop4252" /></linearGradient><clipPath
       clipPathUnits="userSpaceOnUse"
       id="clipPath18"><path
         d="m 28,10 0,2420 1982,0 0,-2420 -1982,0 z"
         id="path20"
         inkscape:connector-curvature="0" /></clipPath><clipPath
       clipPathUnits="userSpaceOnUse"
       id="clipPath28"><path
         d="m 0,9.42969 2050,0 0,2450.00001 -2050,0 L 0,9.42969 Z"
         id="path30"
         inkscape:connector-curvature="0" /></clipPath></defs><sodipodi:namedview
     pagecolor="#ffffff"
     bordercolor="#666666"
     borderopacity="1"
     objecttolerance="10"
     gridtolerance="10"
     guidetolerance="10"
     inkscape:pageopacity="0"
     inkscape:pageshadow="2"
     inkscape:window-width="1282"
     inkscape:window-height="690"
     id="namedview4"
     showgrid="false"
     inkscape:zoom="16.212145"
     inkscape:cx="204.36848"
     inkscape:cy="147.12668"
     inkscape:window-x="0"
     inkscape:window-y="0"
     inkscape:window-maximized="0"
     inkscape:current-layer="g10" /><g
     id="g10"
     inkscape:groupmode="layer"
     inkscape:label="ink_ext_XXXXXX"
     transform="matrix(1.25,0,0,-1.25,0,307.5)"><g
       id="g12"
       transform="scale(0.1,0.1)"><g
         id="g14"><g
           id="g16"
           clip-path="url(#clipPath18)"><path
             d="m 28,10 1982,0 0,2420 -1982,0 0,-2420 z"
             style="fill:#ffffff;fill-opacity:1;fill-rule:nonzero;stroke:none"
             id="path22"
             inkscape:connector-curvature="0" /></g></g><g
         id="g24"><g
           id="g26"
           clip-path="url(#clipPath28)"><path
             d="m 327.66,2132.63 0,0 m 217.77,69.14 0,0 m -78.36,-34.06 0,0 M 260,2026.42 l 0,0 m 78.359,138.24 0,0 m 123.121,-39.14 0,0 m 202.5,152.46 0,0 m -191.832,-145.35 0,0 m -101.757,-161.09 0,0 m -110.391,92.5 0,0 m 313.949,70.12 0,0 m -119.57,129.61 0,0 m 60.031,-69.65 0,0 m -113.98,-25.39 0,0 m 169.41,23.36 0,0 m 192.351,67.11 0,0 m -260,-44.22 0,0 m 186.719,107.73 0,0 m -255.39,-266.8 0,0 m 28.468,-45.74 0,0 m 89.032,167.19 0,0 m 20.39,161.13 0,0 m -62.621,-154.53 0,0 m 123.633,47.77 0,0 m -23.402,-70.62 0,0 m -278.79,-98.09 0,0 m 83.911,83.87 0,0 m -267.621,-99.1 0,0 m 287,65.55 0,0 m 28.468,-42.19 0,0 m -1.008,15.74 0,0 m 298.668,275.98 0,0 m -410.628,-388.28 0,0 m 97.191,122.5 0,0 m 224.879,193.59 0,0 m -349.531,-165.66 0,0 m 184.179,181.44 0,0 m -243.707,-238.87 0,0 m 329.688,158.05 0,0 m -187.231,-48.28 0,0 m 220.821,-3.05 0,0 m -325.618,75.24 0,0 m 377.539,-53.36 0,0 m 4.059,72.15 0,0 m -177.578,-88.44 0,0 m -111.41,-51.33 0,0 m 193.32,180.94 0,0 m -86.48,-255.12 0,0 m -107.891,94.02 0,0 m -111.41,-88.43 0,0 m 73.789,-54.38 0,0 m 52.391,172.27 0,0 m 108.902,-86.92 0,0 m -210.66,15.28 0,0 m 342.929,114.33 0,0 m -1.531,38.13 0,0 m -254.41,-108.24 0,0 m 73.281,45.74 0,0 m -98.203,-204.34 0,0 m -189.258,-35.04 0,0 m 263.051,83.83 0,0 m -72.269,11.21 0,0 m 193.867,126.02 0,0 m 60.043,55.39 0,0 m 63.078,-195.16 0,0 m -75.309,109.3 0,0 m -185.703,-21.37 0,0 m 101.25,39.14 0,0 m -85.469,0 0,0 m -56.488,13.71 0,0 m 107.899,97.58 0,0 m -188.29,-272.38 0,0 m 86.489,222.07 0,0 m -171.449,-48.28 0,0 m 460.468,4.57 0,0 m -225.898,-108.75 0,0 m -3.078,153.98 0,0 m 171.476,137.74 0,0 m -296.129,-338.48 0,0 m 287.461,232.27 0,0 m 33.09,-83.87 0,0 m -282.39,-47.27 0,0 m 126.179,232.27 0,0 m 49.371,-116.92 0,0 m 35.121,-51.32 0,0 m -106.371,-90.94 0,0 m 24.918,-32.54 0,0 m -249.797,-4.57 0,0 m 209.098,23.87 0,0 m 44.301,22.38 0,0 m 71.211,81.29 0,0 m -56.492,-74.18 0,0 m 58.011,213.94 0,0 m 5.121,-55.89 0,0 m -119.57,-207.86 0,0 m 118.008,107.23 0,0 m 127.223,57.93 0,0 m -135.864,-70.12 0,0 m 128.711,32.5 0,0 m -301.211,-118.4 0,0 m 44.301,96.06 0,0 m -166.41,-96.56 0,0 m 50.902,-27.93 0,0 m -81.91,-49.34 0,0 m 210.617,133.17 0,0 m 15.282,4.57 0,0 m 176.05,171.79 0,0 m -84.449,-210.43 0,0 m -18.32,204.34 0,0 m -75.321,-143.32 0,0 m 95.668,61.99 0,0 m -157.226,-50.82 0,0 m 173.519,-119.92 0,0 m 28.981,203.28 0,0 m -220.313,-173.83 0,0 m 247.27,183.48 0,0 m 16.793,-78.28 0,0 m -96.684,-53.87 0,0 m -101.758,-82.3 0,0 m 153.68,228.67 0,0 m -121.609,-57.43 0,0 m 63.09,46.76 0,0 m -141.95,-163.12 0,0 m -306.8004,-177.38 0,0 m 172.9684,88.94 0,0 m 296.641,114.34 0,0 m -100.23,-26.92 0,0 m 48.82,20.82 0,0 m -104.289,12.7 0,0 m -26.449,-168.21 0,0 m 164.847,126.53 0,0 m -144.5,-11.68 0,0 m 268.129,169.76 0,0 m -182.148,-192.61 0,0 m 59.531,211.91 0,0 m -51.371,-145.35 0,0 m 5.082,44.22 0,0 m -281.371,-77.27 0,0 m 253.871,82.85 0,0 m 128.238,-31.48 0,0 m -23.39,131.09 0,0 m -178.598,-215.97 0,0 m 31.019,65.54 0,0 m 160.778,27.46 0,0 m -370.391,-98.59 0,0 m 166.371,112.31 0,0 m 295.11,42.18 0,0 m -276.289,6.1 0,0 m 122.109,23.9 0,0 m -56.988,-51.87 0,0 m -71.211,-155 0,0 m 21.371,82.85 0,0 m -6.602,8.63 0,0 m 226.403,143.83 0,0 m -285.43,-129.61 0,0 m 79.879,-15.23 0,0 m -2.531,39.65 0,0 m 17.769,-33.56 0,0 m 7.152,133.67 0,0 m 12.18,-137.22 0,0 m 58.008,102.65 0,0 m 92.621,20.35 0,0 m -143.48,-187.54 0,0 m -182.649,-48.78 0,0 m 149.059,187.03 0,0 m -233.008,-161.14 0,0 m 323.598,105.2 0,0 m -132.309,-52.85 0,0 m -36.641,-40.16 0,0 m 149.61,166.21 0,0 m 151.09,53.87 0,0 m -368.86,-129.61 0,0 m -35.121,-151.44 0,0 m 382.621,221.09 0,0 m 130.781,61.48 0,0 m -453.871,-186.01 0,0 m 227.93,83.36 0,0 m -219.301,39.65 0,0 m -95.109,-108.75 0,0 m 429.922,189.53 0,0 m -228.953,-144.85 0,0 m 209.613,0.55 0,0 m -219.801,-51.37 0,0 m 36.641,34.57 0,0 M 563.75,2279 l 0,0 m 139.922,61.52 0,0 m -257.461,-185.5 0,0 m 199.961,90.93 0,0 m -299.692,-164.14 0,0 m -34.058,-45.74 0,0 m 52.887,-36.56 0,0 m 42.742,171.76 0,0 m 107.89,24.92 0,0 m -104.851,-99.1 0,0 m -167.379,-26.45 0,0 m 375,130.12 0,0 m -91.602,7.62 0,0 m -42.73,-19.34 0,0 m -12.231,-84.34 0,0 m 34.102,6.1 0,0"
             style="fill:none;stroke:#00c4dd;stroke-width:4.0687499;stroke-linecap:round;stroke-linejoin:round;stroke-miterlimit:10;stroke-dasharray:none;stroke-opacity:1"
             id="path32"
             inkscape:connector-curvature="0" /><path
             d="m 623.281,2176.85 0,0 m -134.84,133.67 0,0 m -189.261,-192.11 0,0 m -58.52,-48.78 0,0 m 148.051,104.18 0,0 m 207.109,83.86 0,0 m -219.8,-158.04 0,0 m 217.769,65.03 0,0 m -68.199,136.22 0,0 m 195.89,-74.22 0,0 m -353.121,-131.64 0,0 m 264.063,179.41 0,0 m -297.621,-373.52 0,0 m 106.84,185.47 0,0 m 85.98,176.88 0,0 m 121.09,43.2 0,0 m -6.602,-109.76 0,0 M 379.57,2154 l 0,0 m -191.332,60.98 0,0 m 343.992,30.97 0,0 m 134.29,41.68 0,0 m -235.04,-107.22 0,0 m -182.691,-119.93 0,0 m 394.84,232.78 0,0 m -40.188,-54.38 0,0 m -195.902,-43.2 0,0 m 70.231,-3.09 0,0 m 132.781,127.58 0,0 m -105.321,-178.9 0,0 m -139.921,-64.54 0,0 m -166.36,-1.52 0,0 m 542.891,120.98 0,0 m -523.559,-255.16 0,0 m 309.34,322.74 0,0 m -428.9101,-428.44 0,0 m 498.1291,322.73 0,0 m -142.461,23.87 0,0 m 139.922,110.82 0,0 m 20.347,-12.23 0,0 m 101.762,24.93 0,0 m -198.949,-167.74 0,0 m -32.582,107.74 0,0 m -37.649,-119.93 0,0 m 219.29,0 0,0 m -53.399,19.85 0,0 m -158.742,-43.71 0,0 m 70.191,43.2 0,0 m -23.398,6.6 0,0 m -224.883,0.51 0,0 m 184.18,-16.29 0,0 m 209.609,90.47 0,0 m -142.457,-28.99 0,0 m -89.531,-61.99 0,0 m 34.058,14.77 0,0 m 45.313,81.29 0,0 m 14.769,36.6 0,0 m -86.019,-327.31 0,0 m 169.449,197.19 0,0 m -95.148,48.28 0,0 m -253.91,-138.75 0,0 m 247.308,81.84 0,0 m -38.172,-3.05 0,0 m -184.687,86.41 0,0 m -21.403,-158.56 0,0 m 318.512,217 0,0 m 68.719,43.2 0,0 m -465.59,-390.31 0,0 m 241.172,300.35 0,0 m 9.18,-162.11 0,0 m 31.058,90.47 0,0 m -330.238,-144.34 0,0 m 343.437,140.27 0,0 m 126.723,170.24 0,0 m -299.73,-140.78 0,0 m 95.16,16.25 0,0 m 220.82,47.81 0,0 M 512.34,2110.8 l 0,0 m -70.192,44.22 0,0 m -207.07,-88.95 0,0 m 409.063,214.45 0,0 m 51.41,-179.92 0,0 m -13.25,178.91 0,0 M 293.09,2031.5 l 0,0 m 298.121,161.09 0,0 m -123.633,12.74 0,0 m 104.801,103.67 0,0 m -240.66,-230.74 0,0 m 7.152,11.17 0,0 m 143.981,53.36 0,0 m -118.551,-38.09 0,0 m -67.153,17.78 0,0 m 213.161,187.54 0,0 m -139.411,-119.97 0,0 m 135.864,-14.21 0,0 m -178.09,-132.15 0,0 m 392.308,274.45 0,0 m -351.101,-266.29 0,0 m -56.988,71.13 0,0 m 314.449,106.22 0,0 m -32.031,106.21 0,0 m -43.789,-204.3 0,0 m 74.808,124.02 0,0 m -133.277,-132.65 0,0 m -85,147.89 0,0 M 405,2162.13 l 0,0 m 256.449,12.18 0,0 m -293.597,-72.65 0,0 m 9.687,67.07 0,0 m 71.211,-23.87 0,0 m 145.551,72.15 0,0 m 11.679,-72.7 0,0 m 141.442,135.71 0,0 m -220.313,-83.83 0,0 m 87.539,-42.7 0,0 M 456.41,2012.2 l 0,0 m 53.391,248.52 0,0 m -1.52,-173.83 0,0 M 405,2073.18 l 0,0 m 217.27,188.05 0,0 m 34.609,-58.95 0,0 m -158.25,-106.21 0,0 m -25.93,71.13 0,0 m -42.777,-19.8 0,0 m 36.637,67.07 0,0 m -53.899,-52.85 0,0 m -244.262,-170.28 0,0 m 308.364,108.29 0,0 m -117.543,82.81 0,0 m 242.191,-15.24 0,0 m 66.129,105.2 0,0 m 187.231,161.6 0,0 m -387.192,-338.98 0,0 m 221.332,119.96 0,0 m -167.89,-30 0,0 m -236.61,-98.6 0,0 m 76.84,142.82 0,0 m 28.98,-150.43 0,0 m 61.61,129.61 0,0 m -5.629,-9.65 0,0 m 6.129,-136.21 0,0 m -57.5,55.39 0,0 m 141.449,168.71 0,0 m 135.82,-127.03 0,0 m -410.078,-145.36 0,0 m 362.77,129.58 0,0 m -453.86,-151.45 0,0 m 420.778,135.19 0,0 m 24.961,12.7 0,0 m -482.852,-276.95 0,0 m 610.551,297.81 0,0 m -236.609,104.69 0,0 m -52.891,-105.71 0,0 m -58.508,-51.83 0,0 m 170.93,51.33 0,0 m -39.68,-68.13 0,0 m -253.359,-47.77 0,0 m 426.359,141.29 0,0 m -20.851,108.75 0,0 m -265.079,-329.3 0,0 m 1.52,252.07 0,0 m 119.57,-11.68 0,0 m -101.761,-22.38 0,0 m 1.019,-43.71 0,0 m 34.063,57.97 0,0 m 192.847,157.03 0,0 m -167.418,-147.39 0,0 m 55.469,31.49 0,0 m -58.98,11.21 0,0 m 262.031,-83.87 0,0 m -74.301,40.16 0,0 m -67.191,155.51 0,0 m -165.348,-188.56 0,0 m 250.859,11.17 0,0 m -106.871,14.26 0,0 m -228.437,-29.49 0,0 m 229.957,37.62 0,0 m -210.117,-129.11 0,0 m -51.372,-103.16 0,0 m 46.29,84.38 0,0 m 253.359,271.36 0,0 m -332.219,-211.4 0,0 m 214.219,41.17 0,0 m -124.688,17.77 0,0 m 130.27,34.06 0,0 m -71.25,-131.64 0,0 m -115.981,80.32 0,0 m 84.461,-21.88 0,0 m -25.98,-54.88 0,0 m 207.109,111.8 0,0 m -213.199,-15.75 0,0 m 13.75,-16.25 0,0 m -299.6913,-110.31 0,0 m 290.0003,12.23 0,0 m 40.199,33.51 0,0 m 97.18,170.78 0,0 m -76.829,2.54 0,0 m -31.019,-94.53 0,0 m -66.172,-107.73 0,0 m -44.769,60.97 0,0 m -60.04,-109.76 0,0"
             style="fill:none;stroke:#00c4dd;stroke-width:4.0687499;stroke-linecap:round;stroke-linejoin:round;stroke-miterlimit:10;stroke-dasharray:none;stroke-opacity:1"
             id="path34"
             inkscape:connector-curvature="0" /><path
             d="m 535.781,2288.65 0,0 m -98.711,-15.74 0,0 m -19.84,-181.96 0,0 m -362.7808,-181.91 0,0 m 546.9608,245.98 0,0 m -77.859,42.69 0,0 m -47.301,-38.63 0,0 m -8.16,18.79 0,0 m -161.289,-144.34 0,0 m 196.91,202.78 0,0 m 99.219,-19.81 0,0 m -153.668,-15.74 0,0 m 23.937,84.84 0,0 m -93.121,-163.63 0,0 m 27.461,27.97 0,0 m -66.129,27.42 0,0 m 355.66,38.63 0,0 m -173.519,-83.36 0,0 m 108.871,122 0,0 m -160.274,-33.05 0,0 m 73.282,138.24 0,0 m -208.59,-321.21 0,0 m 51.871,219.57 0,0 m 76.84,-174.34 0,0 m 142.969,111.84 0,0 m -143.989,-31.52 0,0 m 144.489,91.48 0,0 m -133.282,-60.51 0,0 m -14.258,51.88 0,0 m 63.09,-32.54 0,0 m -97.191,-214.96 0,0 m 250.351,266.8 0,0 m -197.929,-95.55 0,0 m 51.371,87.93 0,0 m 173.008,49.8 0,0 m -264.571,-113.86 0,0 m -377.5387,-217 0,0 m 478.2817,264.3 0,0 m 65.628,-63.05 0,0 m -135.359,16.25 0,0 m 164.379,72.7 0,0 m -78.359,-88.44 0,0 m -231.02,-1.52 0,0 m 238.641,-6.6 0,0 m 343.937,257.65 0,0 m -499.648,-397.93 0,0 m 130.789,147.39 0,0 m -57,-74.69 0,0 m 21.371,-23.4 0,0 m -132.813,82.34 0,0 m 26.481,107.23 0,0 m 226.922,80.31 0,0 m 97.179,59.46 0,0 m -217.261,-300.86 0,0 m 147.031,172.26 0,0 m -132.77,-92.5 0,0 m 14.719,75.74 0,0 m -140.898,-77.26 0,0 m -17.813,-99.61 0,0 m 358.172,76.76 0,0 m -162.308,-22.39 0,0 m -88.012,24.42 0,0 m -61.051,30.97 0,0 m 240.16,-50.27 0,0 m -225.398,-79.8 0,0 m 24.929,132.14 0,0 m -130.75,-99.6 0,0 m 447.231,320.66 0,0 m -351.602,-270.35 0,0 m 35.121,-83.36 0,0 m -116.019,34.57 0,0 m 43.75,62.5 0,0 m 169.961,73.67 0,0 m 228.949,9.69 0,0 m -6.601,-66.6 0,0 m -439.11,-131.14 0,0 m 250.82,109.81 0,0 m -58.468,-55.9 0,0 m -51.922,36.05 0,0 m -28.469,-33 0,0 m 166.867,172.77 0,0 m -83.437,-132.11 0,0 m -224.879,-102.19 0,0 m 100.238,62.54 0,0 m 60.539,97.58 0,0 m 117,131.6 0,0 m -172.469,-157.03 0,0 m 87,65.59 0,0 m -311.371,-176.37 0,0 m 352.582,91.99 0,0 m -40.203,-57.93 0,0 m 34.614,133.13 0,0 m 100.738,-142.82 0,0 m -104.801,66.61 0,0 m -100.238,22.85 0,0 m 11.679,-51.84 0,0 m 165.391,-17.77 0,0 m -253.902,-35.08 0,0 m 303.75,173.83 0,0 m -210.16,-31.02 0,0 m -155.149,-134.68 0,0 m 439.102,177.38 0,0 m -15.782,196.17 0,0 m -402.968,-342.03 0,0 m 277.808,-9.65 0,0 m 116.989,214.96 0,0 m -349.02,-222.11 0,0 m 278.32,223.63 0,0 m -76.328,-63 0,0 m -57.5,-139.26 0,0 m -61.562,48.79 0,0 m -13.199,-141.29 0,0 m -67.192,135.19 0,0 m 177.07,38.64 0,0 m -44.769,-54.42 0,0 m 125.16,43.71 0,0 m -89.527,-49.29 0,0 m -169.961,38.63 0,0 m 158.238,-19.3 0,0 m -143.988,-104.18 0,0 m 180.121,163.13 0,0 m -170.473,-107.74 0,0 m -14.719,-137.73 0,0 m 383.122,213.94 0,0 m -28.012,23.4 0,0 m -233,-1.01 0,0 m 51.871,-116.37 0,0 m -162.301,31.99 0,0 m 72.262,-33.04 0,0 m 97.187,65.07 0,0 m -194.879,-107.22 0,0 m 151.598,165.15 0,0 m -15.738,52.35 0,0 m -108.91,-234.3 0,0 m -4.571,220.59 0,0 m 88.512,-148.91 0,0 m -108.351,-26.44 0,0 m 222.851,50.31 0,0 m -203.012,-60.47 0,0 m -13.238,93.01 0,0 m 258.981,28.43 0,0 m -165.864,-4.06 0,0 m -123.629,-198.71 0,0 m -45.82,15.78 0,0 m 48.871,138.71 0,0 m 68.668,-1.99 0,0 M 260,2158.57 l 0,0 m 375.512,13.2 0,0 m -267.153,-194.14 0,0 m -137.379,28.48 0,0 m 313.43,222.58 0,0 m -29.488,-100.63 0,0 m -46.332,111.8 0,0 m -2.539,5.12 0,0 m 50.398,-17.82 0,0 m -41.219,-69.61 0,0 m -73.781,24.38 0,0 m -41.719,7.11 0,0 m 303.75,95.55 0,0 m -294.101,-198.71 0,0 m 179.601,24.41 0,0 m -100.23,116.87 0,0 m 143.52,-70.11 0,0 m 137.339,-11.68 0,0 m -374.449,-13.24 0,0 m 141.949,-10.67 0,0 m -51.41,27.42 0,0 m -17.808,3.6 0,0 m -183.161,67.07 0,0 m 292.571,-165.16 0,0 m 21.879,134.14 0,0 m -68.16,-82.3 0,0 m -110.43,-63.05 0,0 m 153.672,183.98 0,0 m -242.231,-230.74 0,0 m 83.481,-56.4 0,0 m -20.864,166.21 0,0 m -118.046,26.4 0,0 m 262.539,130.63 0,0 m 127.187,-95.55 0,0 m -172.457,-22.34 0,0 m 194.84,-8.67 0,0 m -294.063,-26.41 0,0 m 287.973,112.81 0,0 m -280.859,-46.25 0,0 m -248.793,-197.19 0,0 m 546.441,134.69 0,0 m -124.64,112.81 0,0 m -101.25,-119.41 0,0 m -26.489,-23.4 0,0 m -160.781,39.14 0,0 m 127.23,-5.08 0,0 m 141.95,182.47 0,0 m 15.23,-145.36 0,0 m -82.93,48.79 0,0 m 345.469,113.32 0,0 m -515.898,-239.88 0,0 m 204.539,45.23 0,0 m 48.82,171.25 0,0 m 123.68,-50.27 0,0"
             style="fill:none;stroke:#00c4dd;stroke-width:4.0687499;stroke-linecap:round;stroke-linejoin:round;stroke-miterlimit:10;stroke-dasharray:none;stroke-opacity:1"
             id="path36"
             inkscape:connector-curvature="0" /><path
             d="m 583.09,2250.05 0,0 m -181.141,-168.24 0,0 m 111.961,-36.05 0,0 m -118.051,40.12 0,0 m 49.34,20.85 0,0 m -212.148,71.65 0,0 m 292.539,107.73 0,0 m -45.789,-215.98 0,0 m -17.301,103.68 0,0 m -42.73,-45.75 0,0 m -146.02,0.51 0,0 m 231.988,83.36 0,0 m -64.097,-70.16 0,0 m 181.129,57.46 0,0 m 135.351,174.81 0,0 m -268.16,-188.05 0,0 m -118.512,8.64 0,0 m 199.961,-3.56 0,0 m -242.23,24.41 0,0 m 250.351,-75.74 0,0 m -241.679,-51.83 0,0 m 52.886,21.36 0,0 m 168.953,114.34 0,0 m -191.839,-77.27 0,0 m 310.386,72.19 0,0 m -127.218,-105.19 0,0 m -125.668,41.17 0,0 m 251.878,158.04 0,0 m -183.171,-129.1 0,0 m -123.161,-7.61 0,0 m 152.653,-24.89 0,0 m -232.5,-106.75 0,0 m 135.828,223.12 0,0 m 93.633,-112.3 0,0 m 191.789,142.81 0,0 m -235.539,-203.79 0,0 m -143.012,45.19 0,0 m 206.09,57.93 0,0 m 229.461,34.57 0,0 m -204.531,-33.51 0,0 m 3.039,-87.42 0,0 m -143.469,-17.31 0,0 m 35.109,43.21 0,0 m 29.5,33.55 0,0 m -123.129,-59.96 0,0 m 136.879,-26.45 0,0 m -269.148,-30.46 0,0 m 334.258,199.21 0,0 m -98.707,-49.8 0,0 m -48.832,-17.81 0,0 m 177.07,42.18 0,0 m -129.762,-60.46 0,0 m -42.738,-126.57 0,0 m -45.781,126.06 0,0 m 316.492,99.1 0,0 m -191.84,-103.16 0,0 m -36.641,13.2 0,0 m 108.91,83.87 0,0 m -69.218,-102.15 0,0 m 129.758,77.22 0,0 m -131.79,-99.61 0,0 m 138.899,171.29 0,0 m -169.41,-114.37 0,0 m -54.957,-77.23 0,0 m 175.539,130.63 0,0 m -99.723,20.31 0,0 m 166.871,18.28 0,0 m -161.289,-77.23 0,0 m -297.648,-75.23 0,0 m 360.226,58.44 0,0 m -48.828,-25.39 0,0 m -7.14,26.91 0,0 m 32.57,-21.84 0,0 m 33.051,-80.31 0,0 m -390.231,-23.36 0,0 m 394.84,172.27 0,0 m -194.879,-108.75 0,0 m -61.062,108.75 0,0 m 167.39,-103.17 0,0 m 92.102,-62.5 0,0 m -155.192,134.18 0,0 m -10.16,29.46 0,0 m -136.871,-112.82 0,0 m 233.512,28.48 0,0 m -209.102,-29.49 0,0 m 169.461,92.5 0,0 m 296.602,147.89 0,0 m -367.352,-293.75 0,0 m 61.571,214.45 0,0 m 205.031,-207.34 0,0 m 21.879,95.04 0,0 m -264.571,-3.05 0,0 m 91.09,-0.51 0,0 m -116.008,5.08 0,0 m 204.528,31.02 0,0 m -91.059,-45.24 0,0 m -175.539,-64.02 0,0 m 244.219,161.09 0,0 m -97.699,-76.25 0,0 m 24.918,75.24 0,0 m -140.93,-41.17 0,0 m 28.512,-63.01 0,0 m 230.98,-8.17 0,0 m -166.883,0.55 0,0 m -72.769,-99.65 0,0 m 228.98,-27.42 0,0 m -300.187,26.41 0,0 m 214.218,102.15 0,0 m 62.071,36.09 0,0 m -79.379,15.78 0,0 m -43.793,64.53 0,0 m 19.34,-128.59 0,0 m 3.59,47.26 0,0 m -162.848,-57.93 0,0 m -26.441,148.4 0,0 m 56.992,-192.11 0,0 m 287.968,174.85 0,0 m -139.929,48.28 0,0 m 5.629,-172.31 0,0 m 31.519,100.63 0,0 m -5.07,-69.1 0,0 m 41.711,192.61 0,0 m 21.879,-123 0,0 m -123.629,-84.89 0,0 m -44.262,-52.34 0,0 m 52.383,130.62 0,0 m 123.16,-36.6 0,0 m -264.601,-42.69 0,0 m -154.141,-101.64 0,0 m -63.598,-28.95 0,0 m 423.278,97.58 0,0 m -20.348,58.44 0,0 m -225.391,8.63 0,0 m 204.532,25.94 0,0 m -2.543,80.27 0,0 m 81.961,43.71 0,0 m -27,-114.33 0,0 m -238.629,-189.57 0,0 m 124.14,93 0,0 m -95.121,-25.93 0,0 m 228.949,202.81 0,0 m -23.398,-38.63 0,0 m -35.621,-139.77 0,0 m 226.398,176.33 0,0 m -262.027,-169.22 0,0 m -56.441,57.93 0,0 m -37.661,-50.82 0,0 m -104.808,65.55 0,0 m 261.488,-19.81 0,0 m -248.789,-82.34 0,0 m 325.121,265.31 0,0 m -43.25,-291.21 0,0 m -472.652,-21.33 0,0 m 205.551,24.88 0,0 m 142.96,71.64 0,0 m -191.832,-67.07 0,0 m 338.364,70.67 0,0 m -3.051,216.48 0,0 m -125.66,-149.41 0,0 m -265.082,-257.15 0,0 m 141.441,154.49 0,0 m -86.012,-60.97 0,0 m 232.032,131.6 0,0 m -66.641,-191.6 0,0 m 42.231,125.54 0,0 m -239.649,-33.55 0,0 m 215.699,96.05 0,0 m 235.59,175.86 0,0 m -184.691,-96.56 0,0 m -118.047,-104.18 0,0 m 87.5,-110.31 0,0 m 244.769,234.8 0,0 m -27.5,0 0,0 m 100.231,-47.77 0,0 m -222.852,-55.39 0,0 M 375,2103.69 l 0,0 m 36.602,-98.09 0,0 m 5.117,152.46 0,0 m 97.191,16.76 0,0 m -176.57,-123.48 0,0 m 291.019,187.54 0,0 m -263.05,-91.99 0,0 m 112.461,56.92 0,0 m 9.14,-104.18 0,0 m 208.129,207.34 0,0 m 9.652,-29.49 0,0 m -234.57,-141.29 0,0 m -109.383,-2.54 0,0 m 115.512,-21.84 0,0 m -32.07,88.44 0,0 m -6.602,-20.86 0,0 m 89.024,111.8 0,0 m -244.723,-181.41 0,0 m 94.641,34.03 0,0 m -73.79,-2.04 0,0 m 254.418,7.11 0,0 m -167.929,-72.65 0,0 m 68.203,41.17 0,0 m 81.918,66.05 0,0 m 69.68,83.36 0,0"
             style="fill:none;stroke:#00c4dd;stroke-width:4.0687499;stroke-linecap:round;stroke-linejoin:round;stroke-miterlimit:10;stroke-dasharray:none;stroke-opacity:1"
             id="path38"
             inkscape:connector-curvature="0" /><path
             d="m 605.98,2171.77 0,0 m -188.25,-71.17 0,0 m 41.719,37.11 0,0 m -49.371,33.05 0,0 m -20.859,47.26 0,0 m -76.328,-116.87 0,0 m 309.879,172.26 0,0 m -29.532,-63 0,0 m -344.449,-136.72 0,0 m 356.68,96.05 0,0 m -25.43,-65.54 0,0 m -70.738,128.04 0,0 m 60.039,-13.71 0,0 m -1.531,-102.65 0,0 m 8.671,79.25 0,0 m -302.73,-109.76 0,0 m 272.191,0.51 0,0 m -175.55,74.72 0,0 m 143.007,75.2 0,0 m -86.019,-115.35 0,0 m 231.531,153.47 0,0 m -277.82,-77.22 0,0 m 81.922,-189.57 0,0 m -76.332,237.85 0,0 m -62.578,-140.28 0,0 m 291.558,73.68 0,0 m -206.09,-80.83 0,0 m 84.489,119.97 0,0 m 64.101,67.57 0,0 m -261.519,-180.89 0,0 m 333.75,96.56 0,0 m -336.289,-95.04 0,0 m 109.878,-12.23 0,0 m 106.84,199.77 0,0 m -11.679,-57.97 0,0 m -281.371,-59.45 0,0 m 67.152,-219.03 0,0 m 295.629,401.49 0,0 M 338.359,2154 l 0,0 m 207.071,45.74 0,0 m 79.371,-37.61 0,0 m -116.52,32.5 0,0 m 14.77,15.27 0,0 m -98.711,-101.13 0,0 m -24.418,9.14 0,0 m 152.109,129.1 0,0 M 317.5,2063.02 l 0,0 m 263.551,157.54 0,0 m -92.102,-2.54 0,0 m 59.02,-106.71 0,0 m -188.75,-75.75 0,0 m 39.691,96.57 0,0 m -207.621,-60.98 0,0 m 100.742,120.94 0,0 m 120.629,-120.94 0,0 m 135.82,117.89 0,0 m -48.32,-18.79 0,0 m 13.75,42.19 0,0 m 230.969,188.55 0,0 m -288.469,-306.95 0,0 m -82.43,46.72 0,0 m 175.508,142.3 0,0 m -67.648,-159.57 0,0 m -68.168,-59.45 0,0 m 199.449,206.33 0,0 m -304.801,-215.98 0,0 m 321.059,123.99 0,0 m -268.641,-62 0,0 m -17.808,-96.05 0,0 m 90.59,164.14 0,0 m -214.731,-185.51 0,0 m 178.09,182.97 0,0 m 380.582,83.36 0,0 m -354.141,-149.41 0,0 m 49.379,12.18 0,0 m 38.121,133.17 0,0 m 74.801,-21.88 0,0 m -81.402,8.17 0,0 m 153.672,103.16 0,0 m -144.493,-340 0,0 m -205.078,-42.19 0,0 m 331.25,337.46 0,0 M 520,2152.98 l 0,0 m -427.4219,-200.74 0,0 m 585.1519,369.96 0,0 m -2.031,-20.82 0,0 m -299.179,-200.23 0,0 m 164.851,59.96 0,0 m -14.769,3.55 0,0 m -78.364,-45.74 0,0 m 111.961,45.24 0,0 m -200.98,-167.19 0,0 m 10.66,238.83 0,0 m 239.141,-90.43 0,0 m -64.61,-44.22 0,0 m -250.82,-105.74 0,0 m 337.308,229.72 0,0 m -128.707,-139.25 0,0 m -59.531,106.21 0,0 m 60.039,-59.46 0,0 m -110.937,58.44 0,0 m -38.641,-126.02 0,0 m 121.609,92 0,0 m -87.031,-145.86 0,0 m 21.36,54.37 0,0 m 46.839,135.71 0,0 m 70.192,-86.92 0,0 m -192.809,61.99 0,0 m 76.289,-60.97 0,0 m 88.551,177.38 0,0 m -204.019,-238.87 0,0 m 335.777,247 0,0 m -236.598,-122 0,0 M 290,2033.53 l 0,0 m 202.5,269.88 0,0 m -184.691,-98.08 0,0 m 81.921,-84.38 0,0 m 276.29,140.78 0,0 m -347.5,-278 0,0 m 147.031,78.28 0,0 m 12.73,25.9 0,0 m 133.278,181.44 0,0 m -128.707,-116.37 0,0 m -61.563,-79.29 0,0 m 88.512,53.86 0,0 m -88.512,-142.81 0,0 m -44.258,166.72 0,0 m 148.047,119.92 0,0 m 108.902,-104.68 0,0 m -59.058,104.18 0,0 m -27.461,-36.61 0,0 m 80.898,68.64 0,0 m -178.089,-102.15 0,0 m 16.289,-72.19 0,0 m -119.571,-91.99 0,0 m 64.102,22.89 0,0 m -65.621,80.78 0,0 m 219.801,135.7 0,0 m -91.598,10.16 0,0 m 222.887,-14.22 0,0 m -196.911,-185.51 0,0 m 2.543,79.3 0,0 m -137.39,-52.85 0,0 m -121.602,-25.43 0,0 m 435.551,158.05 0,0 m -250.352,-151.96 0,0 m -5.078,110.32 0,0 m 31.559,-94.03 0,0 m -132.809,102.15 0,0 m -105.308,-233.28 0,0 m 186.718,207.85 0,0 m 128.75,10.66 0,0 m -8.171,28.99 0,0 m -153.161,-234.81 0,0 m 85.512,78.29 0,0 m 238.629,205.31 0,0 m -15.269,15.27 0,0 m -233.559,-225.16 0,0 m 10.199,182.47 0,0 m 81.91,-11.21 0,0 m 113.481,7.1 0,0 m -129.77,-218.51 0,0 m 72.27,250.04 0,0 m -195.391,-132.62 0,0 m 88.512,50.27 0,0 m 112.969,35.59 0,0 M 424.84,2110.8 l 0,0 m -139.41,33.51 0,0 m 253.91,105.24 0,0 m -181.141,-303.95 0,0 m -125.148,109.3 0,0 m 104.289,91.44 0,0 m 138.398,-10.66 0,0 m 167.383,112.34 0,0 m -440.109,-113.86 0,0 m 230,-88.4 0,0 m 216.718,265.78 0,0 m 54.45,-132.66 0,0 m -506.25,-187.54 0,0 m 185.191,148.91 0,0 m 51.918,119.45 0,0 m 107.34,-74.22 0,0 m 25.43,-23.35 0,0 m -137.379,9.64 0,0 m 19.84,-95.04 0,0 m 32.582,100.12 0,0 m -195.903,-80.78 0,0 m 534.77,208.36 0,0 m -319.528,-78.28 0,0 m 213.707,0.51 0,0 m -219.808,-26.41 0,0 m 29.5,-21.87 0,0 m -353.602,-122.97 0,0 m 462.461,107.73 0,0 m -273.199,-137.73 0,0 m 14.262,244.96 0,0 m -64.653,-124.53 0,0 m 18.832,3.04 0,0 m 71.25,-33.51 0,0 m -11.211,-150.43 0,0"
             style="fill:none;stroke:#00c4dd;stroke-width:4.0687499;stroke-linecap:round;stroke-linejoin:round;stroke-miterlimit:10;stroke-dasharray:none;stroke-opacity:1"
             id="path40"
             inkscape:connector-curvature="0" /><path
             d="m 444.691,1909.55 0,0 m 102.258,328.28 0,0 m 105.321,9.69 0,0 m -4.571,-130.63 0,0 m -119.578,29.45 0,0 m 101.258,113.36 0,0 m -319.027,-256.64 0,0 m -131.25,-98.08 0,0 m 277.308,176.33 0,0 m -233.558,76.24 0,0 m 309.878,62.5 0,0 m -86.011,8.13 0,0 m 123.633,-69.61 0,0 m 134.339,30.98 0,0 m -112.972,-57.93 0,0 m -394.809,-64.53 0,0 m 367.86,79.25 0,0 m -59.032,72.19 0,0 m -58.008,-71.64 0,0 m -0.5,23.36 0,0 m -73.75,-192.11 0,0 m 23.399,7.11 0,0 m -122.617,71.17 0,0 m 177.578,203.28 0,0 m 182.609,-49.29 0,0 m -193.828,-119.96 0,0 m -3.551,30 0,0 m 50.352,40.66 0,0 m 106.879,262.23 0,0 m 52.89,-209.89 0,0 m 53.938,70.63 0,0 m -149.609,-114.85 0,0 m -283.899,-64.02 0,0 m 153.668,-18.32 0,0 m -9.18,113.36 0,0 m -176.019,-170.27 0,0 m 363.289,100.62 0,0 m -283.91,12.19 0,0 m 265.582,73.71 0,0 m -170.43,-34.06 0,0 m -117.031,-193.13 0,0 m 284.422,205.32 0,0 m -10.203,133.16 0,0 m 58.519,-17.27 0,0 m -311.367,-200.74 0,0 m 94.098,-26.44 0,0 m 15.781,57.93 0,0 m 159.769,152.96 0,0 m -11.718,-190.54 0,0 m -34.571,196.68 0,0 m -340.39,-280.04 0,0 m 368.871,118.9 0,0 m -79.379,26.45 0,0 m 68.707,82.85 0,0 m 62.07,-114.37 0,0 m -397.379,-84.89 0,0 m 90.551,19.34 0,0 m 496.09,126.02 0,0 m -162.813,-5.59 0,0 m -37.66,-45.74 0,0 m -460.968,-90.98 0,0 m 353.628,139.77 0,0 m -372.457,-225.63 0,0 m 326.68,206.84 0,0 m -75.32,-208.36 0,0 m 75.828,211.91 0,0 m 39.172,-29.45 0,0 m -126.711,26.41 0,0 m -116.02,-134.18 0,0 m 303.789,254.1 0,0 m -163.871,-204.81 0,0 m 228.992,105.71 0,0 m -15.781,20.85 0,0 m -327.148,-235.31 0,0 m 315.469,232.78 0,0 m -161.329,-22.9 0,0 m 147.579,19.34 0,0 m -249.34,-205.31 0,0 m 569.371,355.23 0,0 m -410.11,-129.1 0,0 m -43.242,-93.51 0,0 m -19.847,37.11 0,0 m 101.757,22.38 0,0 m 146.012,143.79 0,0 m -92.57,15.78 0,0 M 279.84,1982.2 l 0,0 m 245.75,237.85 0,0 m -170.942,-38.12 0,0 m 1.012,-92.5 0,0 m 218.789,232.27 0,0 m -80.39,-153.48 0,0 m -15.778,-71.13 0,0 m -67.191,-49.85 0,0 m 276.801,223.13 0,0 m -128.2,-45.24 0,0 m -132.812,-116.36 0,0 m -291.02,-21.37 0,0 m 390.743,99.61 0,0 m 5.628,31.52 0,0 m -139.929,-84.37 0,0 m 294.07,107.77 0,0 m -285.941,-77.77 0,0 m 125.16,76.72 0,0 m 113.98,-72.15 0,0 m -346.48,-15.75 0,0 m 123.121,34.03 0,0 m 98.711,-15.74 0,0 m -151.641,-36.1 0,0 m 182.66,35.59 0,0 m 20.348,158.55 0,0 m -42.23,-271.36 0,0 m -20.86,35.54 0,0 m -82.929,50.82 0,0 m 34.109,-131.09 0,0 m 149.062,256.64 0,0 m -286.453,-262.23 0,0 m 158.75,165.67 0,0 m -52.418,-16.76 0,0 m 203.008,159.57 0,0 m -90.547,-31.52 0,0 m -35.621,-189.07 0,0 m -137.89,59.5 0,0 m 153.671,18.79 0,0 m -19.851,-6.1 0,0 m 116.531,79.3 0,0 m -118.09,-93.01 0,0 m -64.609,-87.93 0,0 m -123.121,10.16 0,0 m 60.539,69.61 0,0 m 298.68,66.6 0,0 m -348.008,-84.89 0,0 m -131.293,-111.79 0,0 m 155.191,63.01 0,0 m 209.11,42.69 0,0 m -184.692,-31.01 0,0 m 192.852,82.85 0,0 m -108.399,34.57 0,0 m 338.36,160.08 0,0 m -348.52,-225.16 0,0 m 68.68,89.45 0,0 m -348.52,-259.69 0,0 m 319.02,174.85 0,0 m 25.937,118.4 0,0 m -9.136,-171.76 0,0 m -46.332,-24.92 0,0 m 241.679,178.4 0,0 m -53.398,127.03 0,0 M 492.5,2126.54 l 0,0 m 139.922,165.7 0,0 m -242.192,-207.89 0,0 m 64.149,32.54 0,0 m 167.891,184.49 0,0 m -23.911,-121.99 0,0 m -184.687,-76.21 0,0 m -81.402,96.05 0,0 m -69.731,-147.38 0,0 m 177.582,230.7 0,0 m 191.789,-122.46 0,0 m -333.238,-115.89 0,0 m 159.258,87.42 0,0 m -64.649,44.22 0,0 m 245.27,123 0,0 m 16.758,-79.8 0,0 m 40.242,55.39 0,0 m -205.082,-104.69 0,0 m -149.059,-64.02 0,0 m 156.711,-82.34 0,0 m -171.992,41.17 0,0 m 151.141,-28.99 0,0 m -180.629,43.71 0,0 m 181.129,168.75 0,0 m -105.821,-196.68 0,0 m 56.449,160.08 0,0 m -32.539,-16.79 0,0 m -63.589,-30.47 0,0 m 243.199,-23.4 0,0 m -145.039,-11.68 0,0 m 140.429,79.8 0,0 m 7.661,98.6 0,0 m -74.809,-213.44 0,0 m -185.191,-70.16 0,0 m 147.031,72.7 0,0 m 34.097,153.98 0,0 m -419.2574,-290.19 0,0 m 429.4104,314.06 0,0 m 27.5,-94.02 0,0 m -77.852,82.85 0,0 m -16.789,27.93 0,0 m 85.461,-151.96 0,0 m 185.75,40.67 0,0 m -357.191,-135.7 0,0 m 217.769,186.52 0,0 m -47.847,-98.09 0,0 m 6.128,163.17 0,0 m 18.29,-8.17 0,0 m -74.77,-136.17 0,0 m 76.84,-20.86 0,0 m -142,-25.9 0,0 m 208.64,130.59 0,0 m -319.031,-121.95 0,0"
             style="fill:none;stroke:#00c4dd;stroke-width:4.0687499;stroke-linecap:round;stroke-linejoin:round;stroke-miterlimit:10;stroke-dasharray:none;stroke-opacity:1"
             id="path42"
             inkscape:connector-curvature="0" /><path
             d="m 738.789,2317.63 0,0 m -35.117,-95.54 0,0 m -154.184,55.89 0,0 m -264.566,-157.53 0,0 m 353.629,34.06 0,0 m -138.903,29.45 0,0 m -10.199,-61.48 0,0 m -127.179,145.35 0,0 m 135.351,-98.6 0,0 m -191.84,-88.94 0,0 m 185.699,35.08 0,0 m 42.782,44.22 0,0 m -181.141,-23.4 0,0 m 29.5,-56.41 0,0 m 163.32,181.45 0,0 m -92.621,-94.53 0,0 m -8.629,-21.33 0,0 m -132.269,-58.99 0,0 m 104.808,88.95 0,0 m 51.872,-11.17 0,0 m -184.692,-154.5 0,0 m -25.43,-63.04 0,0 m 151.641,201.79 0,0 m -33.59,-137.22 0,0 m -33.59,166.68 0,0 m 217.77,8.63 0,0 m 82.418,-54.37 0,0 m -243.199,40.66 0,0 m 10.66,-65.55 0,0 m 285.469,254.1 0,0 m -393.829,-327.81 0,0 m 208.598,115.35 0,0 m -104.808,22.39 0,0 m 8.171,-24.38 0,0 m -0.55,-61.01 0,0 m 118.089,159.57 0,0 m -10.71,-132.11 0,0 m -119.571,-21.37 0,0 m 146.531,139.26 0,0 m -61.57,-110.78 0,0 m 82.43,99.6 0,0 m -32.539,107.74 0,0 m -148.09,-140.27 0,0 m 154.687,-24.38 0,0 m -314.957,-169.76 0,0 m 262.579,151.99 0,0 m -81.45,-123.52 0,0 m -23.91,19.3 0,0 m 19.34,115.9 0,0 m 326.641,-41.68 0,0 m -209.102,86.91 0,0 m -487.9296,-131.64 0,0 m 412.6206,138.75 0,0 m -11.179,-144.34 0,0 m 14.73,61.49 0,0 m 216.25,-52.85 0,0 m -268.121,31.01 0,0 m 143.981,-53.86 0,0 m 40.199,244.45 0,0 m -154.692,-182.97 0,0 m 59.532,-15.74 0,0 m -230.469,-128.6 0,0 m 219.301,241.41 0,0 m 176.008,13.2 0,0 m -194.84,-86.91 0,0 m -166.371,-81.29 0,0 m -230.5082,-118.94 0,0 m 656.8792,248 0,0 m -292.071,81.84 0,0 m 17.813,-65.55 0,0 m -16.293,-71.17 0,0 m -120.078,-90.98 0,0 m 422.82,184.5 0,0 m -208.601,-20.82 0,0 m -58.508,-62.54 0,0 m -53.953,-17.78 0,0 m 36.64,-83.86 0,0 m 113.992,158.59 0,0 m -161.293,-172.81 0,0 m -162.808,-4.06 0,0 m 429.922,316.09 0,0 m -181.641,-27.42 0,0 m 28.469,-105.2 0,0 m -164.328,-130.62 0,0 m 433.508,320.7 0,0 m -350.579,-286.13 0,0 m 46.829,0.5 0,0 m 52.89,147.39 0,0 m -70.699,10.66 0,0 m 219.301,-25.43 0,0 m -144.492,-76.21 0,0 m -10.2,4.06 0,0 m 148.551,154.5 0,0 m -218.742,-84.38 0,0 m 157.18,-17.77 0,0 m -415.149,-259.18 0,0 m 153.629,47.26 0,0 m 132.301,153.48 0,0 m -16.289,35.59 0,0 m 101.25,-2.07 0,0 m -39.68,73.2 0,0 m -113.949,-134.18 0,0 m 85.976,138.24 0,0 m -107.886,-123.98 0,0 m -84.961,-53.87 0,0 m 164.84,92.46 0,0 m -3.551,32.54 0,0 m -223.871,-297.31 0,0 m 251.871,329.34 0,0 m -2.031,-81.33 0,0 m -140.938,-148.4 0,0 m 191.289,182.97 0,0 m -72.769,-89.45 0,0 m -59.532,90.47 0,0 m -74.769,-97.58 0,0 m 365.82,47.77 0,0 m -203.512,51.33 0,0 m 46.801,85.9 0,0 m -202.5,-233.79 0,0 m 292.071,191.09 0,0 m 24.921,-29.49 0,0 m -52.929,45.75 0,0 m 2.539,25.39 0,0 m 20.347,-139.73 0,0 m -104.808,-130.63 0,0 m -113.43,83.87 0,0 m 240.11,114.84 0,0 m -309.84,-249.02 0,0 m 248.281,436.06 0,0 m -86.481,-226.18 0,0 m 76.829,40.67 0,0 m -4.571,-12.7 0,0 m -190.816,-162.65 0,0 m 128.238,321.21 0,0 m -38.672,-155 0,0 m 14.223,-32.03 0,0 m -18.32,26.44 0,0 m -265.082,-154.53 0,0 m 354.14,30 0,0 m -233.039,39.14 0,0 m 236.09,135.2 0,0 m 5.59,-100.63 0,0 m -139.93,-12.73 0,0 m -127.18,-44.18 0,0 m 152.649,64.53 0,0 m 45.781,-27.46 0,0 m -67.648,41.68 0,0 m 69.179,27.97 0,0 m -61.57,-86.92 0,0 m 149.07,151.96 0,0 m -161.8,-122.97 0,0 m 99.73,-0.51 0,0 m -194.851,-75.24 0,0 m 67.152,96.06 0,0 m 72.226,64.53 0,0 m 98.711,49.3 0,0 m 52.422,-95.55 0,0 m -95.16,109.81 0,0 m -160.269,-257.19 0,0 m 51.918,39.14 0,0 m -177.579,5.08 0,0 m 145,63.55 0,0 m 41.207,-46.29 0,0 m 385.661,240.43 0,0 m -283.399,24.88 0,0 m -63.59,-83.86 0,0 m 316.989,50.82 0,0 m -364.289,-211.92 0,0 m 79.878,50.32 0,0 m -160.777,-35.59 0,0 m 184.18,119.45 0,0 m -19.34,-114.37 0,0 m -159.262,-111.29 0,0 m 232.539,204.8 0,0 m -240.148,7.15 0,0 m 173.98,39.61 0,0 m -258.941,-111.29 0,0 m 93.082,-23.9 0,0 m 36.129,-1.53 0,0 m 135.859,13.24 0,0 m -144.527,-50.31 0,0 m 107.887,53.87 0,0 m 139.421,128.59 0,0 m -435.55,-216.01 0,0 m 328.16,148.9 0,0 m -229.449,-144.84 0,0 m 152.66,6.09 0,0 m -313.949,-139.25 0,0 m 204.527,196.17 0,0 m 40.199,14.26 0,0 m 95.66,-57.47 0,0 m 102.782,-29.45 0,0 m -32.04,252.58 0,0 m -122.652,-193.63 0,0 m 10.703,-36.1 0,0 m 23.399,-26.91 0,0 m 66.129,104.69 0,0 m -69.18,43.2 0,0 m 182.66,63.01 0,0 m -215.738,-270.35 0,0"
             style="fill:none;stroke:#00c4dd;stroke-width:4.0687499;stroke-linecap:round;stroke-linejoin:round;stroke-miterlimit:10;stroke-dasharray:none;stroke-opacity:1"
             id="path44"
             inkscape:connector-curvature="0" /><path
             d="m 355.16,2183.45 0,0 m -8.68,-71.64 0,0 m 250.36,-68.12 0,0 m -277.82,60 0,0 m -22.379,37.58 0,0 m 119.57,66.6 0,0 m 243.711,64.53 0,0 m -59.531,-149.42 0,0 m -82.93,69.61 0,0 m -148.082,-74.18 0,0 m 62.57,77.78 0,0 m -70.187,-80.82 0,0 m 203.508,124.49 0,0 m -161.29,-217.5 0,0 m 305.79,297.3 0,0 m -525.079,-151.44 0,0 m 413.668,152.46 0,0 m -30.039,-200.74 0,0 m -14.261,46.25 0,0 M 460.98,2279 l 0,0 m -76.332,-181.91 0,0 m 210.153,82.81 0,0 m 8.64,20.86 0,0 m -117.543,1.52 0,0 m -33.558,-81.33 0,0 m -43.789,143.83 0,0 m 242.187,66.56 0,0 m -363.789,-204.29 0,0 m 444.18,81.33 0,0 m -303.238,-167.74 0,0 m 79.879,120.98 0,0 m 47.851,27.42 0,0 m -20.351,85.9 0,0 m -35.11,-193.63 0,0 m 55.969,156.01 0,0 M 311.91,2061.5 l 0,0 m 49.852,17.27 0,0 m 10.66,216.52 0,0 m 174.527,-58.48 0,0 m -121.597,-132.61 0,0 m 99.726,148.39 0,0 m 18.832,-99.61 0,0 m -102.781,-69.64 0,0 m 217.269,81.32 0,0 m -66.128,-42.18 0,0 m -260.551,-37.62 0,0 m 157.73,187.03 0,0 m 148.09,-116.37 0,0 m -346.488,-47.26 0,0 m 418.719,167.19 0,0 m -340.391,-140.79 0,0 m 81.91,4.07 0,0 m 117.031,21.36 0,0 m 101.25,-31.52 0,0 m -40.191,56.91 0,0 m -17.309,-95.03 0,0 m -117.539,19.33 0,0 m 96.168,-39.14 0,0 m -170.929,144.34 0,0 m 126.171,54.88 0,0 m -133.281,-295.27 0,0 m 187.219,253.59 0,0 m -6.641,23.4 0,0 m 36.641,-93.52 0,0 m -84.957,-45.74 0,0 m -68.16,122.46 0,0 m -205.082,-50.82 0,0 m 339.879,-41.17 0,0 m -30.508,127.07 0,0 M 411.09,2048.3 l 0,0 m 53.949,75.19 0,0 m -61.559,-30 0,0 m 140.93,-19.29 0,0 m 67.66,115.35 0,0 m 199.45,173.83 0,0 m -356.129,-259.69 0,0 m 93.089,24.88 0,0 m 122.61,127.58 0,0 m -131.75,-15.78 0,0 m -179.11,-98.05 0,0 m 159.258,1.49 0,0 m -149.097,-5.08 0,0 m -91.563,-42.15 0,0 m 204.024,29.96 0,0 m 47.808,9.65 0,0 m -128.711,117.93 0,0 m 314.461,30.97 0,0 m -365.859,-253.08 0,0 m 38.668,58.94 0,0 m 438.59,253.13 0,0 m -141.438,4.06 0,0 m -237.621,-246.99 0,0 m 37.66,161.6 0,0 m -192.82,-162.15 0,0 m 46.289,-20.31 0,0 m 53.949,92.5 0,0 m 47.301,-45.24 0,0 m 81.922,98.09 0,0 m 143.98,90.47 0,0 m -173.48,-44.73 0,0 m -16.789,-155 0,0 m -310.391,-13.2 0,0 m 567.848,108.75 0,0 m -458.438,-168.75 0,0 m 298.668,239.88 0,0 m -8.668,44.22 0,0 m -70.191,-123.47 0,0 m 123.629,-31.53 0,0 m -27.5,127.58 0,0 m -106.328,-235.82 0,0 m 167.379,162.11 0,0 m -650.73875,-228.2 0,0 m 501.16775,164.68 0,0 m -135.859,-81.32 0,0 m -6.602,2.53 0,0 m 263.051,100.12 0,0 m -342.93,-129.57 0,0 m 160.27,-10.19 0,0 m -151.641,47.26 0,0 m 132.313,-4.57 0,0 m 62.07,-23.36 0,0 m -159.262,88.44 0,0 m 26.481,8.12 0,0 m 269.648,110.28 0,0 m -97.187,-91.49 0,0 m -45.781,52.35 0,0 m -77.848,-5.59 0,0 m 90.039,16.29 0,0 m 0.508,-30 0,0 m 23.941,-113.32 0,0 m -114.488,70.12 0,0 m 191.289,65.04 0,0 m -378.012,-269.34 0,0 m 244.223,85.35 0,0 m -71.762,119.96 0,0 m 57,127.58 0,0 m 90.07,-195.66 0,0 m 80.86,84.33 0,0 m -264.059,-131.6 0,0 m 187.77,95.04 0,0 m 96.179,186.48 0,0 m -371.449,-392.34 0,0 m 156.207,168.75 0,0 m -26.988,58.44 0,0 m 131.289,-9.65 0,0 m -117.027,-47.27 0,0 m 5.578,-20.35 0,0 m 116.531,53.91 0,0 m 117.027,63.01 0,0 M 332.27,2054.9 l 0,0 m 81.402,166.17 0,0 m 100.238,-138.24 0,0 m 187.731,154.49 0,0 m -133.832,-22.85 0,0 m -26.95,24.88 0,0 m -61.558,-105.19 0,0 m -72.27,46.25 0,0 m 182.149,-3.05 0,0 m -232.5,-0.51 0,0 m 37.148,35.59 0,0 m -77.848,-59.96 0,0 m 18.821,-16.29 0,0 m 82.429,1.01 0,0 m 73.79,-46.75 0,0 m 81.871,112.34 0,0 m -325.121,-74.73 0,0 m 336.839,156.53 0,0 m -215.23,-184.46 0,0 m 251.871,82.31 0,0 m -178.09,23.9 0,0 m -237.609,-180.43 0,0 m 303.75,217 0,0 m -12.192,-12.7 0,0 m 73.243,9.65 0,0 m 52.929,38.63 0,0 m -19.84,-52.85 0,0 m -96.171,9.65 0,0 m -152.11,-285.63 0,0 m 180.621,217.04 0,0 m -121.64,-48.29 0,0 m 72.769,218.01 0,0 m -193.32,-346.6 0,0 m 14.219,55.94 0,0 m 198.953,77.73 0,0 m -30.512,67.11 0,0 m -104.301,-98.63 0,0 m -206.09,-76.72 0,0 m 461.993,190.59 0,0 m -225.903,-39.65 0,0 m -270.187,-161.1 0,0 m 459.449,257.15 0,0 m -121.09,-57.93 0,0 m 127.731,32 0,0 m -217.774,-142.27 0,0 m 27.973,-68.13 0,0 m -108.36,85.4 0,0 m 262.028,38.12 0,0 m 31.519,51.84 0,0 m -178.547,71.64 0,0 m 178.547,-139.26 0,0"
             style="fill:none;stroke:#00c4dd;stroke-width:4.0687499;stroke-linecap:round;stroke-linejoin:round;stroke-miterlimit:10;stroke-dasharray:none;stroke-opacity:1"
             id="path46"
             inkscape:connector-curvature="0" /><path
             d="m 515.43,2319.66 0,0 m 13.711,-162.11 0,0 m -241.68,-174.84 0,0 m 336.84,180.43 0,0 m -93.641,77.23 0,0 m 72.781,-20.82 0,0 m -338.363,-157.54 0,0 m 238.633,7.11 0,0 m -15.27,-47.27 0,0 m -160.281,53.36 0,0 m 174.031,160.08 0,0 m -20.351,6.64 0,0 m -61.059,-85.9 0,0 m 145.508,-2.03 0,0 m -196.41,24.38 0,0 m 138.402,-74.69 0,0 m -167.383,119.41 0,0 m -205.039,-273.44 0,0 m 270.161,261.76 0,0 m 328.199,31.49 0,0 m -152.66,-55.39 0,0 m -256.95,-165.67 0,0 m 136.371,156.02 0,0 m 118.551,3.55 0,0 m -25.941,-26.91 0,0 m -92.61,-14.26 0,0 m 158.239,95.55 0,0 m -290.039,-222.58 0,0 m 204.019,191.09 0,0 m 35.121,19.81 0,0 m -348.011,-165.67 0,0 m 321.062,-30 0,0 m 102.258,148.4 0,0 m -91.598,17.27 0,0 M 390.23,2087.4 l 0,0 m 242.7,154.02 0,0 m -262.032,-40.66 0,0 m 73.282,-10.71 0,0 m -134.34,-63 0,0 m -54.918,-43.21 0,0 m 384.648,210.94 0,0 m -22.89,-199.26 0,0 m -217.27,-0.5 0,0 m 16.289,233.28 0,0 M 550,2150.95 l 0,0 m -112.422,108.75 0,0 m -74.808,-19.33 0,0 m 38.171,-81.29 0,0 M 665,2272.91 l 0,0 m -25.941,-46.25 0,0 m -421.789,-225.12 0,0 m 234.019,60.47 0,0 m 49.883,141.29 0,0 m 22.379,56.4 0,0 m 14.769,-65.58 0,0 m -16.8,-19.3 0,0 m 76.332,22.89 0,0 m 41.207,25.39 0,0 m 112.421,183.48 0,0 m -127.691,-182.97 0,0 m 70.191,78.79 0,0 m -270.66,-240.39 0,0 m 125.66,97.07 0,0 m -385.66,-24.92 0,0 m 361.758,11.21 0,0 m -33.598,-26.96 0,0 m -120.031,1.02 0,0 m 217.731,65.55 0,0 m -246.758,-105.2 0,0 m 75.816,65.08 0,0 m 270.16,101.64 0,0 m -241.168,-171.29 0,0 m -17.82,66.56 0,0 m -99.719,-43.16 0,0 m 215.231,-61.52 0,0 m -206.051,-57.43 0,0 m 166.867,180.43 0,0 m -60.539,-136.71 0,0 m 238.121,162.1 0,0 m -28.48,41.68 0,0 m -225.93,-67.57 0,0 m -150.082,-136.72 0,0 m 119.063,52.85 0,0 m 48.32,68.59 0,0 m 235.078,102.19 0,0 m -298.168,-176.87 0,0 m 123.129,-86.41 0,0 m -71.719,121.48 0,0 m 80.391,80.28 0,0 m 26.957,-85.86 0,0 m -91.609,-42.19 0,0 m -235.54,-18.83 0,0 m 272.18,61.02 0,0 m 58.52,124.49 0,0 m -96.168,-63.01 0,0 m 227.968,20.82 0,0 m -66.179,121.49 0,0 m -312.379,-73.21 0,0 m 210.117,45.75 0,0 m -13.199,-136.72 0,0 m 3.551,14.25 0,0 m 164.339,-16.28 0,0 m -397.89,71.17 0,0 m -54.93,-59.46 0,0 m 207.578,-7.65 0,0 m 111.922,52.89 0,0 m -188.25,-45.74 0,0 m 108.36,-58.99 0,0 m 10.199,19.85 0,0 m 109.883,67.07 0,0 m -41.211,105.19 0,0 m 116.519,67.11 0,0 m -353.121,-199.73 0,0 m 117.031,17.78 0,0 m 31.559,-105.2 0,0 m 295.121,255.63 0,0 m -64.141,-3.56 0,0 m -216.211,-192.11 0,0 m 157.223,137.23 0,0 m -125.699,-117.42 0,0 m -175,-33.01 0,0 m 155.668,-81.84 0,0 m -109.891,118.95 0,0 m 71.211,36.56 0,0 m 197.93,7.62 0,0 m 51.41,144.84 0,0 m -218.789,-139.25 0,0 m 4.059,-47.23 0,0 m 78.359,28.94 0,0 m 17.312,-97.07 0,0 m -162.812,6.1 0,0 m 140.93,63.04 0,0 m -47.34,107.74 0,0 m -193.321,-174.34 0,0 m 6.602,-16.25 0,0 m 141.449,45.75 0,0 m -118.051,12.69 0,0 m 120.582,99.1 0,0 m -29.492,6.6 0,0 m -108.398,-295.27 0,0 m 440.629,415.74 0,0 m -298.129,-88.44 0,0 m 170.43,1.02 0,0 m -167.379,-59.96 0,0 m 9.14,-199.22 0,0 m 245.739,287.62 0,0 m -70.7,-18.28 0,0 m -92.621,-60.47 0,0 m -198.937,-17.31 0,0 m -45.282,-84.33 0,0 m 348.52,152.97 0,0 m -300.16,-94.03 0,0 m 406.531,206.84 0,0 m -345.512,-301.37 0,0 m -186.718,-97.07 0,0 m 213.199,228.71 0,0 m 99.73,-2.54 0,0 m 122.621,121.96 0,0 M 409.57,1982.2 l 0,0 m 72.27,162.66 0,0 m -66.641,-66.09 0,0 m 73.242,99.61 0,0 m 188.278,5.58 0,0 m -217.77,-34.53 0,0 m 99.723,110.27 0,0 m 98.707,-20.82 0,0 m -171.481,-8.16 0,0 m 4.571,-163.63 0,0 m -94.61,26.4 0,0 m -129.257,-33.01 0,0 m 388.707,113.33 0,0 m -82.418,-14.73 0,0 m -145,-100.63 0,0 m -52.891,39.61 0,0 m 104.301,49.34 0,0 m -350.082,-195.16 0,0 m 340.902,182.42 0,0 m 289.527,242.43 0,0 m -117.027,-242.43 0,0 m -235.082,94.03 0,0 m 8.672,-140.28 0,0 m 233.519,153.99 0,0 m -173.992,-135.67 0,0 m 128.211,129.07 0,0 m -198.437,-98.09 0,0 m 20.859,47.27 0,0 m 5.578,-84.85 0,0 m 123.172,162.62 0,0 m 67.149,73.16 0,0 m -133.829,-230.7 0,0 m -255.941,-70.16 0,0 m 359.219,258.21 0,0 m -112.93,-351.72 0,0 m 26.441,185 0,0 m -220.308,130.12 0,0 m 101.25,-197.7 0,0 m 3.047,-11.17 0,0 m -52.379,145.35 0,0 m 185.699,-10.7 0,0 m 47.301,-6.1 0,0"
             style="fill:none;stroke:#00c4dd;stroke-width:4.0687499;stroke-linecap:round;stroke-linejoin:round;stroke-miterlimit:10;stroke-dasharray:none;stroke-opacity:1"
             id="path48"
             inkscape:connector-curvature="0" /><path
             d="m 319.02,2133.65 0,0 m 201.492,-53.36 0,0 m -189.301,-25.9 0,0 m 0.508,-59.96 0,0 m 207.621,92.46 0,0 m -61.57,32.54 0,0 m -104.84,23.87 0,0 m 413.672,191.09 0,0 m -93.59,33.05 0,0 m -90.59,-64.53 0,0 m -100.742,-132.15 0,0 m -53.95,-15.74 0,0 m 68.719,39.1 0,0 m 4.063,30.51 0,0 m -71.25,-162.62 0,0 m -284.922,-283.6 0,0 m 279.84,379.14 0,0 m -106.84,-56.4 0,0 m 263.558,176.83 0,0 m 13.204,-58.94 0,0 m 30.039,-5.08 0,0 m -275.27,-93.01 0,0 m -83.441,-57.93 0,0 m 419.261,272.39 0,0 m -200.472,-53.36 0,0 M 635,2228.18 l 0,0 m -75.82,1.02 0,0 m -237.621,-181.41 0,0 m 208.601,206.84 0,0 m -116.488,-236.33 0,0 m -24.453,115.86 0,0 m 11.211,95.54 0,0 m 120.59,-34.57 0,0 m 26.949,-86.36 0,0 m -5.59,111.79 0,0 m -68.16,7.11 0,0 m 110.39,-12.69 0,0 m -53.437,-92 0,0 m 29.527,161.1 0,0 m -288.508,-218.52 0,0 m 257.969,130.12 0,0 m -92.582,-87.93 0,0 m 233.512,140.27 0,0 m 125.711,153.99 0,0 m -481.332,-438.09 0,0 m 303.242,318.13 0,0 m 15.738,-210.39 0,0 m -182.109,189.57 0,0 m 16.25,-176.88 0,0 m 68.711,116.92 0,0 m -127.223,-140.28 0,0 m 129.762,152.97 0,0 m -100.231,20.31 0,0 m 150.59,10.71 0,0 m -464.539,-191.1 0,0 m 218.789,20.32 0,0 m 113.992,114.84 0,0 m 52.379,-37.58 0,0 m -200.98,-71.17 0,0 m 165.898,121.99 0,0 m 251.332,73.17 0,0 m -327.66,-126.02 0,0 m 32.07,-31.02 0,0 m -120.109,63.01 0,0 m 356.68,97.58 0,0 m -140.43,-75.19 0,0 m -25.941,-26.45 0,0 m 13.75,5.59 0,0 m -174.02,-157.04 0,0 m 267.61,166.18 0,0 m -96.68,3.59 0,0 m -151.602,-72.7 0,0 m 335.821,246.49 0,0 m -356.168,-369.45 0,0 m -56.481,-5.59 0,0 m -26.449,91.45 0,0 m 102.769,27.46 0,0 m -203.511,1.01 0,0 m 135.82,47.78 0,0 m 237.621,56.91 0,0 m -321.57,-259.69 0,0 m 589.73,334.88 0,0 m -307.851,-20.82 0,0 m 203.511,98.6 0,0 m -513.859,-244.46 0,0 m 257.457,-35.58 0,0 m 41.723,65.08 0,0 m 145,88.4 0,0 m -78.871,-78.25 0,0 m -162.809,39.65 0,0 m 25.43,-144.33 0,0 m 126.211,140.78 0,0 m 88.008,18.79 0,0 m -256.45,-124.03 0,0 m -56.992,52.89 0,0 m -154.137,-115.39 0,0 m 576.95,206.37 0,0 m -102.77,6.6 0,0 m -98.211,-110.82 0,0 m -64.101,102.66 0,0 m 31.062,-70.63 0,0 m 141.949,-19.8 0,0 m -74.3,109.26 0,0 m -160.782,-50.82 0,0 m -72.769,-14.73 0,0 m -13.707,-171.29 0,0 m -51.41,-43.2 0,0 m 159.769,192.61 0,0 m -39.18,-100.62 0,0 m 262.539,97.58 0,0 m -51.878,56.4 0,0 m -133.321,2.03 0,0 m 112.969,13.72 0,0 m -244.219,-87.39 0,0 m 250.821,38.09 0,0 m -28.481,-65.55 0,0 m -211.672,80.82 0,0 m 353.629,51.33 0,0 m -251.879,-64.53 0,0 m 157.742,-45.74 0,0 m -283.402,-102.15 0,0 m 355.16,186.48 0,0 m -160.277,-41.64 0,0 m -42.223,-45.23 0,0 m -52.429,-56.45 0,0 m 147.539,135.2 0,0 m 37.152,14.76 0,0 m -186.723,-179.41 0,0 m 172.461,128.55 0,0 m -217.219,27.97 0,0 m -91.601,-111.79 0,0 m 102.262,82.3 0,0 m 141.949,62.03 0,0 m -135.86,-182.97 0,0 m -66.128,70.63 0,0 m 33.597,-41.68 0,0 m -67.187,20.35 0,0 m 83.468,25.9 0,0 m -13.75,73.2 0,0 m 265.079,-7.62 0,0 m 112.972,-10.66 0,0 m -211.172,-16.29 0,0 m -27.461,-45.23 0,0 m 134.332,77.77 0,0 m -296.64,-121.48 0,0 m 156.719,202.3 0,0 m 30.511,39.61 0,0 m -173.011,-272.38 0,0 m 149.613,127.03 0,0 m -139.41,-207.85 0,0 m 50.347,56.91 0,0 m -146.019,61.02 0,0 m 177.07,8.63 0,0 m 43.75,136.21 0,0 m 134.34,-38.12 0,0 m -89.02,-41.18 0,0 m -298.679,-188.04 0,0 m 223.359,238.36 0,0 m 169.93,11.68 0,0 m -343.442,-61.49 0,0 m 267.114,122.46 0,0 m -317.461,-221.05 0,0 m 296.597,146.87 0,0 m -49.847,-19.84 0,0 m -20.852,-121.45 0,0 m 97.18,140.78 0,0 m -77.848,-100.62 0,0 m -94.14,-18.83 0,0 m 107.847,195.67 0,0 m 22.934,-153.99 0,0 m -183.203,-33.01 0,0 m 221.871,51.33 0,0 m 85.469,198.2 0,0 m -221.829,-243.43 0,0 m 126.168,71.13 0,0 m 91.602,81.84 0,0 m -375.512,-224.15 0,0 m 78.364,-31.48 0,0 m 39.179,133.63 0,0 m 63.09,-74.68 0,0 m -143.992,16.25 0,0 m 409.07,143.32 0,0 m -465.551,-201.25 0,0 m 327.653,245.97 0,0 M 362.77,2104.7 l 0,0 m 42.23,68.09 0,0 m -110.391,-28.98 0,0 m 242.192,91.99 0,0 m 66.129,28.47 0,0 m -306.289,-145.86 0,0 m 199.449,54.38 0,0 m 158.75,-63.52 0,0 m -212.18,171.76 0,0 m 145,-57.93 0,0 m -22.89,64.53 0,0 m -89.54,-188.51 0,0 m 190.79,226.13 0,0 m -320.04,-262.73 0,0 m 241.168,163.63 0,0 m -152.617,-84.88 0,0"
             style="fill:none;stroke:#00c4dd;stroke-width:4.0687499;stroke-linecap:round;stroke-linejoin:round;stroke-miterlimit:10;stroke-dasharray:none;stroke-opacity:1"
             id="path50"
             inkscape:connector-curvature="0" /><path
             d="m 474.73,2161.11 0,0"
             style="fill:none;stroke:#000000;stroke-width:12.20629978;stroke-linecap:round;stroke-linejoin:round;stroke-miterlimit:10;stroke-dasharray:none;stroke-opacity:1"
             id="path52"
             inkscape:connector-curvature="0" /><path
             d="m 474.691,2143.06 c 10.079,0 18.321,8.21 18.321,18.28 0,10.12 -8.242,18.32 -18.321,18.32 -10.121,0 -18.32,-8.2 -18.32,-18.32 0,-10.07 8.199,-18.28 18.32,-18.28"
             style="fill:none;stroke:#000000;stroke-width:12.20629978;stroke-linecap:butt;stroke-linejoin:round;stroke-miterlimit:10;stroke-dasharray:none;stroke-opacity:1"
             id="path54"
             inkscape:connector-curvature="0" /><path
             d="m 444.691,2213.96 0,0"
             style="fill:none;stroke:#000000;stroke-width:12.20629978;stroke-linecap:round;stroke-linejoin:round;stroke-miterlimit:10;stroke-dasharray:none;stroke-opacity:1"
             id="path56"
             inkscape:connector-curvature="0" /><path
             d="m 444.691,2213.96 c -27.781,-13.63 -120.742,-80.39 -100.742,-126.05 26.91,-42.54 136.129,3.67 160.781,20.35 171.25,102.5 115.348,199.53 -60.039,105.7"
             style="fill:none;stroke:#000000;stroke-width:12.20629978;stroke-linecap:butt;stroke-linejoin:round;stroke-miterlimit:10;stroke-dasharray:none;stroke-opacity:1"
             id="path58"
             inkscape:connector-curvature="0" /></g></g><path
         d="m 1862.23,2167.2 0,0 m -393.32,110.78 0,0 m 56.99,-42.18 0,0 m 268.12,-21.84 0,0 m 67.19,-82.85 0,0 m -296.64,169.26 0,0 m -94.14,21.33 0,0 m 66.64,-31.02 0,0 m 208.63,-31.48 0,0 m 120.08,-103.68 0,0 m -392.81,139.77 0,0 m 190.82,-271.41 0,0 m -180.12,224.14 0,0 m 224.38,-86.4 0,0 m -251.37,142.3 0,0 m -13.71,50.82 0,0 m 92.07,-170.78 0,0 m -23.91,100.12 0,0 m 183.17,39.14 0,0 m 34.1,-20.31 0,0 m -270.67,-8.13 0,0 m 229.97,-223.63 0,0 m -207.58,182.97 0,0 m -24.96,74.69 0,0 m 3.59,-15.24 0,0 m 293.05,-37.62 0,0 m -97.19,-30.97 0,0 m 339.88,-239.89 0,0 m -366.33,312.04 0,0 m 31.57,8.63 0,0 m -26.49,-1.02 0,0 m -138.4,-19.29 0,0 m 251.37,-48.79 0,0 m -112.97,69.1 0,0 m -154.14,-11.68 0,0 m 384.14,-142.81 0,0 m -189.29,-134.18 0,0 m 194.37,117.42 0,0 m -402.46,150.94 0,0 m 234.06,-167.23 0,0 m -244.76,183.48 0,0 m 347.03,-250.04 0,0 m -352.11,264.76 0,0 m 5.62,1.53 0,0 m 25.94,-83.83 0,0 m 223.87,18.28 0,0 m -65.63,-144.85 0,0 m 20.35,188.56 0,0 m 63.6,-99.61 0,0 m 95.15,-13.2 0,0 m -81.44,71.13 0,0 m -42.74,-136.21 0,0 m -127.69,161.64 0,0 m 297.66,-128.09 0,0 m -414.18,163.13 0,0 m 14.25,-11.17 0,0 m 260,-112.82 0,0 m -159.76,-51.32 0,0 m 175.04,110.27 0,0 m 60.54,-91.99 0,0 m -94.14,138.24 0,0 m 15.28,-11.68 0,0 m -265.12,-3.55 0,0 m 2.58,21.83 0,0 m 67.15,-83.83 0,0 m -62.58,68.6 0,0 m 170.43,-8.64 0,0 m -168.4,-16.29 0,0 m 122.62,-68.59 0,0 m 170.47,-94.02 0,0 m -100.75,-75.74 0,0 m 90.55,212.46 0,0 m -32.58,-222.11 0,0 m 224.92,79.29 0,0 m -488.47,218.52 0,0 m 209.65,-4.57 0,0 m -20.36,-268.32 0,0 m 49.85,29.96 0,0 m 49.88,184.49 0,0 m -252.38,16.76 0,0 m -34.61,34.57 0,0 m 324.1,-93.52 0,0 m -100.7,-209.37 0,0 m -130.28,168.71 0,0 m -91.6,114.88 0,0 m 143.52,11.18 0,0 m 39.18,0 0,0 m 257.93,-195.67 0,0 m -254.89,205.82 0,0 m -94.64,-26.91 0,0 m -90.59,2.03 0,0 m 62.07,-9.65 0,0 m 164.37,-218.55 0,0 m -107.89,112.3 0,0 m 95.16,140.27 0,0 m -214.22,-20.82 0,0 m -9.65,39.65 0,0 m 12.74,-44.72 0,0 m -9.18,37.07 0,0 m 252.89,-16.76 0,0 m -97.19,-134.69 0,0 m 268.63,-34.53 0,0 m -122.61,118.91 0,0 m 34.61,-60.98 0,0 m -207.07,83.36 0,0 m -33.09,-6.64 0,0 m 6.6,-51.84 0,0 m -33.55,50.31 0,0 m 146.52,-215.97 0,0 m -130.78,179.41 0,0 m -52.89,22.35 0,0 m 228.94,-114.85 0,0 m -119.06,123.99 0,0 m -102.26,6.6 0,0 m 219.29,30 0,0 m -229.45,-11.17 0,0 m -26.99,23.36 0,0 m 27.5,-38.13 0,0 m 216.76,30 0,0 m -159.3,-82.34 0,0 m 44.8,-112.82 0,0 m 15.78,17.27 0,0 m 86.49,174.34 0,0 m 171.95,-212.43 0,0 m -82.42,126.53 0,0 m -295.59,61.01 0,0 m 123.13,25.39 0,0 m -94.14,-26.95 0,0 m 161.8,-21.84 0,0 m 76.83,-9.14 0,0 m -215.74,27.43 0,0 m 160.78,38.63 0,0 m -238.13,12.73 0,0 m 206.1,-19.33 0,0 m -55.47,-178.91 0,0 m -85.98,151.99 0,0 m -37.65,-30 0,0 m 480.31,-194.65 0,0 m -441.13,157.54 0,0 m -54.46,79.81 0,0 m 104.81,-109.81 0,0 m 135.86,124.03 0,0 m -84.96,-17.27 0,0 m -158.75,4.57 0,0 m 453.82,-210.39 0,0 m -170.42,60.98 0,0 m -296.65,182.93 0,0 m 248.79,-290.71 0,0 m -146.52,132.15 0,0 m -15.27,15.28 0,0 m 184.72,106.71 0,0 m -74.29,10.67 0,0 m 7.11,-13.71 0,0 m -178.09,12.18 0,0 m 332.77,-113.82 0,0 m -194.37,107.73 0,0 m -10.16,-89.45 0,0 m -25.43,81.33 0,0 m 83.44,-270.9 0,0 m -109.92,271.4 0,0 m -26.95,-89.45 0,0 m -54.97,103.67 0,0 m 195.9,8.64 0,0 m 88.01,-67.58 0,0 m -140.43,-134.18 0,0 m 286.95,-15.74 0,0 m -425.35,185.5 0,0 m 213.21,35.55 0,0 m 35.62,-22.85 0,0 m -206.05,-93.01 0,0 m -54.46,119.92 0,0 m 449.77,-202.77 0,0 m -150.08,107.23 0,0 m -311.91,100.11 0,0 m -8.13,22.39 0,0 m 349.02,-114.34 0,0 m -332.73,53.36 0,0 m 371.91,-209.41 0,0 m 120.08,-4.57 0,0 m -468.59,229.21 0,0 m 111.91,-43.71 0,0 m -130.74,44.73 0,0 m 196.91,17.77 0,0 m -101.75,-31.99 0,0 m 40.19,-140.27 0,0 m -72.26,113.32 0,0 m 42.73,-22.85 0,0 m -111.95,82.81 0,0 m 291.05,-46.76 0,0 m 2.54,-16.76 0,0 m -13.24,7.11 0,0 m -51.37,-113.32 0,0 m -201.48,86.92 0,0 m 189.76,78.24 0,0 m 233.05,-211.92 0,0 m -455.39,211.92 0,0 m 37.66,-80.31 0,0 m 25.93,-33.01 0,0 m 70.75,100.62 0,0 m -51.41,-16.75 0,0"
         style="fill:none;stroke:#00c4dd;stroke-width:4.0687499;stroke-linecap:round;stroke-linejoin:round;stroke-miterlimit:10;stroke-dasharray:none;stroke-opacity:1"
         id="path60"
         inkscape:connector-curvature="0" /><path
         d="m 1454.65,2321.7 0,0 m 219.8,-296.29 0,0 m 218.28,120.43 0,0 m 17.31,-35.55 0,0 m -165.86,26.41 0,0 m -240.66,133.67 0,0 m 216.75,31.52 0,0 m -262.54,9.14 0,0 m 210.63,-252.58 0,0 m -222.34,289.18 0,0 m 282.89,-49.8 0,0 m -236.61,-4.1 0,0 m 269.18,-73.17 0,0 m -107.89,108.75 0,0 m -43.75,-209.88 0,0 m -76.32,136.72 0,0 m -82.43,74.69 0,0 m 310.9,-144.34 0,0 m 167.89,-56.41 0,0 m -366.83,41.18 0,0 m -84.46,142.81 0,0 m 144.5,-156.02 0,0 m 254.92,-17.81 0,0 m -365.35,135.7 0,0 m -41.21,28.99 0,0 m 224.37,-216.02 0,0 m -163.83,104.22 0,0 m 97.7,-44.73 0,0 m -139.42,136.18 0,0 m 233.56,20.86 0,0 m 244.72,-256.64 0,0 m -520,293.2 0,0 m 320.55,-132.11 0,0 m -158.24,-90.98 0,0 m 174.53,41.68 0,0 m -325.62,148.91 0,0 m 105.82,-125.04 0,0 m 21.87,0 0,0 m -61.56,70.16 0,0 m -63.09,80.27 0,0 m 23.4,-47.77 0,0 m 137.89,-208.87 0,0 m -35.12,223.63 0,0 m -118.55,1.02 0,0 m -6.09,4.06 0,0 m 151.09,14.73 0,0 m -139.38,-34.57 0,0 m 8.64,-9.15 0,0 m 446.21,-165.15 0,0 m -378.56,175.31 0,0 m -103.28,52.38 0,0 m 26.99,-79.29 0,0 m 120.55,25.39 0,0 m -77.3,-16.25 0,0 m 29.49,-94.53 0,0 m 65.12,-56.92 0,0 m 143.98,143.83 0,0 m -290,40.66 0,0 m 4.06,-37.61 0,0 m 345.98,-68.09 0,0 m -319.53,91.45 0,0 m 44.3,7.15 0,0 m 332.73,-188.56 0,0 m -49.84,85.39 0,0 m -283.91,35.04 0,0 m -2.54,23.4 0,0 m 235.04,-53.36 0,0 m -113.44,-148.95 0,0 m 23.91,276.49 0,0 m -167.38,-59.45 0,0 m 438.55,-236.84 0,0 m -453.83,246.48 0,0 m 121.1,-119.92 0,0 m 266.6,-40.66 0,0 m -195.39,-21.88 0,0 m -233.01,229.22 0,0 m 67.66,-28.48 0,0 m 49.33,-49.25 0,0 m 335.82,-140.78 0,0 m -424.33,194.64 0,0 m -9.65,-10.7 0,0 m -18.32,44.22 0,0 m 301.72,-81.8 0,0 m -309.38,64.53 0,0 m 120.08,-173.82 0,0 m 78.36,-34.03 0,0 m 112.46,159.57 0,0 m 4.06,-3.04 0,0 m -258.98,16.75 0,0 m 234.06,0.51 0,0 m 156.72,-142.3 0,0 m -225.43,-99.61 0,0 m 106.87,53.86 0,0 m -305.78,168.75 0,0 m 266.1,17.27 0,0 m -271.21,47.77 0,0 m 249.84,-21.83 0,0 m 155.66,-144.85 0,0 m -420.78,166.68 0,0 m 217.27,-228.71 0,0 m -193.83,193.13 0,0 m -6.64,19.84 0,0 m 54.45,-16.25 0,0 m 152.11,-287.65 0,0 m 9.69,180.89 0,0 m -235.08,139.26 0,0 m 280.35,-37.07 0,0 m 39.69,-146.4 0,0 m -207.58,127.57 0,0 m -106.83,40.67 0,0 m 5.58,-6.6 0,0 m -20.35,47.77 0,0 m 30.51,-91.49 0,0 m -14.22,49.3 0,0 m 266.09,-8.12 0,0 m -103.28,-210.94 0,0 m -41.72,212.46 0,0 m 112.93,20.82 0,0 m -212.15,-25.39 0,0 m -33.08,35.04 0,0 m 122.11,-29.45 0,0 m -55.98,-63.52 0,0 m 94.65,13.71 0,0 m -16.8,-140.78 0,0 m 71.76,82.85 0,0 m 208.59,-86.91 0,0 m -283.39,203.28 0,0 m 221.83,-206.84 0,0 m -356.17,206.33 0,0 m 7.15,14.73 0,0 m 42.22,-30.98 0,0 m 105.32,22.34 0,0 m -163.32,22.35 0,0 m 22.89,-75.2 0,0 m 394.33,-100.62 0,0 m -115,-124.03 0,0 m -47.3,278.52 0,0 m -92.11,-214.45 0,0 m -2.03,16.25 0,0 m 69.72,203.28 0,0 m 17.27,-30.47 0,0 m -50.35,-205.86 0,0 m -187.74,232.77 0,0 m 320,-95.54 0,0 m -312.89,81.32 0,0 m 406.53,-193.63 0,0 m -395.86,180.43 0,0 m -9.14,10.16 0,0 m 314.45,-131.64 0,0 m -325.66,156.52 0,0 m 180.11,-251.05 0,0 m -86.48,162.65 0,0 m 142.46,68.09 0,0 m -230.98,-8.13 0,0 m 91.57,-7.15 0,0 m 248.32,-78.24 0,0 m -348.56,119.42 0,0 m 23.91,-16.25 0,0 m 272.22,-53.87 0,0 m -65.62,-214.96 0,0 m -204.02,212.42 0,0 m 139.88,-108.75 0,0 m -16.25,125 0,0 m -46.33,-111.29 0,0 m 74.81,-7.62 0,0 m -101.25,29.96 0,0 m -10.2,38.64 0,0 m 104.84,-146.88 0,0 m -169.45,250.55 0,0 m -5.08,6.6 0,0 m 242.7,-252.58 0,0 m -116.02,114.38 0,0 m -124.14,133.63 0,0 m 3.05,-20.31 0,0 m 359.73,-178.4 0,0 m -358.21,178.4 0,0 m 253.91,2.54 0,0 m 37.65,-64.53 0,0 m -31.05,58.43 0,0 m -93.59,-148.9 0,0 m 271.17,-17.31 0,0 m -420.28,133.67 0,0 m 274.77,-150.93 0,0 m -243.71,96.56 0,0 m 154.69,105.2 0,0 m 215.19,-195.67 0,0 m -222.85,136.72 0,0 m 50.9,50.31 0,0 m -249.34,-3.04 0,0 m 306.84,-197.19 0,0 m -42.74,58.44 0,0 m 297.11,-198.21 0,0 m -305.27,336.45 0,0 m -54.96,11.17 0,0 m -28.99,-226.64 0,0 m 42.74,-84.88 0,0 m -4.06,134.68 0,0 m 71.21,143.28 0,0 m 160.78,-152.46 0,0 m -91.56,57.46 0,0"
         style="fill:none;stroke:#00c4dd;stroke-width:4.0687499;stroke-linecap:round;stroke-linejoin:round;stroke-miterlimit:10;stroke-dasharray:none;stroke-opacity:1"
         id="path62"
         inkscape:connector-curvature="0" /><path
         d="m 1649.02,2085.37 0,0 m 21.88,-73.67 0,0 m 1.01,317.11 0,0 m 211.68,-259.18 0,0 m -422.81,239.37 0,0 m 19.34,-53.87 0,0 m 29.49,3.05 0,0 m 21.87,-44.22 0,0 m 221.84,48.28 0,0 m -171.95,-128.59 0,0 m -124.18,183.98 0,0 m 147.58,-195.66 0,0 m 62.57,-97.58 0,0 m 62.07,247.5 0,0 m -54.45,-41.17 0,0 m 176.06,-115.35 0,0 m -403.48,227.69 0,0 m 40.7,-54.41 0,0 m -19.33,27.97 0,0 m 128.75,-208.36 0,0 m 97.14,-61.53 0,0 m 42.23,236.84 0,0 m -43.75,-271.87 0,0 m -59.02,312.53 0,0 m -181.14,-2.03 0,0 m 76.33,-80.78 0,0 m -43.24,50.82 0,0 m 53.95,-108.79 0,0 m 108.86,-139.25 0,0 m -146.01,185.5 0,0 m 231.99,58.44 0,0 m -278.83,48.79 0,0 m 49.38,-94.02 0,0 m 90.04,-106.21 0,0 m -122.62,187.03 0,0 m 146.05,-199.73 0,0 m 391.25,-167.69 0,0 m -469.61,243.94 0,0 m -86.52,117.89 0,0 m 95.66,-143.32 0,0 m -68.67,130.63 0,0 m -23.94,-7.62 0,0 m 417.22,-182.97 0,0 m -417.22,187.03 0,0 m -2.03,48.28 0,0 m 264.61,-45.74 0,0 m -258.99,-17.3 0,0 m 114.45,21.87 0,0 m 26.49,0 0,0 m 188.24,-155 0,0 m -106.33,-146.87 0,0 m -13.75,105.19 0,0 m -7.11,20.82 0,0 m -121.6,164.69 0,0 m -56.99,8.12 0,0 m -9.18,-45.74 0,0 m 130.27,-131.64 0,0 m 128.71,-25.9 0,0 m -16.75,206.33 0,0 m -262.58,21.33 0,0 m 13.75,-33.01 0,0 m 32.07,-45.23 0,0 m 164.33,-157.07 0,0 m -202.5,219.57 0,0 m 219.81,13.2 0,0 m -105.35,-181.45 0,0 m 225.43,85.9 0,0 m -199.96,-35.08 0,0 m 19.84,48.79 0,0 m 45.27,79.81 0,0 m 107.86,-68.6 0,0 m -34.58,-89.96 0,0 m -233.55,79.3 0,0 m -64.61,108.24 0,0 m 7.62,-14.76 0,0 m 285.43,-51.33 0,0 m -276.25,20.35 0,0 m 65.62,-19.3 0,0 m -9.68,-5.62 0,0 m 92.61,35.08 0,0 m -93.12,-51.33 0,0 m -44.26,22.38 0,0 m 285.43,-25.43 0,0 m -90.04,54.88 0,0 m -102.77,-166.68 0,0 m 115,-61.52 0,0 m -15.78,52.35 0,0 m -63.6,-28.44 0,0 m 370.39,-70.67 0,0 m -507.77,249.03 0,0 m 90.04,6.13 0,0 m -24.92,-85.39 0,0 m -34.11,63.51 0,0 m -28.47,11.72 0,0 m 149.06,-133.16 0,0 m -31.52,138.24 0,0 m -98.21,-5.62 0,0 m 247.27,10.7 0,0 m -275.78,36.56 0,0 m 172.5,-257.65 0,0 m 211.13,115.35 0,0 m -393.79,158.08 0,0 m 267.62,-269.37 0,0 m 146.52,95.04 0,0 m -367.85,107.73 0,0 m -6.6,28.48 0,0 m 256.44,-27.97 0,0 m -150.62,-88.4 0,0 m -38.67,8.63 0,0 m -37.66,85.36 0,0 m 60.04,-86.37 0,0 m 142.97,103.16 0,0 m 86.52,-162.15 0,0 m -331.75,128.09 0,0 m 17.3,4.57 0,0 m -36.64,47.27 0,0 m 21.87,-37.11 0,0 m 329.22,-180.39 0,0 m -336.32,173.28 0,0 m 248.78,29.49 0,0 m -234.02,-39.14 0,0 m 225.39,23.4 0,0 m 37.15,-33.56 0,0 m -295.12,79.3 0,0 m -2.54,4.06 0,0 m 92.62,-167.73 0,0 m -11.72,108.75 0,0 m 195.39,-21.33 0,0 m -99.22,58.44 0,0 m -162.81,-26.41 0,0 m 265.08,3.05 0,0 m -198.95,-104.18 0,0 m 123.13,-140.28 0,0 m 70.74,247 0,0 m -21.87,-289.69 0,0 m -116.53,298.83 0,0 m 146.53,-10.67 0,0 m -255.43,-5.58 0,0 m 237.11,20.82 0,0 m 84.96,-167.19 0,0 m -343.44,177.34 0,0 m 105.31,-149.41 0,0 m 185.74,84.88 0,0 m 10.16,-10.15 0,0 m 94.65,-86.41 0,0 m -182.66,88.95 0,0 m 272.19,-144.85 0,0 m -481.8,212.93 0,0 m 288.48,-60.47 0,0 m 58.52,-67.11 0,0 m -296.14,43.21 0,0 m -7.11,50.82 0,0 m 134.3,-225.63 0,0 m 8.67,-10.66 0,0 m -101.76,131.6 0,0 m -29.02,76.25 0,0 m 197.42,-139.26 0,0 m 97.19,-25.39 0,0 m -328.16,218.01 0,0 m 244.72,-8.63 0,0 m -218.28,-18.32 0,0 m 136.88,-226.65 0,0 m -181.14,247.5 0,0 m -0.5,13.21 0,0 m 342.42,-110.28 0,0 m -277.31,83.32 0,0 m 45.78,-33 0,0 m 45.28,-19.81 0,0 m 289.02,-116.91 0,0 m -280.86,175.35 0,0 m -166.37,-2.03 0,0 m 102.27,6.09 0,0 m 159.77,1.02 0,0 m -204.57,-82.85 0,0 m 237.1,27.96 0,0 m 1.02,-5.58 0,0 m 11.21,19.3 0,0 m 189.26,-173.32 0,0 m -315.47,-20.32 0,0 m -181.64,249.03 0,0 m 98.71,-47.78 0,0 m -88.51,36.1 0,0 m 303.74,-51.33 0,0 m -319.02,77.73 0,0 m 360.24,-216.48 0,0 m 135.35,-90.98 0,0 m -470.63,267.81 0,0 m 39.14,-72.14 0,0 m 119.07,99.61 0,0 m 51.4,5.58 0,0 m 263.56,-235.31 0,0 m -209.61,178.91 0,0 m -69.73,-222.07 0,0 m -203.01,238.82 0,0 m 146.53,-178.36 0,0 m -169.42,247.5 0,0 m 416.72,-190.07 0,0 m -321.05,130.62 0,0 m 119.57,-226.17 0,0 m -205.59,263.75 0,0"
         style="fill:none;stroke:#00c4dd;stroke-width:4.0687499;stroke-linecap:round;stroke-linejoin:round;stroke-miterlimit:10;stroke-dasharray:none;stroke-opacity:1"
         id="path64"
         inkscape:connector-curvature="0" /><path
         d="m 1503.52,2264.27 0,0 m 188.75,61.49 0,0 m -27.97,-13.71 0,0 m 31.52,11.17 0,0 m -76.29,-2.03 0,0 m 317.97,-205.82 0,0 m -284.92,-41.17 0,0 m -6.1,246.99 0,0 m -107.85,-103.67 0,0 m 102.78,77.26 0,0 m 289.49,-183.47 0,0 m -408.05,87.92 0,0 m 61.56,75.2 0,0 m -132.3,52.34 0,0 m 67.19,-45.74 0,0 m -16.29,-53.87 0,0 m 274.72,-142.3 0,0 m -321.56,220.08 0,0 m 364.85,-225.16 0,0 m -352.11,218.56 0,0 m 299.68,-33.56 0,0 m -68.16,40.16 0,0 m -216.76,-34.06 0,0 m 304.77,-77.23 0,0 m -339.89,147.38 0,0 m 50.9,-53.4 0,0 m 124.14,-54.37 0,0 m -117.03,54.37 0,0 m -11.72,-50.31 0,0 m 296.14,-115.35 0,0 m -319.03,163.63 0,0 m 305.32,-44.72 0,0 m -103.32,-230.2 0,0 m -203.01,272.89 0,0 m -11.17,54.38 0,0 m 142.96,-21.33 0,0 m 255.9,-151.96 0,0 m -390.23,111.29 0,0 m -24.42,75.75 0,0 m 15.28,-53.36 0,0 m 36.6,-12.23 0,0 m 166.91,42.7 0,0 m -109.41,-42.19 0,0 m -60.04,-34.53 0,0 m 253.91,22.34 0,0 m -152.15,33.55 0,0 m 297.15,-187.03 0,0 m -364.3,110.28 0,0 m 39.69,-81.29 0,0 m 91.6,-20.86 0,0 m -194.38,179.92 0,0 m 60.04,-70.66 0,0 m 185.71,75.23 0,0 m 59.02,-161.6 0,0 m -319.02,192.11 0,0 m 27.5,-72.19 0,0 m 52.89,-53.36 0,0 m 1.01,13.2 0,0 m -53.9,45.24 0,0 m -22.93,52.85 0,0 m 42.73,-42.69 0,0 m 42.27,-39.11 0,0 m -2.58,-58.98 0,0 m 113.47,125.04 0,0 m -166.87,-25.43 0,0 m 160.27,-227.15 0,0 m -166.36,252.58 0,0 m 41.71,-112.31 0,0 m 444.69,-124.02 0,0 m -507.3,222.62 0,0 m 13.75,-23.91 0,0 m 17.3,-34.53 0,0 m -27.46,47.77 0,0 m 61.56,-9.68 0,0 m 453.83,-244.97 0,0 m -486.91,240.4 0,0 m 240.66,-15.75 0,0 m 62.07,-196.17 0,0 m -278.32,224.1 0,0 m 29.53,-12.69 0,0 m 117.03,-197.7 0,0 m 22.39,-51.33 0,0 m 241.17,91.49 0,0 m -446.25,164.65 0,0 m 413.16,-134.14 0,0 m -307.81,-21.37 0,0 m -98.2,190.08 0,0 m 214.72,6.6 0,0 m -31.56,-303.4 0,0 m -168.4,246.49 0,0 m -44.8,63 0,0 m 174.02,-137.73 0,0 m -159.76,84.88 0,0 m 238.63,-125.51 0,0 m -253.91,170.24 0,0 m 18.83,-41.17 0,0 m 302.74,-22.35 0,0 m -261.53,-3.55 0,0 m -11.17,-20.35 0,0 m 108.36,-127.54 0,0 m 149.06,-49.3 0,0 m -55.43,163.12 0,0 m -239.14,87.43 0,0 m 77.35,-28.99 0,0 m 175.03,28.99 0,0 m -104.84,-47.27 0,0 m 136.37,10.67 0,0 m -275.28,18.28 0,0 m -19.33,25.93 0,0 m 30.55,-69.14 0,0 m 168.39,-206.32 0,0 m -137.89,250.07 0,0 m -24.41,-45.23 0,0 m 346.48,-50.35 0,0 m -77.3,-145.82 0,0 m -33.09,254.1 0,0 m -268.12,27.42 0,0 m 211.64,-286.13 0,0 m -171.45,245.47 0,0 m 4.57,-47.23 0,0 m -41.21,49.77 0,0 m 231.49,-220.04 0,0 m -232,242.42 0,0 m 48.32,-35.08 0,0 m 139.42,49.81 0,0 m -78.87,-189.07 0,0 m -118.05,181.96 0,0 m 378.56,-145.36 0,0 m 103.79,-108.75 0,0 m 44.3,-61.99 0,0 m -477.27,281.53 0,0 m -40.2,-0.51 0,0 m 432.97,-170.74 0,0 m -397.38,114.33 0,0 m 159.26,-171.76 0,0 m 6.64,47.78 0,0 m -195.39,183.47 0,0 m 272.22,-15.78 0,0 m -145.03,37.62 0,0 m 147.57,-23.91 0,0 m -139.41,-123.98 0,0 m -61.05,48.28 0,0 m -31.57,78.28 0,0 m -65.11,63.01 0,0 m 84.96,-57.42 0,0 m 85.97,-134.18 0,0 m 80.39,112.81 0,0 m 198.44,-160.59 0,0 m -438.05,182.47 0,0 m 382.11,-102.19 0,0 m -162.85,-87.89 0,0 m -127.69,166.68 0,0 m 461.48,-289.69 0,0 m -237.11,272.42 0,0 m -229.96,23.36 0,0 m 324.61,-121.45 0,0 m -403.48,148.4 0,0 m 230.47,-225.66 0,0 m -128.71,65.08 0,0 m 207.07,63.01 0,0 m -6.6,51.32 0,0 m 48.83,-58.43 0,0 m -331.72,49.8 0,0 m 255.94,33.01 0,0 m -179.1,20.86 0,0 m 370.39,-211.96 0,0 m -368.87,103.21 0,0 m 19.84,16.25 0,0 m 39.69,-121.99 0,0 m 119.57,109.29 0,0 m -46.33,118.91 0,0 m -246.25,29.49 0,0 m 7.11,-9.18 0,0 m -12.19,13.24 0,0 m 12.19,-48.28 0,0 m 268.17,-7.61 0,0 m 8.12,-7.66 0,0 m -81.41,-74.69 0,0 m -179.6,54.88 0,0 m 267.61,17.27 0,0 m -279.29,37.62 0,0 m 336.28,-135.71 0,0 m -243.2,-23.86 0,0 m 25.94,145.35 0,0 m -99.69,7.62 0,0 m -26.99,26.44 0,0 m 83.44,-56.44 0,0 m 255.93,-71.14 0,0 m -223.86,91.49 0,0 m 47.81,-192.11 0,0 m -10.66,53.36 0,0 m 53.43,-99.1 0,0 m 249.3,60.97 0,0 m -146.52,81.84 0,0 m 146.52,-82.85 0,0 m -441.64,166.72 0,0 m 238.63,23.86 0,0 m -119.57,-10.66 0,0 m -123.12,-24.42 0,0 m 43.75,-11.68 0,0"
         style="fill:none;stroke:#00c4dd;stroke-width:4.0687499;stroke-linecap:round;stroke-linejoin:round;stroke-miterlimit:10;stroke-dasharray:none;stroke-opacity:1"
         id="path66"
         inkscape:connector-curvature="0" /><path
         d="m 1455.7,2316.62 0,0 m 207.58,8.63 0,0 m -111.44,-40.16 0,0 m 128.24,-120.93 0,0 m 42.73,-120.47 0,0 m 116.02,153.47 0,0 m -337.85,85.39 0,0 m -43.79,31.53 0,0 m 446.76,-195.16 0,0 m -447.78,196.68 0,0 m 42.78,-32.03 0,0 m 65.11,-128.55 0,0 m -93.12,134.14 0,0 m 19.33,-1.02 0,0 m -34.1,19.34 0,0 m 426.41,-159.57 0,0 m -335.82,139.72 0,0 m 245.23,-128.55 0,0 m -226.91,-3.05 0,0 m 66.13,152.46 0,0 m -161.29,13.21 0,0 m 284.92,-242.43 0,0 m -23.9,222.11 0,0 m -26.96,-282.57 0,0 m 118.56,194.14 0,0 m -368.4,107.73 0,0 m 221.33,4.57 0,0 m -122.11,-164.14 0,0 m 67.69,-30.51 0,0 m 254.38,30.51 0,0 m -423.83,168.2 0,0 m 430.98,-174.8 0,0 m -197.93,170.23 0,0 m -18.83,-274.96 0,0 m -80.39,77.27 0,0 m 356.68,-14.22 0,0 m -186.25,120.94 0,0 m -58.01,-167.7 0,0 m 162.35,80.27 0,0 m -392.82,133.68 0,0 m -9.14,36.6 0,0 m 32.54,-78.28 0,0 m 6.13,-3.05 0,0 m 150.59,85.39 0,0 m 37.66,-20.82 0,0 m -148.6,-87.93 0,0 m 230,48.79 0,0 m -299.18,38.12 0,0 m 95.67,-149.96 0,0 m -59.03,138.75 0,0 m 224.38,5.63 0,0 m -36.64,-22.38 0,0 m 280.35,-228.72 0,0 m -74.3,72.19 0,0 m -206.05,212.42 0,0 m -231.49,-37.07 0,0 m 20.86,-27.97 0,0 m 31.53,-48.28 0,0 m 96.17,-24.41 0,0 m 17.3,135.19 0,0 m 139.92,-107.73 0,0 m -139.41,-98.09 0,0 m -88.01,178.36 0,0 m 157.7,27.46 0,0 m -190.28,-49.8 0,0 m 261.53,-18.79 0,0 m -313.44,68.09 0,0 m 312.42,-69.1 0,0 m -30.54,24.88 0,0 m -114.46,-132.62 0,0 m 186.72,38.59 0,0 m -85.98,-66.56 0,0 m -279.84,237.35 0,0 m 199.96,-42.7 0,0 m -98.71,-18.28 0,0 m 80.9,-202.81 0,0 m -140.43,192.11 0,0 m 120.59,-175.32 0,0 m 24.92,50.82 0,0 m 91.6,150.94 0,0 m 30,-66.56 0,0 m -204.02,-4.1 0,0 m -74.81,43.71 0,0 m 448.24,-239.38 0,0 m -395.82,224.65 0,0 m -35.11,35.08 0,0 m 230.5,-3.55 0,0 m -257.97,-9.18 0,0 m 3.05,-8.13 0,0 m 130.74,25.94 0,0 m -137.34,-10.16 0,0 m 280.31,-27.97 0,0 m -9.14,-240.39 0,0 m -265.08,275.47 0,0 m 55.98,-18.83 0,0 m 230.98,-37.07 0,0 m -297.66,78.75 0,0 m 136.88,-21.83 0,0 m 16.79,-171.29 0,0 m -105.31,151.95 0,0 m 231.48,-195.16 0,0 m -3.04,204.85 0,0 m -218.79,-37.11 0,0 m 219.3,25.9 0,0 m -34.11,37.61 0,0 m -105.82,-193.12 0,0 m -79.37,159.57 0,0 m 352.62,-174.3 0,0 m -197.93,193.13 0,0 m 1.01,-270.9 0,0 m 118.56,196.68 0,0 m -236.61,0 0,0 m 181.65,-109.77 0,0 m 36.64,120.43 0,0 m -95.16,-215.97 0,0 m 192.85,72.18 0,0 m -158.75,183.44 0,0 m -248.79,47.78 0,0 m 288.99,-79.26 0,0 m -76.84,70.11 0,0 m -58.01,-6.09 0,0 m -105.82,-44.73 0,0 m -3.55,-3.55 0,0 m 181.13,58.95 0,0 m -180.12,-39.11 0,0 m 237.11,-11.72 0,0 m 25.43,-85.89 0,0 m -137.89,-93.48 0,0 m -171.99,221.56 0,0 m 105.35,-119.41 0,0 m -47.34,30.47 0,0 m 43.24,-4.07 0,0 m 44.3,-103.67 0,0 m -49.89,172.82 0,0 m 180.12,-7.66 0,0 m -31.52,33.05 0,0 m 134.8,-143.83 0,0 M 1590,2166.7 l 0,0 m 77.85,-142.31 0,0 m -215.23,318.13 0,0 m 139.41,-34.03 0,0 m -112.93,-41.17 0,0 m 273.71,1.02 0,0 m 180.12,-173.83 0,0 m -483.36,248.01 0,0 m 208.63,-13.21 0,0 m 6.6,-248.51 0,0 m -64.1,235.31 0,0 m 236.57,-227.7 0,0 m -50.86,113.36 0,0 m -81.41,-91.48 0,0 m -232.03,157.03 0,0 m 54.96,-64.53 0,0 m 211.64,67.58 0,0 m -73.75,56.4 0,0 m -211.68,14.26 0,0 m 17.81,-18.83 0,0 m 206.6,4.57 0,0 m -25.46,-287.65 0,0 m -123.13,170.27 0,0 m -75.31,124.49 0,0 m 241.68,-22.34 0,0 m -154.14,-81.33 0,0 m 155.15,12.7 0,0 m -181.13,-34.03 0,0 m -51.87,101.64 0,0 m 179.61,8.13 0,0 m 280.85,-201.76 0,0 m -364.29,61.99 0,0 m 191.79,65.08 0,0 m 143.99,-126.05 0,0 m -38.17,39.14 0,0 m -329.68,130.58 0,0 m -69.18,40.67 0,0 m 504.22,-247.5 0,0 m -258.99,236.83 0,0 m -159.76,-72.65 0,0 m -92.11,88.4 0,0 m 371.44,-168.21 0,0 m -83.44,65.04 0,0 m -70.23,-213.94 0,0 m -209.1,270.35 0,0 m -2.03,15.78 0,0 m 159.26,-118.95 0,0 m 41.71,144.85 0,0 m -155.19,-93.52 0,0 m 373.48,-78.75 0,0 m -437.58,204.81 0,0 m 119.06,-204.3 0,0 m -113.98,190.59 0,0 m 69.18,-140.28 0,0 m -49.34,69.61 0,0 m 513.4,-250.04 0,0 m -521.53,292.23 0,0 m 272.7,-30.51 0,0 m -37.15,-278.48 0,0 m 206.1,123.99 0,0 m -26.49,12.19 0,0 m -189.26,158.08 0,0 m 63.6,-44.22 0,0"
         style="fill:none;stroke:#00c4dd;stroke-width:4.0687499;stroke-linecap:round;stroke-linejoin:round;stroke-miterlimit:10;stroke-dasharray:none;stroke-opacity:1"
         id="path68"
         inkscape:connector-curvature="0" /><path
         d="m 1765.04,2249.55 0,0 m -242.7,-25.94 0,0 m -66.17,109.26 0,0 m 19.88,-38.09 0,0 m -2.57,-7.15 0,0 m 2.03,21.88 0,0 m 271.21,-49.81 0,0 m 27.97,-67.61 0,0 m -127.19,134.68 0,0 m 302.23,-225.11 0,0 m -445.71,131.09 0,0 m 141.45,-176.33 0,0 m -185.2,245.98 0,0 m -9.68,35.04 0,0 m 22.38,-40.67 0,0 m 492.03,-247.96 0,0 m -498.63,248.51 0,0 m 71.21,-114.88 0,0 m 30.04,84.37 0,0 m 3.55,-58.43 0,0 m 172.5,54.88 0,0 m -3.05,9.14 0,0 m 82.43,-75.24 0,0 m -159.77,-172.26 0,0 m -211.68,306.44 0,0 m 196.92,-2.53 0,0 m -34.61,-19.81 0,0 m -119.57,-45.74 0,0 m 217.26,-203.28 0,0 m -261.01,274.92 0,0 m 5.58,5.08 0,0 m 2.58,-44.18 0,0 m 463.01,-181.45 0,0 m -249.85,215.47 0,0 m 14.77,-249.53 0,0 m 150.08,88.94 0,0 m -363.79,128.09 0,0 m 418.24,-157.07 0,0 m -427.38,162.15 0,0 m 220.31,-174.85 0,0 m 67.66,120.98 0,0 m -296.1,59.96 0,0 m 223.83,-231.25 0,0 m -99.18,126.06 0,0 m 270.67,-17.82 0,0 m -165.86,142.31 0,0 m -59.54,-59.45 0,0 m -19.33,-107.23 0,0 m -103.79,122.97 0,0 m 160.78,-210.9 0,0 m 221.84,38.63 0,0 m -414.69,183.99 0,0 m 23.4,-38.64 0,0 m 40.7,-40.15 0,0 m -65.12,84.88 0,0 m 436.57,-197.69 0,0 m -123.64,141.75 0,0 m -335.31,100.16 0,0 m 5.08,-16.29 0,0 m 13.24,-24.88 0,0 m 530.67,-299.85 0,0 m -498.13,224.61 0,0 m 392.81,-146.87 0,0 m -332.77,124.53 0,0 m 189.3,49.8 0,0 m -187.74,-58.94 0,0 m -64.65,80.78 0,0 m 305.82,-153.48 0,0 m 28.99,55.9 0,0 m -188.24,-74.18 0,0 m 58.51,212.42 0,0 m -247.3,5.59 0,0 m 4.06,-6.6 0,0 m 299.18,-79.3 0,0 m -297.62,73.2 0,0 m 176.02,-186.01 0,0 m -173.48,177.38 0,0 m 281.37,-37.11 0,0 m -303.24,98.09 0,0 m 151.6,-247.5 0,0 m -10.16,167.69 0,0 m 54.42,-113.82 0,0 m -159.26,90.97 0,0 m 101.79,-46.76 0,0 m 119.58,-147.89 0,0 m 58.47,173.29 0,0 m -243.2,-20.83 0,0 m 311.4,-111.79 0,0 m -80.39,179.37 0,0 m -73.78,-196.17 0,0 m -182.15,167.23 0,0 m 106.83,55.39 0,0 m 115,1.01 0,0 m -254.41,24.89 0,0 m 31.05,-70.63 0,0 m 158.25,51.84 0,0 m 351.56,-300.86 0,0 m -526.6,250.55 0,0 m 33.08,-36.1 0,0 m 207.07,24.42 0,0 m -261.01,84.88 0,0 m 257.97,-167.74 0,0 m -147.04,-5.58 0,0 m -102.81,151.44 0,0 m 461.99,-202.77 0,0 m -247.77,-0.51 0,0 m -199.96,153.48 0,0 m 316.99,-56.41 0,0 m -328.16,77.27 0,0 m 222.34,-218.56 0,0 m -51.91,230.75 0,0 m -56.99,-1.53 0,0 m 64.64,-45.74 0,0 m 89.03,44.73 0,0 m -208.09,-44.22 0,0 m 226.41,5.08 0,0 m -231.53,-30 0,0 m 117.54,-9.65 0,0 m -36.13,-35.08 0,0 m 47.85,-96.56 0,0 m -70.23,212.46 0,0 m 237.11,-139.77 0,0 m -339.38,106.21 0,0 m 14.77,-10.15 0,0 m -11.21,44.72 0,0 m 15.78,-32.03 0,0 m 197.42,52.85 0,0 m 115.51,-98.59 0,0 m -13.75,-33.05 0,0 m -339.38,143.36 0,0 m 424.34,-176.87 0,0 m 23.4,-64.53 0,0 m -145.51,182.93 0,0 m -261.52,9.14 0,0 m 239.14,10.7 0,0 m -271.72,0 0,0 m 155.7,-194.65 0,0 m -138.4,222.07 0,0 m 110.94,-54.88 0,0 m -22.89,-115.35 0,0 m 282.89,-22.89 0,0 m -334.81,141.29 0,0 m 126.72,-199.73 0,0 m -58,231.76 0,0 m 91.56,19.8 0,0 m -222.85,17.77 0,0 m 242.18,-249.53 0,0 m -168.9,197.23 0,0 m 4.57,-32.54 0,0 m 175.55,60.47 0,0 m -111.96,-10.16 0,0 m -24.92,-91.99 0,0 m -109.92,97.58 0,0 m 212.19,6.6 0,0 m 174.53,-229.22 0,0 m -6.64,88.95 0,0 m -163.83,-171.76 0,0 m -212.15,306.45 0,0 m 309.84,-67.08 0,0 m -207.07,43.21 0,0 m 169.42,-159.61 0,0 m -199.46,122.5 0,0 m -81.4,80.78 0,0 m 4.06,4.61 0,0 m 36.64,-87.42 0,0 m 298.67,-11.21 0,0 m -79.37,70.66 0,0 m 47.81,-43.2 0,0 m -55.94,46.25 0,0 m 125.16,-113.32 0,0 m -191.33,-140.78 0,0 m 84.49,243.43 0,0 m -60.54,-237.34 0,0 m 64.1,16.76 0,0 m 147.54,43.71 0,0 m -402.97,168.75 0,0 m 149.57,-2.54 0,0 m -155.16,2.54 0,0 m 180.63,-177.38 0,0 m -72.27,183.47 0,0 m 173.01,-34.06 0,0 m -133.32,50.31 0,0 m 5.62,-226.13 0,0 m 343.4,-88.95 0,0 m -313.4,63.52 0,0 m -185.19,215.98 0,0 m 199.96,-257.15 0,0 m 9.65,-17.27 0,0 m -191.29,277.97 0,0 m -27.5,46.76 0,0 m 275.78,-38.59 0,0 m -246.25,-14.77 0,0 m 5.59,7.11 0,0 m 173,-216.99 0,0 m -26.48,40.66 0,0 m -121.09,157.03 0,0 m -33.05,21.84 0,0 m 190.27,30 0,0 m -209.1,-1.02 0,0 m 422.81,-165.66 0,0"
         style="fill:none;stroke:#00c4dd;stroke-width:4.0687499;stroke-linecap:round;stroke-linejoin:round;stroke-miterlimit:10;stroke-dasharray:none;stroke-opacity:1"
         id="path70"
         inkscape:connector-curvature="0" /><path
         d="m 1460.27,2339.47 0,0 m -13.24,5.58 0,0 m 168.91,-215.46 0,0 m 298.67,-4.07 0,0 m -454.34,190.08 0,0 m 28.48,-72.19 0,0 m 42.23,52.39 0,0 m 173,-281.57 0,0 m -220.82,246.49 0,0 m 328.68,-41.17 0,0 m -270.67,79.29 0,0 m -76.83,-10.19 0,0 m 349.02,-90.43 0,0 m -104.81,118.91 0,0 m -127.18,-154.5 0,0 m -26.49,61.49 0,0 m 20.35,43.71 0,0 m 236.1,-45.74 0,0 m -150.59,-65.55 0,0 m -139.41,88.44 0,0 m 236.56,2.54 0,0 m 2.58,-23.4 0,0 m -95.16,14.22 0,0 m 67.15,45.74 0,0 m 114.49,-169.22 0,0 m -389.76,184.49 0,0 m 11.72,4.57 0,0 m 240.66,-155.51 0,0 m -41.21,170.24 0,0 m -76.84,-115.35 0,0 m 165.36,55.39 0,0 m -277.27,23.86 0,0 m 210.62,-123.47 0,0 m -37.65,86.37 0,0 m 26.95,83.36 0,0 m -118.01,-156.02 0,0 m -44.8,118.4 0,0 m 170.47,33.04 0,0 m -180.12,-84.37 0,0 m 31.05,57.97 0,0 m -65.66,-9.69 0,0 m 211.68,-237.3 0,0 m 58.01,49.76 0,0 m -280.86,192.15 0,0 m 328.16,-88.44 0,0 m -290.5,75.2 0,0 m 225.39,19.33 0,0 m -5.08,6.61 0,0 m -31.56,-101.64 0,0 m -217.27,99.1 0,0 m 15.27,-54.89 0,0 m 531.68,-268.86 0,0 m -395.82,116.91 0,0 m 62.58,230.7 0,0 m -102.77,-25.89 0,0 m -79.89,-36.1 0,0 m 186.22,50.31 0,0 m -61.57,-17.26 0,0 m -15.27,-142.31 0,0 m 26.48,162.62 0,0 m -52.93,-7.62 0,0 m 176.57,-81.32 0,0 m -195.39,-81.8 0,0 m -115,189.02 0,0 m 106.83,-48.28 0,0 m 233.05,-56.91 0,0 m 146.52,-209.89 0,0 m -485.9,315.08 0,0 m 223.36,-325.23 0,0 m -58.51,104.69 0,0 m 9.18,179.92 0,0 m 130.23,-34.07 0,0 m -309.33,85.9 0,0 m 40.19,-100.62 0,0 m 58.52,36.56 0,0 m 121.6,17.81 0,0 m 42.22,13.71 0,0 m -248.78,-19.8 0,0 m 265.58,1.48 0,0 m 91.06,-110.78 0,0 m -239.65,28.99 0,0 m 96.68,-191.6 0,0 m -177.07,208.35 0,0 m 242.22,59.46 0,0 m -214.21,-14.22 0,0 m 116.01,46.25 0,0 m -65.16,-13.71 0,0 m 9.69,-161.6 0,0 m 76.84,-120.98 0,0 m -212.7,315.59 0,0 m 13.75,-54.38 0,0 m 2.54,-6.6 0,0 m 66.13,-19.3 0,0 m 114.5,-212.46 0,0 m -189.81,271.92 0,0 m 331.25,-127.58 0,0 m -50.39,80.82 0,0 m -236.56,-15.24 0,0 m 60.55,-97.07 0,0 m -103.29,138.75 0,0 m 161.29,-191.09 0,0 m 35.59,168.71 0,0 m -5.08,-220.04 0,0 m 71.76,160.08 0,0 m 115.47,-21.33 0,0 m -302.23,0 0,0 m 65.67,-91.48 0,0 m 164.33,106.21 0,0 m -142.97,-126.06 0,0 m -134.33,170.78 0,0 m 246.25,26.41 0,0 m -261.53,-9.65 0,0 m 96.17,33.05 0,0 m 119.07,-237.34 0,0 m 114.49,161.6 0,0 m -343.95,92.5 0,0 m 64.11,-124.5 0,0 m 125.66,-103.71 0,0 m 89.02,195.16 0,0 m -273.2,32.03 0,0 m -13.75,15.78 0,0 m 56.48,-65.58 0,0 m 51.88,-51.84 0,0 m -96.64,91.99 0,0 m 238.63,-2.54 0,0 m -33.08,10.67 0,0 m -216.76,15.23 0,0 m 297.15,-83.32 0,0 m -37.15,-193.12 0,0 m -228.44,193.63 0,0 m -14.26,45.74 0,0 m -6.6,3.56 0,0 m 255.9,5.58 0,0 m -30.51,-276.48 0,0 m -112.46,105.19 0,0 m -76.29,100.63 0,0 m 71.72,-92.46 0,0 m 366.33,-71.68 0,0 m -394.81,208.86 0,0 m 305.79,-96.05 0,0 m -303.25,26.45 0,0 m -81.91,88.43 0,0 m 152.11,-35.58 0,0 m 242.19,-85.9 0,0 m -305.28,53.36 0,0 m -50.86,53.36 0,0 m 117.5,-119.42 0,0 m -100.74,38.64 0,0 m 93.13,104.68 0,0 m -69.18,-79.8 0,0 m 75.78,23.4 0,0 m -142.97,33.51 0,0 m 283.91,-14.22 0,0 m -48.33,-110.78 0,0 m -89.53,-80.82 0,0 m -22.93,81.84 0,0 m -142.97,161.09 0,0 m 210.16,-259.18 0,0 m 61.56,232.78 0,0 m -44.25,30.97 0,0 m 248.79,-232.73 0,0 m -194.89,119.41 0,0 m -84.45,110.28 0,0 m -204.02,30 0,0 m 245.23,-317.66 0,0 m -23.91,-16.25 0,0 m -216.75,328.32 0,0 m 194.88,-44.73 0,0 m -163.32,-45.74 0,0 m 361.76,-81.83 0,0 m -247.31,-48.29 0,0 m -104.8,154.5 0,0 m 242.18,0 0,0 m -249.8,-4.07 0,0 m 280.35,-232.73 0,0 m -110.94,14.22 0,0 m 281.88,50.82 0,0 m -93.09,53.36 0,0 m -92.61,50.31 0,0 m -278.32,65.04 0,0 m 260,6.6 0,0 m -228.44,-29.96 0,0 m 36.13,-14.77 0,0 m 439.57,-207.34 0,0 m -443.16,151.45 0,0 m 314.96,-9.65 0,0 m -187.74,152.46 0,0 m 188.25,-212.93 0,0 m 22.38,35.58 0,0 m -73.75,16.25 0,0 m -186.76,151.45 0,0 m -48.32,-39.14 0,0 m 116.52,-230.7 0,0 m -17.3,239.84 0,0 m 4.57,38.63 0,0 m 12.73,-3.04 0,0 m -208.12,-55.39 0,0 m 164.37,-190.08 0,0 m -134.84,200.23 0,0 m 230.47,6.1 0,0"
         style="fill:none;stroke:#00c4dd;stroke-width:4.0687499;stroke-linecap:round;stroke-linejoin:round;stroke-miterlimit:10;stroke-dasharray:none;stroke-opacity:1"
         id="path72"
         inkscape:connector-curvature="0" /><path
         d="m 1820.51,2106.23 0,0 m -31.06,134.14 0,0 m -208.59,27.46 0,0 m 250.31,-63.01 0,0 m 82.42,-79.3 0,0 m -234.06,-58.94 0,0 m -211.64,256.64 0,0 m 9.65,-29.49 0,0 m 2.07,-39.61 0,0 m 269.65,10.66 0,0 m -111.45,-154.49 0,0 m 125.2,147.89 0,0 m -257.97,-5.59 0,0 m 219.8,45.24 0,0 m -242.69,17.26 0,0 m 469.1,-211.4 0,0 m -304.77,22.85 0,0 m -160.27,162.62 0,0 m -27.46,8.16 0,0 m 208.59,-276.99 0,0 m 39.69,291.21 0,0 m -252.38,3.55 0,0 m -1.02,5.08 0,0 m 80.9,-135.7 0,0 m 51.41,122.5 0,0 m 94.65,-298.32 0,0 m -87.54,187.54 0,0 m 324.61,-72.7 0,0 m -470.63,221.1 0,0 m 262.54,-30.51 0,0 m -234.06,-39.65 0,0 m -16.76,20.35 0,0 m 166.87,-185.51 0,0 m -21.87,200.75 0,0 m -94.14,-67.62 0,0 m 262.03,11.72 0,0 m -43.75,47.77 0,0 m -46.29,-297.3 0,0 m -161.29,221.05 0,0 m 130.24,98.59 0,0 m -61.06,-185.5 0,0 m -124.14,154.02 0,0 m 193.32,37.07 0,0 m -201.99,-7.11 0,0 m 22.42,-30.47 0,0 m 295.08,-33.55 0,0 m -119.57,-211.96 0,0 m -194.84,269.38 0,0 m 431.95,-170.27 0,0 m -441.13,200.27 0,0 m 319.53,-119.45 0,0 m -204.53,55.89 0,0 m -105.82,19.34 0,0 m 9.14,3.05 0,0 m -15.79,20.82 0,0 m 49.38,-49.81 0,0 m 46.8,24.93 0,0 m -10.67,-28.99 0,0 m 137.35,-216.99 0,0 m -74.77,86.87 0,0 m 143.48,128.6 0,0 m -280.35,39.65 0,0 m 31.01,-33.05 0,0 m -36.09,38.63 0,0 m 44.76,-27.46 0,0 m 111.41,-201.76 0,0 m 303.24,31.02 0,0 m -453.32,188.05 0,0 m 84.96,-89.46 0,0 m 158.24,100.12 0,0 m -146.01,-14.22 0,0 m 122.62,22.34 0,0 m -112.97,-34.02 0,0 m -119.07,31.99 0,0 m 3.05,24.42 0,0 m 153.67,-26.45 0,0 m -126.68,-29.96 0,0 m -29.02,47.74 0,0 m 84.49,-136.68 0,0 m 264.57,-7.15 0,0 m -324.1,91.99 0,0 m 294.57,-69.1 0,0 m 120.08,-76.76 0,0 m -361.76,153.98 0,0 m -50.86,-5.58 0,0 m 206.57,-276.45 0,0 m -235.59,332.85 0,0 m 279.84,-56.91 0,0 m -30.5,30 0,0 m -256.96,40.16 0,0 m 129.73,-138.25 0,0 m 49.37,103.17 0,0 m 22.89,-269.34 0,0 m 228.44,107.23 0,0 m -119.06,114.84 0,0 m -26.45,-132.65 0,0 m -131.75,156.05 0,0 m -69.73,-97.58 0,0 m -0.51,63.52 0,0 m 124.65,-213.44 0,0 m -93.59,252.07 0,0 m 424.84,-260.23 0,0 m -536.8,301.91 0,0 m 350.04,-126.56 0,0 m -202.5,-50.82 0,0 m 86.02,-92.5 0,0 m -158.24,122.5 0,0 m -66.14,121.44 0,0 m 153.64,-158.04 0,0 m 43.75,158.04 0,0 m -202.5,16.76 0,0 m 592.77,-414.18 0,0 m -564.77,348.64 0,0 m 245.24,34.57 0,0 m 8.12,-7.11 0,0 m -278.83,25.89 0,0 m 354.65,-111.28 0,0 m -104.29,105.19 0,0 m 162.3,-150.43 0,0 m -194.37,162.11 0,0 m -15.79,-9.65 0,0 m 226.45,-181.95 0,0 m -45.31,7.15 0,0 m -338.87,139.72 0,0 m -31.01,-10.66 0,0 m 140.93,-179.41 0,0 m 95.16,-60.98 0,0 m -91.09,59.45 0,0 m -65.63,75.24 0,0 m 4.57,128.59 0,0 m 159.26,-135.19 0,0 m -236.6,135.19 0,0 m 305.27,-91.99 0,0 m -87.5,116.37 0,0 m 60.04,-175.36 0,0 m -80.39,-137.18 0,0 m -142.46,281.05 0,0 m -75.32,31.99 0,0 m 278.33,-27.42 0,0 m -263.05,-4.57 0,0 m 164.33,-138.24 0,0 m 127.74,71.64 0,0 m -106.88,93.01 0,0 m 81.92,-169.73 0,0 m -267.62,135.66 0,0 m 207.58,26.45 0,0 m 1.01,17.77 0,0 m -203.51,-39.14 0,0 m -22.38,46.25 0,0 m 293.59,-52.34 0,0 m -58.52,-238.87 0,0 m -100.23,260.24 0,0 m -138.91,43.71 0,0 m 21.37,-54.92 0,0 m 66.13,-84.85 0,0 m -8.63,81.8 0,0 m 167.38,-157.03 0,0 m -237.61,180.93 0,0 m 367.38,-195.15 0,0 m -102.77,-65.55 0,0 m 175,79.77 0,0 m -42.23,40.15 0,0 m -206.56,101.14 0,0 m -52.93,38.63 0,0 m -133.79,-8.63 0,0 m 489.45,-208.87 0,0 m -367.34,92.46 0,0 m 150.08,106.76 0,0 m -277.82,29.96 0,0 m 173.01,-226.13 0,0 m 257.46,18.28 0,0 m -296.13,14.22 0,0 m -10.67,5.58 0,0 m -78.35,126.56 0,0 m 10.66,12.19 0,0 m -48.32,40.16 0,0 m 112.42,-170.78 0,0 m 177.58,101.68 0,0 m -289.49,43.16 0,0 m 195.9,18.83 0,0 m 19.29,-285.12 0,0 m 74.3,226.68 0,0 m 9.18,11.17 0,0 m -248.32,32 0,0 m 19.33,-95.51 0,0 m 191.33,107.73 0,0 m 209.61,-245.97 0,0 m -480.82,270.86 0,0 m 250.86,-158.05 0,0 m 264.06,-154.49 0,0 m -448.75,237.34 0,0 m 49.85,-105.2 0,0 m -95.67,153.99 0,0 m 240.67,7.62 0,0 m 9.68,-9.14 0,0 m 159.26,-144.34 0,0 m -416.72,140.78 0,0 m -10.19,18.28 0,0 m 221.83,-308.47 0,0 m -205.03,290.7 0,0"
         style="fill:none;stroke:#00c4dd;stroke-width:4.0687499;stroke-linecap:round;stroke-linejoin:round;stroke-miterlimit:10;stroke-dasharray:none;stroke-opacity:1"
         id="path74"
         inkscape:connector-curvature="0" /><path
         d="m 1679.53,2038.61 0,0 m -212.65,248.01 0,0 m 286.44,-42.66 0,0 m -295.59,73.17 0,0 m 92.58,-133.68 0,0 m -92.07,133.17 0,0 m 392.27,-146.37 0,0 m -224.38,141.8 0,0 m 88.52,0.5 0,0 m 51.91,-47.77 0,0 m -185.19,-132.15 0,0 m 40.19,-52.85 0,0 m 16.76,143.83 0,0 m -176.02,76.25 0,0 m 329.69,-183.48 0,0 m -245.23,181.96 0,0 m 242.69,-235.82 0,0 m 49.89,69.61 0,0 m -140.43,-76.72 0,0 m -254.42,295.27 0,0 m 10.16,-40.16 0,0 m 286.99,-38.12 0,0 m -195.39,-68.59 0,0 m -91.6,105.7 0,0 m 8.67,-13.71 0,0 m 83.44,-14.26 0,0 m -85.47,38.12 0,0 m 279.33,-48.78 0,0 m -261.01,-11.18 0,0 m -1.52,22.35 0,0 m 445.7,-192.62 0,0 m -248.32,215.51 0,0 m -221.33,20.82 0,0 m 7.15,-35.55 0,0 m 239.65,29.96 0,0 m -241.17,5.08 0,0 m 311.87,-251.05 0,0 m -170.43,70.11 0,0 m 284.41,7.15 0,0 m 25.94,-35.58 0,0 m -390.23,150.43 0,0 m -25.47,12.69 0,0 m 192.85,43.2 0,0 m -19.84,-317.61 0,0 m -203.52,289.64 0,0 m 204.03,-276.95 0,0 m 63.08,13.71 0,0 m -31.52,163.13 0,0 m -235.59,132.65 0,0 m -12.73,5.59 0,0 m 361.76,-152.46 0,0 m -135.32,145.86 0,0 m -166.91,-114.85 0,0 m 95.66,-92.5 0,0 m -140.93,159.07 0,0 m 0,-2.03 0,0 m -13.25,42.69 0,0 m -1.52,14.22 0,0 m 159.77,-146.37 0,0 m -157.23,140.78 0,0 m 19.84,-5.07 0,0 m 219.3,3.04 0,0 m -231.99,-29.96 0,0 m 508.28,-223.63 0,0 m -494.57,215.98 0,0 m 60.58,10.19 0,0 m 210.63,-32.03 0,0 m -292.58,48.79 0,0 m 297.66,-34.06 0,0 m -109.38,-25.9 0,0 m -193.87,90.47 0,0 m 215.75,-15.78 0,0 m -50.39,-59.46 0,0 m 186.75,-35.58 0,0 m -147.57,67.11 0,0 m 92.61,-44.22 0,0 m -268.67,17.77 0,0 m 243.24,32.54 0,0 m -268.67,26.91 0,0 m -1.01,3.05 0,0 m 165.35,-115.86 0,0 m 153.67,18.28 0,0 m -71.25,84.38 0,0 m -125.66,-52.35 0,0 m -123.13,71.68 0,0 m 260.51,-26.44 0,0 m 39.18,-14.73 0,0 m -111.92,21.84 0,0 m -161.83,-63.52 0,0 m 50.39,27.93 0,0 m 160.27,36.09 0,0 m 207.58,-212.92 0,0 m -313.4,198.2 0,0 m -83.44,-60.98 0,0 m 64.61,-12.73 0,0 m -108.9,96.05 0,0 m 133.32,-138.71 0,0 m 253.4,-102.19 0,0 m -191.33,-24.37 0,0 m -147.03,218.51 0,0 m -15.78,-8.63 0,0 m -19.34,33.05 0,0 m 436.56,-190.08 0,0 m 53.4,-26.45 0,0 m -312.89,172.82 0,0 m -171.48,2.54 0,0 m 378.55,-109.26 0,0 m -208.59,168.2 0,0 m -46.84,-12.19 0,0 m -138.87,-10.15 0,0 m 186.21,-217.03 0,0 m 0.51,57.46 0,0 m 276.8,-24.92 0,0 m -241.72,59.45 0,0 m 8.67,145.35 0,0 m -225.39,13.24 0,0 m 53.4,-58.98 0,0 m 66.68,26.44 0,0 m -94.14,-12.69 0,0 m 20.35,-10.2 0,0 m 344.96,-98.59 0,0 m -137.38,127.58 0,0 m 96.17,-127.07 0,0 m -181.13,-34.03 0,0 m -177.07,175.32 0,0 m 99.72,-84.34 0,0 m 18.83,-84.88 0,0 m -36.64,114.33 0,0 m -74.76,18.32 0,0 m 88.51,-6.64 0,0 m 146.52,40.67 0,0 m -225.89,-33.05 0,0 m 166.36,-222.07 0,0 m 196.41,131.13 0,0 m -42.73,38.09 0,0 m -176.57,79.8 0,0 m 238.64,-135.7 0,0 m -212.15,-115.86 0,0 m 41.21,-33.05 0,0 m 76.8,196.68 0,0 m -271.68,85.39 0,0 m 178.59,-291.21 0,0 m -179.61,274.96 0,0 m 110.9,-172.81 0,0 m 137.89,174.34 0,0 m -276.29,40.15 0,0 m 26.99,-36.6 0,0 m -4.57,-35.58 0,0 m 342.42,-177.39 0,0 m 54.42,70.67 0,0 m -410.08,162.11 0,0 m 370.39,-195.16 0,0 m -310.86,146.37 0,0 m 163.83,52.85 0,0 m 90.08,-117.89 0,0 m -143.52,-120.47 0,0 m -159.73,176.88 0,0 m 85.98,-36.61 0,0 m 179.61,44.22 0,0 m -231.52,4.57 0,0 m 174.02,50.32 0,0 m -186.25,-89.93 0,0 m -45.78,93.99 0,0 m 90.59,-67.07 0,0 m 15.23,-70.67 0,0 m -105.82,141.8 0,0 m 142.97,-225.62 0,0 m 47.34,206.32 0,0 m 50.86,3.56 0,0 m 151.64,-145.86 0,0 m -390.27,150.94 0,0 m 5.12,-22.86 0,0 m 235.03,20.32 0,0 m 26.49,-21.84 0,0 m -210.16,-26.44 0,0 m 343.44,-159.07 0,0 m -316.45,172.27 0,0 m -14.76,-11.68 0,0 m -55.47,28.48 0,0 m 224.38,-273.95 0,0 m -17.31,297.81 0,0 m -220.31,4.07 0,0 m 123.63,-22.86 0,0 m -109.88,-2.54 0,0 m 207.58,-45.23 0,0 m -33.56,-127.07 0,0 m 4.06,191.09 0,0 m -74.8,-147.89 0,0 m 76.33,-45.23 0,0 m -82.93,172.3 0,0 m 288.98,-152.97 0,0 m -261.52,25.4 0,0 m 171.99,97.07 0,0 m -255.94,15.23 0,0 m 301.72,-211.91 0,0 m -98.71,235.82 0,0 m 3.56,-4.57 0,0 m 127.22,-211.96 0,0 m -373.47,172.82 0,0 m -13.21,34.06 0,0"
         style="fill:none;stroke:#00c4dd;stroke-width:4.0687499;stroke-linecap:round;stroke-linejoin:round;stroke-miterlimit:10;stroke-dasharray:none;stroke-opacity:1"
         id="path76"
         inkscape:connector-curvature="0" /><path
         d="m 1878.52,2154.51 0,0 m -295.12,145.86 0,0 m 161.29,-19.85 0,0 m -1.53,-17.77 0,0 m -191.83,27.46 0,0 m -0.51,11.17 0,0 m 220.31,-92.5 0,0 m -320.54,142.31 0,0 m 163.32,-170.78 0,0 m -12.7,-6.1 0,0 m -121.6,88.44 0,0 m 85.47,-14.73 0,0 m -82.93,2.54 0,0 m 46.29,-50.31 0,0 m 152.15,125.51 0,0 m 103.79,-169.22 0,0 m -210.67,83.32 0,0 m 216.25,4.1 0,0 m -249.3,-9.18 0,0 m -84.96,87.93 0,0 m -5.11,11.17 0,0 m 303.75,-75.7 0,0 m 60.54,-49.3 0,0 m -300.19,73.67 0,0 m 143.01,-229.17 0,0 m -204.07,276.95 0,0 m 38.17,-67.58 0,0 m 257.46,10.16 0,0 m -162.31,-128.05 0,0 m 138.91,152.46 0,0 m -7.66,-42.19 0,0 m -17.77,-225.66 0,0 m -221.33,226.17 0,0 m 27.97,31.49 0,0 m -12.73,-38.09 0,0 m 111.95,-151.95 0,0 m -144.49,209.37 0,0 m 35.11,-17.3 0,0 m 118.01,-150.94 0,0 m 230,40.16 0,0 m -371.95,87.93 0,0 m 155.7,54.88 0,0 m -177.07,18.79 0,0 m 71.25,-61.49 0,0 m 228.44,-34.53 0,0 m -228.44,15.74 0,0 m -9.69,4.57 0,0 m 150.63,-240.39 0,0 m -33.59,298.83 0,0 m -156.72,-53.87 0,0 m 226.95,53.36 0,0 m -213.71,-66.56 0,0 m 171.95,-215.51 0,0 m -170.43,242.42 0,0 m 517.46,-289.17 0,0 m -261.52,293.24 0,0 m -178.09,-116.88 0,0 m -88,111.8 0,0 m 326.64,-54.88 0,0 m -251.37,-62 0,0 m -106.33,185.51 0,0 m 252.38,-127.58 0,0 m -73.79,88.95 0,0 m 263.05,-197.7 0,0 m -419.76,209.89 0,0 m 14.76,-71.14 0,0 m -1.52,2.54 0,0 m -8.67,8.13 0,0 m 262.03,18.28 0,0 m -282.39,40.16 0,0 m 34.61,-78.79 0,0 m 287.47,-1.49 0,0 m -162.31,-59.49 0,0 m 127.73,85.9 0,0 m 14.22,-22.38 0,0 m 155.71,-127.54 0,0 m -147.54,142.3 0,0 m 217.22,-209.37 0,0 m -63.08,67.07 0,0 m -412.11,112.81 0,0 m 273.71,-26.91 0,0 m -337.3,155 0,0 m 214.17,-312.08 0,0 m -32.53,124.54 0,0 m 347.5,-102.15 0,0 m -320.04,259.69 0,0 m -145,-66.06 0,0 m -40.2,54.88 0,0 m -5.58,-24.37 0,0 m 283.39,-231.76 0,0 m -43.24,261.21 0,0 m -222.38,-60.47 0,0 m -22.89,64.03 0,0 m 280.35,-34.57 0,0 m 167.93,-163.64 0,0 m 76.33,-111.29 0,0 m -534.26,333.4 0,0 m 20.86,-31.52 0,0 m 14.26,-30 0,0 m 156.72,-228.67 0,0 m -153.17,200.23 0,0 m -21.87,53.36 0,0 m 84.96,-103.16 0,0 m 155.19,-150.43 0,0 m 147.54,39.65 0,0 m -105.31,169.72 0,0 m 14.77,-34.57 0,0 m -128.75,-55.9 0,0 m 76.83,139.77 0,0 m -251.33,5.08 0,0 m 7.62,-13.21 0,0 m 157.23,-229.72 0,0 m -127.23,191.09 0,0 m 376.02,-129.1 0,0 m -414.69,168.75 0,0 m 29.02,-21.33 0,0 m 328.17,-211.44 0,0 m -362.78,266.83 0,0 m 153.17,-208.9 0,0 m -138.4,169.76 0,0 m 285.94,-34.57 0,0 m -301.22,70.12 0,0 m 31.06,-87.89 0,0 m 43.24,21.83 0,0 m 148.05,53.36 0,0 m -192.81,-47.77 0,0 m -7.66,24.92 0,0 m 227.42,16.25 0,0 m -243.71,-8.12 0,0 m 295.12,-263.75 0,0 m 151.13,85.35 0,0 m -146.56,-34.03 0,0 m -176.02,49.3 0,0 m 129.22,167.19 0,0 m 165.35,-161.1 0,0 m -128.2,128.05 0,0 m 157.73,-148.4 0,0 m -135.86,79.3 0,0 m 8.13,-156.02 0,0 m -322.07,267.82 0,0 m -3.56,13.71 0,0 m 16.8,-65.04 0,0 m 38.17,10.66 0,0 m -51.92,43.21 0,0 m 321.56,-71.14 0,0 m -104.8,-224.14 0,0 m 16.29,5.08 0,0 m 46.29,256.13 0,0 m -241.17,-55.89 0,0 m 254.41,20.85 0,0 m -28.52,46.76 0,0 m 198.44,-189.06 0,0 m -290.51,202.27 0,0 m -8.16,-233.29 0,0 m -163.32,238.36 0,0 m 11.72,-39.64 0,0 m 308.32,-70.12 0,0 m -162.81,-115.35 0,0 m -154.69,226.13 0,0 m 468.63,-211.91 0,0 m -292.58,-0.51 0,0 m 283.4,-12.19 0,0 m -421.8,140.78 0,0 m 35.12,-45.23 0,0 m 135.35,127.54 0,0 m -191.32,-44.73 0,0 m 96.67,25.94 0,0 m 139.42,7.11 0,0 m -42.23,-277.5 0,0 m -172.5,251.05 0,0 m 306.29,-52.85 0,0 m -334.76,60 0,0 m 189.76,-163.16 0,0 m 5.63,189.06 0,0 m -200.47,-30.98 0,0 m 12.19,24.38 0,0 m 336.32,-111.29 0,0 m -67.65,66.05 0,0 m 14.22,-39.65 0,0 m -69.18,96.57 0,0 m 141.95,-123.48 0,0 m -380.08,142.26 0,0 m 366.84,-155.5 0,0 m -250.32,5.08 0,0 m 183.17,84.88 0,0 m -51.41,-127.03 0,0 m 221.33,-29.5 0,0 m -385.16,84.38 0,0 m -23.9,61.99 0,0 m 389.22,-127.03 0,0 m -410.59,112.31 0,0 m -6.6,35.58 0,0 m 190.78,-278.51 0,0 m -204.53,291.71 0,0 m 152.11,-165.7 0,0 m -24.42,176.88 0,0 m -42.73,-72.66 0,0 m 185.2,50.31 0,0 m -267.62,8.64 0,0 m 132.81,-27.47 0,0"
         style="fill:none;stroke:#00c4dd;stroke-width:4.0687499;stroke-linecap:round;stroke-linejoin:round;stroke-miterlimit:10;stroke-dasharray:none;stroke-opacity:1"
         id="path78"
         inkscape:connector-curvature="0" /><path
         d="m 1622.07,2233.26 0,0"
         style="fill:none;stroke:#000000;stroke-width:12.20629978;stroke-linecap:round;stroke-linejoin:round;stroke-miterlimit:10;stroke-dasharray:none;stroke-opacity:1"
         id="path80"
         inkscape:connector-curvature="0" /><path
         d="m 1622.19,2215.05 c 10.08,0 18.32,8.21 18.32,18.29 0,10.11 -8.24,18.32 -18.32,18.32 -10.12,0 -18.32,-8.21 -18.32,-18.32 0,-10.08 8.2,-18.29 18.32,-18.29 m 30.39,80.75 c -185.16,84.68 -241.68,-31.33 -61.06,-125.04 185.16,-85.08 242.23,31.25 61.06,125.04"
         style="fill:none;stroke:#000000;stroke-width:12.20629978;stroke-linecap:butt;stroke-linejoin:round;stroke-miterlimit:10;stroke-dasharray:none;stroke-opacity:1"
         id="path82"
         inkscape:connector-curvature="0" /><path
         d="m 474.73,1173.65 0,0"
         style="fill:none;stroke:#ff00ff;stroke-width:12.20629978;stroke-linecap:round;stroke-linejoin:round;stroke-miterlimit:10;stroke-dasharray:none;stroke-opacity:1"
         id="path84"
         inkscape:connector-curvature="0" /><path
         d="M 444.691,1226.5 C 273.16,1123.88 329.102,1027.09 504.73,1120.8 c 27.032,12.54 121.25,81.33 100.739,126.01 -25.981,42.42 -137.071,-3.47 -160.778,-20.31"
         style="fill:none;stroke:#000000;stroke-width:12.20629978;stroke-linecap:butt;stroke-linejoin:round;stroke-miterlimit:10;stroke-dasharray:none;stroke-opacity:1"
         id="path88"
         inkscape:connector-curvature="0" /><path
         d="m 1750.78,1149.23 0,0"
         style="fill:none;stroke:#000000;stroke-width:12.20629978;stroke-linecap:round;stroke-linejoin:round;stroke-miterlimit:10;stroke-dasharray:none;stroke-opacity:1"
         id="path90"
         inkscape:connector-curvature="0" /><path
         d="m 1750.9,1130.76 c 10.12,0 18.32,8.2 18.32,18.28 0,10.12 -8.2,18.32 -18.32,18.32 -10.12,0 -18.32,-8.2 -18.32,-18.32 0,-10.08 8.2,-18.28 18.32,-18.28 m 30.43,81.01 c -185.2,84.73 -241.8,-31.36 -61.06,-125.04 185.16,-85.07 242.23,31.25 61.06,125.04"
         style="fill:none;stroke:#000000;stroke-width:12.20629978;stroke-linecap:butt;stroke-linejoin:round;stroke-miterlimit:10;stroke-dasharray:none;stroke-opacity:1"
         id="path92"
         inkscape:connector-curvature="0" /><path
         d="m 1640.39,1170.09 0,0"
         style="fill:none;stroke:#ff00ff;stroke-width:12.20629978;stroke-linecap:round;stroke-linejoin:round;stroke-miterlimit:10;stroke-dasharray:none;stroke-opacity:1"
         id="path94"
         inkscape:connector-curvature="0" /><path
         d="m 1640.66,1151.58 c 10.08,0 18.32,8.2 18.32,18.28 0,10.12 -8.24,18.32 -18.32,18.32 -10.11,0 -18.32,-8.2 -18.32,-18.32 0,-10.08 8.21,-18.28 18.32,-18.28 m 4.81,-91.76 c 283.48,21.95 274.06,225.35 -10.2,221.06 -282.93,-22.11 -273.82,-225.32 10.2,-221.06"
         style="fill:none;stroke:#ff6e0b;stroke-width:12.20629978;stroke-linecap:butt;stroke-linejoin:round;stroke-miterlimit:10;stroke-dasharray:none;stroke-opacity:1"
         id="path96"
         inkscape:connector-curvature="0" /><path
         d="m 474.691,168.102 c 10.079,0 18.321,8.211 18.321,18.32 0,10.082 -8.242,18.281 -18.321,18.281 -10.121,0 -18.32,-8.199 -18.32,-18.281 0,-10.109 8.199,-18.32 18.32,-18.32 m -30,70.902 C 273.16,136.422 329.102,39.6328 504.73,133.305 c 26.989,12.578 121.25,81.359 100.739,126.047 -25.981,42.421 -137.071,-3.469 -160.778,-20.348"
         style="fill:none;stroke:#000000;stroke-width:12.20629978;stroke-linecap:butt;stroke-linejoin:round;stroke-miterlimit:10;stroke-dasharray:none;stroke-opacity:1"
         id="path98"
         inkscape:connector-curvature="0" /><path
         d="m 474.73,186.191 0,0 m -66.179,-142.3082 0,0 m -156.172,76.2112 0,0 m 288.48,208.359 0,0 m 155.7,-76.211 0,0"
         style="fill:none;stroke:#ff0000;stroke-width:12.20629978;stroke-linecap:round;stroke-linejoin:round;stroke-miterlimit:10;stroke-dasharray:none;stroke-opacity:1"
         id="path100"
         inkscape:connector-curvature="0" /><path
         d="m 474.691,168.102 c 10.079,0 18.321,8.211 18.321,18.32 0,10.082 -8.242,18.281 -18.321,18.281 -10.121,0 -18.32,-8.199 -18.32,-18.281 0,-10.109 8.199,-18.32 18.32,-18.32 M 408.281,25.8047 c 10.117,0 18.321,8.1992 18.321,18.3164 0,10.082 -8.204,18.2812 -18.321,18.2812 -10.082,0 -18.281,-8.1992 -18.281,-18.2812 0,-10.1172 8.199,-18.3164 18.281,-18.3164 M 252.5,101.734 c 10.078,0 18.32,8.207 18.32,18.321 0,10.078 -8.242,18.289 -18.32,18.289 -10.121,0 -18.32,-8.211 -18.32,-18.289 0,-10.114 8.199,-18.321 18.32,-18.321 m 288.551,208.719 c 10.121,0 18.328,8.199 18.328,18.281 0,10.079 -8.207,18.278 -18.328,18.278 -10.11,0 -18.321,-8.199 -18.321,-18.278 0,-10.082 8.211,-18.281 18.321,-18.281 m 155.238,-76.531 c 10.121,0 18.32,8.211 18.32,18.32 0,10.082 -8.199,18.281 -18.32,18.281 -10.117,0 -18.32,-8.199 -18.32,-18.281 0,-10.109 8.203,-18.32 18.32,-18.32"
         style="fill:none;stroke:#e00000;stroke-width:12.20629978;stroke-linecap:butt;stroke-linejoin:round;stroke-miterlimit:10;stroke-dasharray:none;stroke-opacity:1"
         id="path102"
         inkscape:connector-curvature="0" /><path
         d="m 1608.28,216.973 0,0"
         style="fill:none;stroke:#000000;stroke-width:12.20629978;stroke-linecap:round;stroke-linejoin:round;stroke-miterlimit:10;stroke-dasharray:none;stroke-opacity:1"
         id="path104"
         inkscape:connector-curvature="0" /><path
         d="m 1608.4,198.734 c 10.08,0 18.32,8.2 18.32,18.321 0,10.078 -8.24,18.277 -18.32,18.277 -10.12,0 -18.32,-8.199 -18.32,-18.277 0,-10.121 8.2,-18.321 18.32,-18.321 m 30.39,80.739 c -185.16,84.73 -241.8,-31.371 -61.06,-125 185.2,-85.1214 242.23,31.211 61.06,125"
         style="fill:none;stroke:#000000;stroke-width:12.20629978;stroke-linecap:butt;stroke-linejoin:round;stroke-miterlimit:10;stroke-dasharray:none;stroke-opacity:1"
         id="path106"
         inkscape:connector-curvature="0" /><path
         d="m 1617.93,204.234 0,0"
         style="fill:none;stroke:#00ff00;stroke-width:12.20629978;stroke-linecap:round;stroke-linejoin:round;stroke-miterlimit:10;stroke-dasharray:none;stroke-opacity:1"
         id="path108"
         inkscape:connector-curvature="0" /><path
         d="m 1617.93,185.805 c 10.12,0 18.32,8.199 18.32,18.316 0,10.082 -8.2,18.281 -18.32,18.281 -10.12,0 -18.32,-8.199 -18.32,-18.281 0,-10.117 8.2,-18.316 18.32,-18.316 m 30.04,80.468 c -216.6,99.61 -272.23,-16.332 -59.53,-124.031 216.6,-98.7498 271.95,16.922 59.53,124.031"
         style="fill:none;stroke:#00c700;stroke-width:12.20629978;stroke-linecap:butt;stroke-linejoin:round;stroke-miterlimit:10;stroke-dasharray:none;stroke-opacity:1"
         id="path110"
         inkscape:connector-curvature="0" /><path
         d="m 1497.85,237.793 0,0 m 214.73,42.191 0,0 m 203.01,-194.1402 0,0 m -263.56,-29.5 0,0 m -218.79,272.4292 0,0"
         style="fill:none;stroke:#ff0000;stroke-width:12.20629978;stroke-linecap:round;stroke-linejoin:round;stroke-miterlimit:10;stroke-dasharray:none;stroke-opacity:1"
         id="path112"
         inkscape:connector-curvature="0" /><path
         d="m 1498.12,219.555 c 10.12,0 18.33,8.199 18.33,18.316 0,10.082 -8.21,18.281 -18.33,18.281 -10.11,0 -18.32,-8.199 -18.32,-18.281 0,-10.117 8.21,-18.316 18.32,-18.316 m 214.34,42.179 c 10.08,0 18.32,8.207 18.32,18.321 0,10.078 -8.24,18.289 -18.32,18.289 -10.12,0 -18.32,-8.211 -18.32,-18.289 0,-10.114 8.2,-18.321 18.32,-18.321 M 1915.51,67.6719 c 10.11,0 18.32,8.2109 18.32,18.3203 0,10.082 -8.21,18.2808 -18.32,18.2808 -10.12,0 -18.32,-8.1988 -18.32,-18.2808 0,-10.1094 8.2,-18.3203 18.32,-18.3203 M 1652.27,37.8711 c 10.11,0 18.32,8.2031 18.32,18.2812 0,10.1211 -8.21,18.3204 -18.32,18.3204 -10.12,0 -18.32,-8.1993 -18.32,-18.3204 0,-10.0781 8.2,-18.2812 18.32,-18.2812 M 1433.44,310.684 c 10.11,0 18.32,8.199 18.32,18.281 0,10.117 -8.21,18.316 -18.32,18.316 -10.12,0 -18.32,-8.199 -18.32,-18.316 0,-10.082 8.2,-18.281 18.32,-18.281"
         style="fill:none;stroke:#e00000;stroke-width:12.20629978;stroke-linecap:butt;stroke-linejoin:round;stroke-miterlimit:10;stroke-dasharray:none;stroke-opacity:1"
         id="path114"
         inkscape:connector-curvature="0" /></g><rect
       style="fill:#ffffff;fill-opacity:1;fill-rule:evenodd;stroke:none;stroke-width:0.80000001;stroke-miterlimit:4;stroke-dasharray:none;stroke-opacity:1"
       id="rect4287"
       width="2.4388082"
       height="2.9146733"
       x="46.456322"
       y="-118.84729"
       transform="scale(1,-1)" /><path
       transform="scale(0.1,0.1)"
       inkscape:connector-curvature="0"
       id="path6039"
       style="fill:none;stroke:#000000;stroke-width:12.20629978;stroke-linecap:butt;stroke-linejoin:round;stroke-miterlimit:10;stroke-dasharray:none;stroke-opacity:1"
       d="m 474.691,1155.9452 c 10.079,0 18.321,8.21 18.321,18.28 0,10.12 -8.242,18.32 -18.321,18.32 -10.121,0 -18.32,-8.2 -18.32,-18.32 0,-10.07 8.199,-18.28 18.32,-18.28" /><ellipse
       style="fill:#000000;fill-opacity:1;fill-rule:evenodd;stroke:#000000;stroke-width:0.80000001;stroke-miterlimit:4;stroke-dasharray:none;stroke-opacity:1"
       id="path6045"
       cx="66.631302"
       cy="-107.70033"
       transform="matrix(0.98560426,0.16906877,0.16906877,-0.98560426,0,0)"
       rx="0.36879876"
       ry="0.35935253" /><ellipse
       ry="0.35935253"
       rx="0.36879876"
       transform="matrix(0.98560426,0.16906877,0.16906877,-0.98560426,0,0)"
       cy="-87.568481"
       cx="181.45963"
       id="ellipse6135"
       style="fill:#ff6e0b;fill-opacity:1;fill-rule:evenodd;stroke:#ff6e0b;stroke-width:0.80000001;stroke-miterlimit:4;stroke-dasharray:none;stroke-opacity:1" /></g></svg>